<?xml version="1.0" encoding="utf-8" ?>
<svg baseProfile="full" height="8539.199999999999px" version="1.1" width="5949.599999999999px" xmlns="http://www.w3.org/2000/svg" xmlns:ev="http://www.w3.org/2001/xml-events" xmlns:xlink="http://www.w3.org/1999/xlink"><defs><style type="text/css"><![CDATA[
        .el:hover { stroke: #E74C3C; stroke-width: 3; cursor: pointer; }
        .tip { visibility: hidden; font-size: 11px; fill: #333; }
        .el:hover ~ .tip { visibility: visible; }
        @keyframes pulse { 0%,100% { opacity: 0.3; } 50% { opacity: 1; } }
        .missing { animation: pulse 1.5s infinite; fill: red; opacity: 0.15;
                   stroke: red; stroke-width: 2; stroke-dasharray: 8,4; }
    ]]></style></defs><text fill="#2C3E50" font-size="20px" font-weight="bold" text-anchor="middle" x="2974.7999999999997" y="30">Multi-Story Coherence: Before vs After Refinement</text><text fill="#E74C3C" font-size="16px" font-weight="bold" text-anchor="middle" x="1239.5" y="55">BEFORE (Broken)</text><g id="f_Upper_Floor__Broken_"><text font-size="13px" font-weight="bold" text-anchor="middle" x="1249.5" y="80">Upper Floor (Broken)</text><polygon class="el" fill="#AFD8F8" opacity="0.75" points="954.0,935.0 1868.0,932.0 1866.0,960.0 955.0,961.0" /><text class="tip" x="1410.75" y="942.0">Wall #0</text><polygon class="el" fill="#AFD8F8" opacity="0.75" points="1840.0,1241.0 1868.0,1242.0 1867.0,933.0 1838.0,932.0" /><text class="tip" x="1853.25" y="1082.0">Wall #1</text><polygon class="el" fill="#AFD8F8" opacity="0.75" points="982.0,1053.0 953.0,1051.0 952.0,932.0 982.0,934.0" /><text class="tip" x="967.25" y="987.5">Wall #2</text><polygon class="el" fill="#AFD8F8" opacity="0.75" points="954.0,1337.0 981.0,1336.0 981.0,1455.0 954.0,1453.0" /><text class="tip" x="967.5" y="1390.25">Wall #3</text><polygon class="el" fill="#AFD8F8" opacity="0.75" points="1432.0,1429.5 1434.0,1453.5 971.0,1457.0 971.0,1429.0" /><text class="tip" x="1202.0" y="1437.25">Wall #4</text><polygon class="el" fill="#AFD8F8" opacity="0.75" points="1556.0,1428.0 1556.0,1457.0 1841.0,1456.0 1842.0,1426.0" /><text class="tip" x="1698.75" y="1436.75">Wall #5</text><polygon class="el" fill="#AFD8F8" opacity="0.75" points="1867.0,1466.5 1868.0,1310.5 1839.0,1311.5 1839.0,1467.5" /><text class="tip" x="1853.25" y="1384.0">Wall #6</text><polygon class="el" fill="#AFD8F8" opacity="0.75" points="1868.0,1427.0 1870.0,1463.0 1824.0,1463.0 1824.0,1429.0" /><text class="tip" x="1846.5" y="1440.5">Wall #7</text><polygon class="el" fill="#AFD8F8" opacity="0.75" points="1823.0,1535.0 1868.0,1534.0 1870.0,1642.0 1821.0,1640.0" /><text class="tip" x="1845.5" y="1582.75">Wall #8</text><polygon class="el" fill="#AFD8F8" opacity="0.75" points="1823.0,1707.0 1864.0,1707.0 1869.0,1976.0 1823.0,1975.0" /><text class="tip" x="1844.75" y="1836.25">Wall #9</text><polygon class="el" fill="#AFD8F8" opacity="0.75" points="1821.0,2113.0 1865.0,2115.0 1869.0,2278.0 1821.0,2281.0" /><text class="tip" x="1844.0" y="2191.75">Wall #10</text><polygon class="el" fill="#AFD8F8" opacity="0.75" points="1356.0,2232.0 1356.0,2272.0 1862.0,2274.0 1866.0,2226.0" /><text class="tip" x="1610.0" y="2246.0">Wall #11</text><polygon class="el" fill="#AFD8F8" opacity="0.75" points="1073.0,2232.0 1073.0,2276.0 949.0,2276.0 951.0,2228.0" /><text class="tip" x="1011.5" y="2248.0">Wall #12</text><polygon class="el" fill="#AFD8F8" opacity="0.75" points="996.0,2072.0 953.0,2071.0 953.0,2271.0 1002.0,2273.0" /><text class="tip" x="976.0" y="2166.75">Wall #13</text><polygon class="el" fill="#AFD8F8" opacity="0.75" points="996.0,1913.0 998.0,1971.0 955.0,1970.0 953.0,1913.0" /><text class="tip" x="975.5" y="1936.75">Wall #14</text><polygon class="el" fill="#AFD8F8" opacity="0.75" points="838.0,1958.0 995.0,1957.0 993.0,1910.0 833.0,1912.0" /><text class="tip" x="914.75" y="1929.25">Wall #15</text><polygon class="el" fill="#AFD8F8" opacity="0.75" points="837.0,1754.0 879.0,1752.0 878.0,1954.0 835.0,1958.0" /><text class="tip" x="857.25" y="1849.5">Wall #16</text><polygon class="el" fill="#AFD8F8" opacity="0.75" points="837.0,1410.0 837.0,1613.0 878.0,1610.0 883.0,1410.0" /><text class="tip" x="858.75" y="1505.75">Wall #17</text><polygon class="el" fill="#AFD8F8" opacity="0.75" points="978.0,1454.0 837.0,1452.0 837.0,1410.0 980.0,1408.0" /><text class="tip" x="908.0" y="1426.0">Wall #18</text><polygon class="el" fill="#AFD8F8" opacity="0.75" points="1634.0,1552.0 1634.0,1563.0 1823.0,1566.0 1822.0,1552.0" /><text class="tip" x="1728.25" y="1553.25">Wall #19</text><polygon class="el" fill="#AFD8F8" opacity="0.75" points="1633.0,1653.0 1644.0,1653.0 1641.0,1903.0 1632.0,1904.0" /><text class="tip" x="1637.5" y="1773.25">Wall #20</text><polygon class="el" fill="#AFD8F8" opacity="0.75" points="1456.0,1895.0 1456.0,1906.0 1648.0,1904.0 1648.0,1896.0" /><text class="tip" x="1552.0" y="1895.25">Wall #21</text><polygon class="el" fill="#AFD8F8" opacity="0.75" points="1739.0,1894.0 1739.0,1905.0 1823.0,1905.0 1824.0,1896.0" /><text class="tip" x="1781.25" y="1895.0">Wall #22</text><polygon class="el" fill="#8BBA00" opacity="0.75" points="952.0,1048.0 951.0,1334.0 985.0,1336.0 988.0,1048.0" /><text class="tip" x="969.0" y="1186.5">Parking #23</text><polygon class="el" fill="#F6BD0F" opacity="0.75" points="1872.0,1238.0 1871.0,1310.0 1835.0,1313.0 1835.0,1240.0" /><text class="tip" x="1853.25" y="1270.25">Window #24</text><polygon class="el" fill="#F6BD0F" opacity="0.75" points="827.0,1609.0 880.0,1610.0 883.0,1757.0 830.0,1758.0" /><text class="tip" x="855.0" y="1678.5">Window #25</text><polygon class="el" fill="#F6BD0F" opacity="0.75" points="1074.0,2280.0 1359.0,2278.0 1358.0,2228.0 1068.0,2230.0" /><text class="tip" x="1214.75" y="2249.0">Window #26</text><polygon class="el" fill="#F6BD0F" opacity="0.75" points="1877.0,1970.0 1874.0,2115.0 1813.0,2115.0 1816.0,1971.0" /><text class="tip" x="1845.0" y="2037.75">Window #27</text><polygon class="el" fill="#F6BD0F" opacity="0.75" points="1872.0,1634.0 1871.0,1705.0 1814.0,1707.0 1815.0,1640.0" /><text class="tip" x="1843.0" y="1666.5">Window #28</text><polygon class="el" fill="#F6BD0F" opacity="0.75" points="1874.0,1463.0 1872.0,1536.0 1822.0,1536.0 1821.0,1463.0" /><text class="tip" x="1847.25" y="1494.5">Window #29</text><polygon class="el" fill="#FF8E46" opacity="0.75" points="1096.0,1970.0 982.0,1968.0 982.0,2068.0 1033.0,2065.0 1087.0,2025.0" /><text class="tip" x="1036.0" y="2014.2">Door #30</text><polygon class="el" fill="#FF8E46" opacity="0.75" points="1653.0,1802.0 1650.0,1899.0 1740.0,1899.0 1734.0,1847.0 1697.0,1816.0" /><text class="tip" x="1694.8" y="1847.6">Door #31</text><polygon class="el" fill="#FF8E46" opacity="0.75" points="1732.0,1565.0 1629.0,1562.0 1634.0,1650.0 1662.0,1656.0 1717.0,1619.0" /><text class="tip" x="1674.8" y="1605.4">Door #32</text><polygon class="el" fill="#FF8E46" opacity="0.75" points="1588.0,1536.0 1640.0,1452.0 1638.0,1550.0 1610.0,1550.0" /><text class="tip" x="1619.0" y="1517.0">Door #33</text><polygon class="el" fill="#FF8E46" opacity="0.75" points="1461.0,1549.0 1463.0,1439.0 1558.0,1442.0 1548.0,1492.0 1521.0,1533.0" /><text class="tip" x="1510.2" y="1486.0">Door #34</text><polygon class="el" fill="#008E8E" opacity="0.4" points="988.0,968.0 1829.0,965.0 1831.0,1418.0 987.0,1423.0" /><text class="tip" x="1408.75" y="1188.5">Room #35</text><polygon class="el" fill="#008E8E" opacity="0.4" points="881.0,1459.0 1440.0,1459.0 1440.0,1898.0 875.0,1907.0" /><text class="tip" x="1159.0" y="1675.75">Room #36</text><polygon class="el" fill="#008E8E" opacity="0.4" points="1006.5,2221.0 1439.5,2223.0 1441.5,1907.0 1001.5,1913.0" /><text class="tip" x="1222.25" y="2061.0">Room #37</text><polygon class="el" fill="#008E8E" opacity="0.4" points="1449.0,1893.0 1629.0,1891.0 1627.0,1456.0 1445.0,1458.0" /><text class="tip" x="1537.5" y="1669.5">Room #38</text><polygon class="el" fill="#008E8E" opacity="0.4" points="1819.0,1894.0 1815.0,1571.0 1651.0,1571.0 1644.0,1894.0" /><text class="tip" x="1732.25" y="1727.5">Room #39</text><polygon class="el" fill="#008E8E" opacity="0.4" points="1646.0,1456.0 1819.0,1456.0 1814.0,1550.0 1639.0,1549.0" /><text class="tip" x="1729.5" y="1497.75">Room #40</text><polygon class="el" fill="#008E8E" opacity="0.4" points="1458.0,1905.0 1812.0,1905.0 1812.0,2221.0 1458.0,2221.0" /><text class="tip" x="1635.0" y="2058.0">Room #41</text><polygon class="el" fill="#D64646" opacity="0.75" points="1436.0,1457.0 1453.0,1457.0 1453.0,2237.0 1436.0,2237.0" /><text class="tip" x="1444.5" y="1842.0">Separation #42</text><polygon class="el" fill="#D64646" opacity="0.75" points="996.0,1897.0 1445.0,1897.0 1445.0,1913.0 996.0,1913.0" /><text class="tip" x="1220.5" y="1900.0">Separation #43</text><polygon class="el" fill="#9B59B6" opacity="0.75" points="1089.3725133764374,973.0034510836977 1561.7367696632346,973.0034510836977 1561.7367696632346,1917.731963657292 1089.3725133764374,1917.731963657292" /><text class="tip" x="1325.554641519836" y="1440.3677073704948">Stair #44</text><polygon fill="#9B59B6" opacity="0.6" points="1089.3725133764374,973.0034510836977 1561.7367696632346,973.0034510836977 1561.7367696632346,1917.731963657292 1089.3725133764374,1917.731963657292" stroke="#9B59B6" stroke-width="3" /><text fill="white" font-size="10px" font-weight="bold" text-anchor="middle" x="1325.554641519836" y="1449.3677073704948">STAIR</text></g><g id="f_Lower_Floor__Reference_"><text font-size="13px" font-weight="bold" text-anchor="middle" x="1249.5" y="3938.8">Lower Floor (Reference)</text><polygon class="el" fill="#AFD8F8" opacity="0.75" points="954.0,4793.8 1868.0,4790.8 1866.0,4818.8 955.0,4819.8" /><text class="tip" x="1410.75" y="4800.8">Wall #0</text><polygon class="el" fill="#AFD8F8" opacity="0.75" points="1840.0,5099.8 1868.0,5100.8 1867.0,4791.8 1838.0,4790.8" /><text class="tip" x="1853.25" y="4940.8">Wall #1</text><polygon class="el" fill="#AFD8F8" opacity="0.75" points="982.0,4911.8 953.0,4909.8 952.0,4790.8 982.0,4792.8" /><text class="tip" x="967.25" y="4846.3">Wall #2</text><polygon class="el" fill="#AFD8F8" opacity="0.75" points="954.0,5195.8 981.0,5194.8 981.0,5313.8 954.0,5311.8" /><text class="tip" x="967.5" y="5249.05">Wall #3</text><polygon class="el" fill="#AFD8F8" opacity="0.75" points="1432.0,5288.3 1434.0,5312.3 971.0,5315.8 971.0,5287.8" /><text class="tip" x="1202.0" y="5296.05">Wall #4</text><polygon class="el" fill="#AFD8F8" opacity="0.75" points="1556.0,5286.8 1556.0,5315.8 1841.0,5314.8 1842.0,5284.8" /><text class="tip" x="1698.75" y="5295.55">Wall #5</text><polygon class="el" fill="#AFD8F8" opacity="0.75" points="1867.0,5325.3 1868.0,5169.3 1839.0,5170.3 1839.0,5326.3" /><text class="tip" x="1853.25" y="5242.8">Wall #6</text><polygon class="el" fill="#AFD8F8" opacity="0.75" points="1868.0,5285.8 1870.0,5321.8 1824.0,5321.8 1824.0,5287.8" /><text class="tip" x="1846.5" y="5299.3">Wall #7</text><polygon class="el" fill="#AFD8F8" opacity="0.75" points="1823.0,5393.8 1868.0,5392.8 1870.0,5500.8 1821.0,5498.8" /><text class="tip" x="1845.5" y="5441.55">Wall #8</text><polygon class="el" fill="#AFD8F8" opacity="0.75" points="1823.0,5565.8 1864.0,5565.8 1869.0,5834.8 1823.0,5833.8" /><text class="tip" x="1844.75" y="5695.05">Wall #9</text><polygon class="el" fill="#AFD8F8" opacity="0.75" points="1821.0,5971.8 1865.0,5973.8 1869.0,6136.8 1821.0,6139.8" /><text class="tip" x="1844.0" y="6050.55">Wall #10</text><polygon class="el" fill="#AFD8F8" opacity="0.75" points="1356.0,6090.8 1356.0,6130.8 1862.0,6132.8 1866.0,6084.8" /><text class="tip" x="1610.0" y="6104.8">Wall #11</text><polygon class="el" fill="#AFD8F8" opacity="0.75" points="1073.0,6090.8 1073.0,6134.8 949.0,6134.8 951.0,6086.8" /><text class="tip" x="1011.5" y="6106.8">Wall #12</text><polygon class="el" fill="#AFD8F8" opacity="0.75" points="996.0,5930.8 953.0,5929.8 953.0,6129.8 1002.0,6131.8" /><text class="tip" x="976.0" y="6025.55">Wall #13</text><polygon class="el" fill="#AFD8F8" opacity="0.75" points="996.0,5771.8 998.0,5829.8 955.0,5828.8 953.0,5771.8" /><text class="tip" x="975.5" y="5795.55">Wall #14</text><polygon class="el" fill="#AFD8F8" opacity="0.75" points="838.0,5816.8 995.0,5815.8 993.0,5768.8 833.0,5770.8" /><text class="tip" x="914.75" y="5788.05">Wall #15</text><polygon class="el" fill="#AFD8F8" opacity="0.75" points="837.0,5612.8 879.0,5610.8 878.0,5812.8 835.0,5816.8" /><text class="tip" x="857.25" y="5708.3">Wall #16</text><polygon class="el" fill="#AFD8F8" opacity="0.75" points="837.0,5268.8 837.0,5471.8 878.0,5468.8 883.0,5268.8" /><text class="tip" x="858.75" y="5364.55">Wall #17</text><polygon class="el" fill="#AFD8F8" opacity="0.75" points="978.0,5312.8 837.0,5310.8 837.0,5268.8 980.0,5266.8" /><text class="tip" x="908.0" y="5284.8">Wall #18</text><polygon class="el" fill="#AFD8F8" opacity="0.75" points="1634.0,5410.8 1634.0,5421.8 1823.0,5424.8 1822.0,5410.8" /><text class="tip" x="1728.25" y="5412.05">Wall #19</text><polygon class="el" fill="#AFD8F8" opacity="0.75" points="1633.0,5511.8 1644.0,5511.8 1641.0,5761.8 1632.0,5762.8" /><text class="tip" x="1637.5" y="5632.05">Wall #20</text><polygon class="el" fill="#AFD8F8" opacity="0.75" points="1456.0,5753.8 1456.0,5764.8 1648.0,5762.8 1648.0,5754.8" /><text class="tip" x="1552.0" y="5754.05">Wall #21</text><polygon class="el" fill="#AFD8F8" opacity="0.75" points="1739.0,5752.8 1739.0,5763.8 1823.0,5763.8 1824.0,5754.8" /><text class="tip" x="1781.25" y="5753.8">Wall #22</text><polygon class="el" fill="#8BBA00" opacity="0.75" points="952.0,4906.8 951.0,5192.8 985.0,5194.8 988.0,4906.8" /><text class="tip" x="969.0" y="5045.3">Parking #23</text><polygon class="el" fill="#F6BD0F" opacity="0.75" points="1872.0,5096.8 1871.0,5168.8 1835.0,5171.8 1835.0,5098.8" /><text class="tip" x="1853.25" y="5129.05">Window #24</text><polygon class="el" fill="#F6BD0F" opacity="0.75" points="827.0,5467.8 880.0,5468.8 883.0,5615.8 830.0,5616.8" /><text class="tip" x="855.0" y="5537.3">Window #25</text><polygon class="el" fill="#F6BD0F" opacity="0.75" points="1074.0,6138.8 1359.0,6136.8 1358.0,6086.8 1068.0,6088.8" /><text class="tip" x="1214.75" y="6107.8">Window #26</text><polygon class="el" fill="#F6BD0F" opacity="0.75" points="1877.0,5828.8 1874.0,5973.8 1813.0,5973.8 1816.0,5829.8" /><text class="tip" x="1845.0" y="5896.55">Window #27</text><polygon class="el" fill="#F6BD0F" opacity="0.75" points="1872.0,5492.8 1871.0,5563.8 1814.0,5565.8 1815.0,5498.8" /><text class="tip" x="1843.0" y="5525.3">Window #28</text><polygon class="el" fill="#F6BD0F" opacity="0.75" points="1874.0,5321.8 1872.0,5394.8 1822.0,5394.8 1821.0,5321.8" /><text class="tip" x="1847.25" y="5353.3">Window #29</text><polygon class="el" fill="#FF8E46" opacity="0.75" points="1096.0,5828.8 982.0,5826.8 982.0,5926.8 1033.0,5923.8 1087.0,5883.8" /><text class="tip" x="1036.0" y="5873.0">Door #30</text><polygon class="el" fill="#FF8E46" opacity="0.75" points="1653.0,5660.8 1650.0,5757.8 1740.0,5757.8 1734.0,5705.8 1697.0,5674.8" /><text class="tip" x="1694.8" y="5706.4">Door #31</text><polygon class="el" fill="#FF8E46" opacity="0.75" points="1732.0,5423.8 1629.0,5420.8 1634.0,5508.8 1662.0,5514.8 1717.0,5477.8" /><text class="tip" x="1674.8" y="5464.200000000001">Door #32</text><polygon class="el" fill="#FF8E46" opacity="0.75" points="1588.0,5394.8 1640.0,5310.8 1638.0,5408.8 1610.0,5408.8" /><text class="tip" x="1619.0" y="5375.8">Door #33</text><polygon class="el" fill="#FF8E46" opacity="0.75" points="1461.0,5407.8 1463.0,5297.8 1558.0,5300.8 1548.0,5350.8 1521.0,5391.8" /><text class="tip" x="1510.2" y="5344.8">Door #34</text><polygon class="el" fill="#008E8E" opacity="0.4" points="988.0,4826.8 1829.0,4823.8 1831.0,5276.8 987.0,5281.8" /><text class="tip" x="1408.75" y="5047.3">Room #35</text><polygon class="el" fill="#008E8E" opacity="0.4" points="881.0,5317.8 1440.0,5317.8 1440.0,5756.8 875.0,5765.8" /><text class="tip" x="1159.0" y="5534.55">Room #36</text><polygon class="el" fill="#008E8E" opacity="0.4" points="1006.5,6079.8 1439.5,6081.8 1441.5,5765.8 1001.5,5771.8" /><text class="tip" x="1222.25" y="5919.8">Room #37</text><polygon class="el" fill="#008E8E" opacity="0.4" points="1449.0,5751.8 1629.0,5749.8 1627.0,5314.8 1445.0,5316.8" /><text class="tip" x="1537.5" y="5528.3">Room #38</text><polygon class="el" fill="#008E8E" opacity="0.4" points="1819.0,5752.8 1815.0,5429.8 1651.0,5429.8 1644.0,5752.8" /><text class="tip" x="1732.25" y="5586.3">Room #39</text><polygon class="el" fill="#008E8E" opacity="0.4" points="1646.0,5314.8 1819.0,5314.8 1814.0,5408.8 1639.0,5407.8" /><text class="tip" x="1729.5" y="5356.55">Room #40</text><polygon class="el" fill="#008E8E" opacity="0.4" points="1458.0,5763.8 1812.0,5763.8 1812.0,6079.8 1458.0,6079.8" /><text class="tip" x="1635.0" y="5916.8">Room #41</text><polygon class="el" fill="#D64646" opacity="0.75" points="1436.0,5315.8 1453.0,5315.8 1453.0,6095.8 1436.0,6095.8" /><text class="tip" x="1444.5" y="5700.8">Separation #42</text><polygon class="el" fill="#D64646" opacity="0.75" points="996.0,5755.8 1445.0,5755.8 1445.0,5771.8 996.0,5771.8" /><text class="tip" x="1220.5" y="5758.8">Separation #43</text><polygon class="el" fill="#9B59B6" opacity="0.75" points="1098.2531100158903,4823.8 1570.6173663026875,4823.8 1570.6173663026875,5768.5285125735945 1098.2531100158903,5768.5285125735945" /><text class="tip" x="1334.435238159289" y="5291.164256286797">Stair #44</text><polygon fill="#9B59B6" opacity="0.6" points="1098.2531100158903,4823.8 1570.6173663026875,4823.8 1570.6173663026875,5768.5285125735945 1098.2531100158903,5768.5285125735945" stroke="#9B59B6" stroke-width="3" /><text fill="white" font-size="10px" font-weight="bold" text-anchor="middle" x="1334.435238159289" y="5300.164256286797">STAIR</text></g><text fill="#27AE60" font-size="16px" font-weight="bold" text-anchor="middle" x="4214.299999999999" y="55">AFTER (Refined)</text><g id="f_Upper_Floor__Fixed_"><text font-size="13px" font-weight="bold" text-anchor="middle" x="4214.299999999999" y="80">Upper Floor (Fixed)</text><polygon class="el" fill="#AFD8F8" opacity="0.75" points="3918.7999999999997,935.0 4832.799999999999,932.0 4830.799999999999,960.0 3919.7999999999997,961.0" /><text class="tip" x="4375.549999999999" y="942.0">Wall #0</text><polygon class="el" fill="#AFD8F8" opacity="0.75" points="4804.799999999999,1241.0 4832.799999999999,1242.0 4831.799999999999,933.0 4802.799999999999,932.0" /><text class="tip" x="4818.049999999999" y="1082.0">Wall #1</text><polygon class="el" fill="#AFD8F8" opacity="0.75" points="3946.7999999999997,1053.0 3917.7999999999997,1051.0 3916.7999999999997,932.0 3946.7999999999997,934.0" /><text class="tip" x="3932.0499999999997" y="987.5">Wall #2</text><polygon class="el" fill="#AFD8F8" opacity="0.75" points="3918.7999999999997,1337.0 3945.7999999999997,1336.0 3945.7999999999997,1455.0 3918.7999999999997,1453.0" /><text class="tip" x="3932.2999999999997" y="1390.25">Wall #3</text><polygon class="el" fill="#AFD8F8" opacity="0.75" points="4396.799999999999,1429.5 4398.799999999999,1453.5 3935.7999999999997,1457.0 3935.7999999999997,1429.0" /><text class="tip" x="4166.799999999999" y="1437.25">Wall #4</text><polygon class="el" fill="#AFD8F8" opacity="0.75" points="4520.799999999999,1428.0 4520.799999999999,1457.0 4805.799999999999,1456.0 4806.799999999999,1426.0" /><text class="tip" x="4663.549999999999" y="1436.75">Wall #5</text><polygon class="el" fill="#AFD8F8" opacity="0.75" points="4831.799999999999,1466.5 4832.799999999999,1310.5 4803.799999999999,1311.5 4803.799999999999,1467.5" /><text class="tip" x="4818.049999999999" y="1384.0">Wall #6</text><polygon class="el" fill="#AFD8F8" opacity="0.75" points="4832.799999999999,1427.0 4834.799999999999,1463.0 4788.799999999999,1463.0 4788.799999999999,1429.0" /><text class="tip" x="4811.299999999999" y="1440.5">Wall #7</text><polygon class="el" fill="#AFD8F8" opacity="0.75" points="4787.799999999999,1535.0 4832.799999999999,1534.0 4834.799999999999,1642.0 4785.799999999999,1640.0" /><text class="tip" x="4810.299999999999" y="1582.75">Wall #8</text><polygon class="el" fill="#AFD8F8" opacity="0.75" points="4787.799999999999,1707.0 4828.799999999999,1707.0 4833.799999999999,1976.0 4787.799999999999,1975.0" /><text class="tip" x="4809.549999999999" y="1836.25">Wall #9</text><polygon class="el" fill="#AFD8F8" opacity="0.75" points="4785.799999999999,2113.0 4829.799999999999,2115.0 4833.799999999999,2278.0 4785.799999999999,2281.0" /><text class="tip" x="4808.799999999999" y="2191.75">Wall #10</text><polygon class="el" fill="#AFD8F8" opacity="0.75" points="4320.799999999999,2232.0 4320.799999999999,2272.0 4826.799999999999,2274.0 4830.799999999999,2226.0" /><text class="tip" x="4574.799999999999" y="2246.0">Wall #11</text><polygon class="el" fill="#AFD8F8" opacity="0.75" points="4037.7999999999997,2232.0 4037.7999999999997,2276.0 3913.7999999999997,2276.0 3915.7999999999997,2228.0" /><text class="tip" x="3976.2999999999997" y="2248.0">Wall #12</text><polygon class="el" fill="#AFD8F8" opacity="0.75" points="3960.7999999999997,2072.0 3917.7999999999997,2071.0 3917.7999999999997,2271.0 3966.7999999999997,2273.0" /><text class="tip" x="3940.7999999999997" y="2166.75">Wall #13</text><polygon class="el" fill="#AFD8F8" opacity="0.75" points="3960.7999999999997,1913.0 3962.7999999999997,1971.0 3919.7999999999997,1970.0 3917.7999999999997,1913.0" /><text class="tip" x="3940.2999999999997" y="1936.75">Wall #14</text><polygon class="el" fill="#AFD8F8" opacity="0.75" points="3802.7999999999997,1958.0 3959.7999999999997,1957.0 3957.7999999999997,1910.0 3797.7999999999997,1912.0" /><text class="tip" x="3879.5499999999997" y="1929.25">Wall #15</text><polygon class="el" fill="#AFD8F8" opacity="0.75" points="3801.7999999999997,1754.0 3843.7999999999997,1752.0 3842.7999999999997,1954.0 3799.7999999999997,1958.0" /><text class="tip" x="3822.0499999999997" y="1849.5">Wall #16</text><polygon class="el" fill="#AFD8F8" opacity="0.75" points="3801.7999999999997,1410.0 3801.7999999999997,1613.0 3842.7999999999997,1610.0 3847.7999999999997,1410.0" /><text class="tip" x="3823.5499999999997" y="1505.75">Wall #17</text><polygon class="el" fill="#AFD8F8" opacity="0.75" points="3942.7999999999997,1454.0 3801.7999999999997,1452.0 3801.7999999999997,1410.0 3944.7999999999997,1408.0" /><text class="tip" x="3872.7999999999997" y="1426.0">Wall #18</text><polygon class="el" fill="#AFD8F8" opacity="0.75" points="4598.799999999999,1552.0 4598.799999999999,1563.0 4787.799999999999,1566.0 4786.799999999999,1552.0" /><text class="tip" x="4693.049999999999" y="1553.25">Wall #19</text><polygon class="el" fill="#AFD8F8" opacity="0.75" points="4597.799999999999,1653.0 4608.799999999999,1653.0 4605.799999999999,1903.0 4596.799999999999,1904.0" /><text class="tip" x="4602.299999999999" y="1773.25">Wall #20</text><polygon class="el" fill="#AFD8F8" opacity="0.75" points="4420.799999999999,1895.0 4420.799999999999,1906.0 4612.799999999999,1904.0 4612.799999999999,1896.0" /><text class="tip" x="4516.799999999999" y="1895.25">Wall #21</text><polygon class="el" fill="#AFD8F8" opacity="0.75" points="4703.799999999999,1894.0 4703.799999999999,1905.0 4787.799999999999,1905.0 4788.799999999999,1896.0" /><text class="tip" x="4746.049999999999" y="1895.0">Wall #22</text><polygon class="el" fill="#8BBA00" opacity="0.75" points="3916.7999999999997,1048.0 3915.7999999999997,1334.0 3949.7999999999997,1336.0 3952.7999999999997,1048.0" /><text class="tip" x="3933.7999999999997" y="1186.5">Parking #23</text><polygon class="el" fill="#F6BD0F" opacity="0.75" points="4836.799999999999,1238.0 4835.799999999999,1310.0 4799.799999999999,1313.0 4799.799999999999,1240.0" /><text class="tip" x="4818.049999999999" y="1270.25">Window #24</text><polygon class="el" fill="#F6BD0F" opacity="0.75" points="3791.7999999999997,1609.0 3844.7999999999997,1610.0 3847.7999999999997,1757.0 3794.7999999999997,1758.0" /><text class="tip" x="3819.7999999999997" y="1678.5">Window #25</text><polygon class="el" fill="#F6BD0F" opacity="0.75" points="4038.7999999999997,2280.0 4323.799999999999,2278.0 4322.799999999999,2228.0 4032.7999999999997,2230.0" /><text class="tip" x="4179.549999999999" y="2249.0">Window #26</text><polygon class="el" fill="#F6BD0F" opacity="0.75" points="4841.799999999999,1970.0 4838.799999999999,2115.0 4777.799999999999,2115.0 4780.799999999999,1971.0" /><text class="tip" x="4809.799999999999" y="2037.75">Window #27</text><polygon class="el" fill="#F6BD0F" opacity="0.75" points="4836.799999999999,1634.0 4835.799999999999,1705.0 4778.799999999999,1707.0 4779.799999999999,1640.0" /><text class="tip" x="4807.799999999999" y="1666.5">Window #28</text><polygon class="el" fill="#F6BD0F" opacity="0.75" points="4838.799999999999,1463.0 4836.799999999999,1536.0 4786.799999999999,1536.0 4785.799999999999,1463.0" /><text class="tip" x="4812.049999999999" y="1494.5">Window #29</text><polygon class="el" fill="#FF8E46" opacity="0.75" points="4060.7999999999997,1970.0 3946.7999999999997,1968.0 3946.7999999999997,2068.0 3997.7999999999997,2065.0 4051.7999999999997,2025.0" /><text class="tip" x="4000.7999999999997" y="2014.2">Door #30</text><polygon class="el" fill="#FF8E46" opacity="0.75" points="4617.799999999999,1802.0 4614.799999999999,1899.0 4704.799999999999,1899.0 4698.799999999999,1847.0 4661.799999999999,1816.0" /><text class="tip" x="4659.599999999999" y="1847.6">Door #31</text><polygon class="el" fill="#FF8E46" opacity="0.75" points="4696.799999999999,1565.0 4593.799999999999,1562.0 4598.799999999999,1650.0 4626.799999999999,1656.0 4681.799999999999,1619.0" /><text class="tip" x="4639.599999999999" y="1605.4">Door #32</text><polygon class="el" fill="#FF8E46" opacity="0.75" points="4552.799999999999,1536.0 4604.799999999999,1452.0 4602.799999999999,1550.0 4574.799999999999,1550.0" /><text class="tip" x="4583.799999999999" y="1517.0">Door #33</text><polygon class="el" fill="#FF8E46" opacity="0.75" points="4425.799999999999,1549.0 4427.799999999999,1439.0 4522.799999999999,1442.0 4512.799999999999,1492.0 4485.799999999999,1533.0" /><text class="tip" x="4475.0" y="1486.0">Door #34</text><polygon class="el" fill="#008E8E" opacity="0.4" points="3952.7999999999997,968.0 4793.799999999999,965.0 4795.799999999999,1418.0 3951.7999999999997,1423.0" /><text class="tip" x="4373.549999999999" y="1188.5">Room #35</text><polygon class="el" fill="#008E8E" opacity="0.4" points="3845.7999999999997,1459.0 4404.799999999999,1459.0 4404.799999999999,1898.0 3839.7999999999997,1907.0" /><text class="tip" x="4123.799999999999" y="1675.75">Room #36</text><polygon class="el" fill="#008E8E" opacity="0.4" points="3971.2999999999997,2221.0 4404.299999999999,2223.0 4406.299999999999,1907.0 3966.2999999999997,1913.0" /><text class="tip" x="4187.049999999999" y="2061.0">Room #37</text><polygon class="el" fill="#008E8E" opacity="0.4" points="4413.799999999999,1893.0 4593.799999999999,1891.0 4591.799999999999,1456.0 4409.799999999999,1458.0" /><text class="tip" x="4502.299999999999" y="1669.5">Room #38</text><polygon class="el" fill="#008E8E" opacity="0.4" points="4783.799999999999,1894.0 4779.799999999999,1571.0 4615.799999999999,1571.0 4608.799999999999,1894.0" /><text class="tip" x="4697.049999999999" y="1727.5">Room #39</text><polygon class="el" fill="#008E8E" opacity="0.4" points="4610.799999999999,1456.0 4783.799999999999,1456.0 4778.799999999999,1550.0 4603.799999999999,1549.0" /><text class="tip" x="4694.299999999999" y="1497.75">Room #40</text><polygon class="el" fill="#008E8E" opacity="0.4" points="4422.799999999999,1905.0 4776.799999999999,1905.0 4776.799999999999,2221.0 4422.799999999999,2221.0" /><text class="tip" x="4599.799999999999" y="2058.0">Room #41</text><polygon class="el" fill="#D64646" opacity="0.75" points="4400.799999999999,1457.0 4417.799999999999,1457.0 4417.799999999999,2237.0 4400.799999999999,2237.0" /><text class="tip" x="4409.299999999999" y="1842.0">Separation #42</text><polygon class="el" fill="#D64646" opacity="0.75" points="3960.7999999999997,1897.0 4409.799999999999,1897.0 4409.799999999999,1913.0 3960.7999999999997,1913.0" /><text class="tip" x="4185.299999999999" y="1900.0">Separation #43</text><polygon class="el" fill="#9B59B6" opacity="0.75" points="4054.172513376437,973.0034510836977 4526.536769663235,973.0034510836977 4526.536769663235,1917.731963657292 4054.172513376437,1917.731963657292" /><text class="tip" x="4290.354641519836" y="1440.3677073704948">Stair #44</text><polygon class="el" fill="#FF8E46" opacity="0.75" points="4355.549999999999,942.0 4395.549999999999,942.0 4395.549999999999,952.0 4355.549999999999,952.0" /><text class="tip" x="4375.549999999999" y="942.0">Door #45</text><polygon class="el" fill="#FF8E46" opacity="0.75" points="4355.549999999999,942.0 4395.549999999999,942.0 4395.549999999999,952.0 4355.549999999999,952.0" /><text class="tip" x="4375.549999999999" y="942.0">Door #46</text><polygon class="el" fill="#FF8E46" opacity="0.75" points="4355.549999999999,942.0 4395.549999999999,942.0 4395.549999999999,952.0 4355.549999999999,952.0" /><text class="tip" x="4375.549999999999" y="942.0">Door #47</text><polygon fill="#9B59B6" opacity="0.6" points="4054.172513376437,973.0034510836977 4526.536769663235,973.0034510836977 4526.536769663235,1917.731963657292 4054.172513376437,1917.731963657292" stroke="#9B59B6" stroke-width="3" /><text fill="white" font-size="10px" font-weight="bold" text-anchor="middle" x="4290.354641519836" y="1449.3677073704948">STAIR</text></g><g id="f_Lower_Floor__Reference_"><text font-size="13px" font-weight="bold" text-anchor="middle" x="4214.299999999999" y="3938.8">Lower Floor (Reference)</text><polygon class="el" fill="#AFD8F8" opacity="0.75" points="3918.7999999999997,4793.8 4832.799999999999,4790.8 4830.799999999999,4818.8 3919.7999999999997,4819.8" /><text class="tip" x="4375.549999999999" y="4800.8">Wall #0</text><polygon class="el" fill="#AFD8F8" opacity="0.75" points="4804.799999999999,5099.8 4832.799999999999,5100.8 4831.799999999999,4791.8 4802.799999999999,4790.8" /><text class="tip" x="4818.049999999999" y="4940.8">Wall #1</text><polygon class="el" fill="#AFD8F8" opacity="0.75" points="3946.7999999999997,4911.8 3917.7999999999997,4909.8 3916.7999999999997,4790.8 3946.7999999999997,4792.8" /><text class="tip" x="3932.0499999999997" y="4846.3">Wall #2</text><polygon class="el" fill="#AFD8F8" opacity="0.75" points="3918.7999999999997,5195.8 3945.7999999999997,5194.8 3945.7999999999997,5313.8 3918.7999999999997,5311.8" /><text class="tip" x="3932.2999999999997" y="5249.05">Wall #3</text><polygon class="el" fill="#AFD8F8" opacity="0.75" points="4396.799999999999,5288.3 4398.799999999999,5312.3 3935.7999999999997,5315.8 3935.7999999999997,5287.8" /><text class="tip" x="4166.799999999999" y="5296.05">Wall #4</text><polygon class="el" fill="#AFD8F8" opacity="0.75" points="4520.799999999999,5286.8 4520.799999999999,5315.8 4805.799999999999,5314.8 4806.799999999999,5284.8" /><text class="tip" x="4663.549999999999" y="5295.55">Wall #5</text><polygon class="el" fill="#AFD8F8" opacity="0.75" points="4831.799999999999,5325.3 4832.799999999999,5169.3 4803.799999999999,5170.3 4803.799999999999,5326.3" /><text class="tip" x="4818.049999999999" y="5242.8">Wall #6</text><polygon class="el" fill="#AFD8F8" opacity="0.75" points="4832.799999999999,5285.8 4834.799999999999,5321.8 4788.799999999999,5321.8 4788.799999999999,5287.8" /><text class="tip" x="4811.299999999999" y="5299.3">Wall #7</text><polygon class="el" fill="#AFD8F8" opacity="0.75" points="4787.799999999999,5393.8 4832.799999999999,5392.8 4834.799999999999,5500.8 4785.799999999999,5498.8" /><text class="tip" x="4810.299999999999" y="5441.55">Wall #8</text><polygon class="el" fill="#AFD8F8" opacity="0.75" points="4787.799999999999,5565.8 4828.799999999999,5565.8 4833.799999999999,5834.8 4787.799999999999,5833.8" /><text class="tip" x="4809.549999999999" y="5695.05">Wall #9</text><polygon class="el" fill="#AFD8F8" opacity="0.75" points="4785.799999999999,5971.8 4829.799999999999,5973.8 4833.799999999999,6136.8 4785.799999999999,6139.8" /><text class="tip" x="4808.799999999999" y="6050.55">Wall #10</text><polygon class="el" fill="#AFD8F8" opacity="0.75" points="4320.799999999999,6090.8 4320.799999999999,6130.8 4826.799999999999,6132.8 4830.799999999999,6084.8" /><text class="tip" x="4574.799999999999" y="6104.8">Wall #11</text><polygon class="el" fill="#AFD8F8" opacity="0.75" points="4037.7999999999997,6090.8 4037.7999999999997,6134.8 3913.7999999999997,6134.8 3915.7999999999997,6086.8" /><text class="tip" x="3976.2999999999997" y="6106.8">Wall #12</text><polygon class="el" fill="#AFD8F8" opacity="0.75" points="3960.7999999999997,5930.8 3917.7999999999997,5929.8 3917.7999999999997,6129.8 3966.7999999999997,6131.8" /><text class="tip" x="3940.7999999999997" y="6025.55">Wall #13</text><polygon class="el" fill="#AFD8F8" opacity="0.75" points="3960.7999999999997,5771.8 3962.7999999999997,5829.8 3919.7999999999997,5828.8 3917.7999999999997,5771.8" /><text class="tip" x="3940.2999999999997" y="5795.55">Wall #14</text><polygon class="el" fill="#AFD8F8" opacity="0.75" points="3802.7999999999997,5816.8 3959.7999999999997,5815.8 3957.7999999999997,5768.8 3797.7999999999997,5770.8" /><text class="tip" x="3879.5499999999997" y="5788.05">Wall #15</text><polygon class="el" fill="#AFD8F8" opacity="0.75" points="3801.7999999999997,5612.8 3843.7999999999997,5610.8 3842.7999999999997,5812.8 3799.7999999999997,5816.8" /><text class="tip" x="3822.0499999999997" y="5708.3">Wall #16</text><polygon class="el" fill="#AFD8F8" opacity="0.75" points="3801.7999999999997,5268.8 3801.7999999999997,5471.8 3842.7999999999997,5468.8 3847.7999999999997,5268.8" /><text class="tip" x="3823.5499999999997" y="5364.55">Wall #17</text><polygon class="el" fill="#AFD8F8" opacity="0.75" points="3942.7999999999997,5312.8 3801.7999999999997,5310.8 3801.7999999999997,5268.8 3944.7999999999997,5266.8" /><text class="tip" x="3872.7999999999997" y="5284.8">Wall #18</text><polygon class="el" fill="#AFD8F8" opacity="0.75" points="4598.799999999999,5410.8 4598.799999999999,5421.8 4787.799999999999,5424.8 4786.799999999999,5410.8" /><text class="tip" x="4693.049999999999" y="5412.05">Wall #19</text><polygon class="el" fill="#AFD8F8" opacity="0.75" points="4597.799999999999,5511.8 4608.799999999999,5511.8 4605.799999999999,5761.8 4596.799999999999,5762.8" /><text class="tip" x="4602.299999999999" y="5632.05">Wall #20</text><polygon class="el" fill="#AFD8F8" opacity="0.75" points="4420.799999999999,5753.8 4420.799999999999,5764.8 4612.799999999999,5762.8 4612.799999999999,5754.8" /><text class="tip" x="4516.799999999999" y="5754.05">Wall #21</text><polygon class="el" fill="#AFD8F8" opacity="0.75" points="4703.799999999999,5752.8 4703.799999999999,5763.8 4787.799999999999,5763.8 4788.799999999999,5754.8" /><text class="tip" x="4746.049999999999" y="5753.8">Wall #22</text><polygon class="el" fill="#8BBA00" opacity="0.75" points="3916.7999999999997,4906.8 3915.7999999999997,5192.8 3949.7999999999997,5194.8 3952.7999999999997,4906.8" /><text class="tip" x="3933.7999999999997" y="5045.3">Parking #23</text><polygon class="el" fill="#F6BD0F" opacity="0.75" points="4836.799999999999,5096.8 4835.799999999999,5168.8 4799.799999999999,5171.8 4799.799999999999,5098.8" /><text class="tip" x="4818.049999999999" y="5129.05">Window #24</text><polygon class="el" fill="#F6BD0F" opacity="0.75" points="3791.7999999999997,5467.8 3844.7999999999997,5468.8 3847.7999999999997,5615.8 3794.7999999999997,5616.8" /><text class="tip" x="3819.7999999999997" y="5537.3">Window #25</text><polygon class="el" fill="#F6BD0F" opacity="0.75" points="4038.7999999999997,6138.8 4323.799999999999,6136.8 4322.799999999999,6086.8 4032.7999999999997,6088.8" /><text class="tip" x="4179.549999999999" y="6107.8">Window #26</text><polygon class="el" fill="#F6BD0F" opacity="0.75" points="4841.799999999999,5828.8 4838.799999999999,5973.8 4777.799999999999,5973.8 4780.799999999999,5829.8" /><text class="tip" x="4809.799999999999" y="5896.55">Window #27</text><polygon class="el" fill="#F6BD0F" opacity="0.75" points="4836.799999999999,5492.8 4835.799999999999,5563.8 4778.799999999999,5565.8 4779.799999999999,5498.8" /><text class="tip" x="4807.799999999999" y="5525.3">Window #28</text><polygon class="el" fill="#F6BD0F" opacity="0.75" points="4838.799999999999,5321.8 4836.799999999999,5394.8 4786.799999999999,5394.8 4785.799999999999,5321.8" /><text class="tip" x="4812.049999999999" y="5353.3">Window #29</text><polygon class="el" fill="#FF8E46" opacity="0.75" points="4060.7999999999997,5828.8 3946.7999999999997,5826.8 3946.7999999999997,5926.8 3997.7999999999997,5923.8 4051.7999999999997,5883.8" /><text class="tip" x="4000.7999999999997" y="5873.0">Door #30</text><polygon class="el" fill="#FF8E46" opacity="0.75" points="4617.799999999999,5660.8 4614.799999999999,5757.8 4704.799999999999,5757.8 4698.799999999999,5705.8 4661.799999999999,5674.8" /><text class="tip" x="4659.599999999999" y="5706.4">Door #31</text><polygon class="el" fill="#FF8E46" opacity="0.75" points="4696.799999999999,5423.8 4593.799999999999,5420.8 4598.799999999999,5508.8 4626.799999999999,5514.8 4681.799999999999,5477.8" /><text class="tip" x="4639.599999999999" y="5464.200000000001">Door #32</text><polygon class="el" fill="#FF8E46" opacity="0.75" points="4552.799999999999,5394.8 4604.799999999999,5310.8 4602.799999999999,5408.8 4574.799999999999,5408.8" /><text class="tip" x="4583.799999999999" y="5375.8">Door #33</text><polygon class="el" fill="#FF8E46" opacity="0.75" points="4425.799999999999,5407.8 4427.799999999999,5297.8 4522.799999999999,5300.8 4512.799999999999,5350.8 4485.799999999999,5391.8" /><text class="tip" x="4475.0" y="5344.8">Door #34</text><polygon class="el" fill="#008E8E" opacity="0.4" points="3952.7999999999997,4826.8 4793.799999999999,4823.8 4795.799999999999,5276.8 3951.7999999999997,5281.8" /><text class="tip" x="4373.549999999999" y="5047.3">Room #35</text><polygon class="el" fill="#008E8E" opacity="0.4" points="3845.7999999999997,5317.8 4404.799999999999,5317.8 4404.799999999999,5756.8 3839.7999999999997,5765.8" /><text class="tip" x="4123.799999999999" y="5534.55">Room #36</text><polygon class="el" fill="#008E8E" opacity="0.4" points="3971.2999999999997,6079.8 4404.299999999999,6081.8 4406.299999999999,5765.8 3966.2999999999997,5771.8" /><text class="tip" x="4187.049999999999" y="5919.8">Room #37</text><polygon class="el" fill="#008E8E" opacity="0.4" points="4413.799999999999,5751.8 4593.799999999999,5749.8 4591.799999999999,5314.8 4409.799999999999,5316.8" /><text class="tip" x="4502.299999999999" y="5528.3">Room #38</text><polygon class="el" fill="#008E8E" opacity="0.4" points="4783.799999999999,5752.8 4779.799999999999,5429.8 4615.799999999999,5429.8 4608.799999999999,5752.8" /><text class="tip" x="4697.049999999999" y="5586.3">Room #39</text><polygon class="el" fill="#008E8E" opacity="0.4" points="4610.799999999999,5314.8 4783.799999999999,5314.8 4778.799999999999,5408.8 4603.799999999999,5407.8" /><text class="tip" x="4694.299999999999" y="5356.55">Room #40</text><polygon class="el" fill="#008E8E" opacity="0.4" points="4422.799999999999,5763.8 4776.799999999999,5763.8 4776.799999999999,6079.8 4422.799999999999,6079.8" /><text class="tip" x="4599.799999999999" y="5916.8">Room #41</text><polygon class="el" fill="#D64646" opacity="0.75" points="4400.799999999999,5315.8 4417.799999999999,5315.8 4417.799999999999,6095.8 4400.799999999999,6095.8" /><text class="tip" x="4409.299999999999" y="5700.8">Separation #42</text><polygon class="el" fill="#D64646" opacity="0.75" points="3960.7999999999997,5755.8 4409.799999999999,5755.8 4409.799999999999,5771.8 3960.7999999999997,5771.8" /><text class="tip" x="4185.299999999999" y="5758.8">Separation #43</text><polygon class="el" fill="#9B59B6" opacity="0.75" points="4063.05311001589,4823.8 4535.417366302687,4823.8 4535.417366302687,5768.5285125735945 4063.05311001589,5768.5285125735945" /><text class="tip" x="4299.235238159288" y="5291.164256286797">Stair #44</text><polygon fill="#9B59B6" opacity="0.6" points="4063.05311001589,4823.8 4535.417366302687,4823.8 4535.417366302687,5768.5285125735945 4063.05311001589,5768.5285125735945" stroke="#9B59B6" stroke-width="3" /><text fill="white" font-size="10px" font-weight="bold" text-anchor="middle" x="4299.235238159288" y="5300.164256286797">STAIR</text></g><text fill="#27AE60" font-size="13px" font-weight="bold" x="50.0" y="8499.199999999999">Stair: 0.84</text><text fill="#27AE60" font-size="13px" font-weight="bold" x="1239.9199999999998" y="8499.199999999999">Wall: 0.93</text><text fill="#27AE60" font-size="13px" font-weight="bold" x="2429.8399999999997" y="8499.199999999999">Door: 0.99</text><text fill="#E74C3C" font-size="13px" font-weight="bold" x="3619.7599999999993" y="8499.199999999999">Egress: 0.00</text><text fill="#27AE60" font-size="13px" font-weight="bold" x="4809.679999999999" y="8499.199999999999">Overall: 0.69</text></svg>