<?xml version="1.0" encoding="utf-8" ?>
<svg baseProfile="full" height="8539.199999999999px" version="1.1" width="5949.599999999999px" xmlns="http://www.w3.org/2000/svg" xmlns:ev="http://www.w3.org/2001/xml-events" xmlns:xlink="http://www.w3.org/1999/xlink"><defs><style type="text/css"><![CDATA[
        .el:hover { stroke: #E74C3C; stroke-width: 3; cursor: pointer; }
        .tip { visibility: hidden; font-size: 11px; fill: #333; }
        .el:hover ~ .tip { visibility: visible; }
        @keyframes pulse { 0%,100% { opacity: 0.3; } 50% { opacity: 1; } }
        .missing { animation: pulse 1.5s infinite; fill: red; opacity: 0.15;
                   stroke: red; stroke-width: 2; stroke-dasharray: 8,4; }
    ]]></style></defs><text fill="#2C3E50" font-size="20px" font-weight="bold" text-anchor="middle" x="2974.7999999999997" y="30">Multi-Story Coherence: Before vs After Refinement</text><text fill="#E74C3C" font-size="16px" font-weight="bold" text-anchor="middle" x="1239.5" y="55">BEFORE (Broken)</text><g id="f_Upper_Floor__Broken_"><text font-size="13px" font-weight="bold" text-anchor="middle" x="1249.5" y="80">Upper Floor (Broken)</text><polygon class="missing" points="1135.0,505.0 1135.0,531.0 796.0,530.0 796.0,505.0" /><polygon class="missing" points="900.0,1167.0 900.0,1208.0 1810.0,1208.0 1810.0,1167.0" /><polygon class="missing" points="1809.0,2017.0 1851.0,2017.0 1852.0,2072.0 1810.0,2072.0" /><polygon class="missing" points="1038.0,2561.0 1038.0,2554.0 1097.0,2553.0 1095.0,2561.0" /><polygon class="missing" points="1549.0,902.0 1576.0,902.0 1575.0,946.0 1549.0,945.0" /><polygon class="missing" points="800.0,1209.0 800.0,1165.0 576.0,1165.0 576.0,1210.0" /><polygon class="missing" points="534.0,1852.0 535.0,1809.0 651.0,1808.0 653.0,1855.0" /><polygon class="missing" points="1029.0,2702.0 1030.0,2554.0 1037.0,2553.0 1036.0,2703.0" /><polygon class="missing" points="652.0,2041.0 696.0,2041.0 695.0,2095.0 652.0,2095.0" /><polygon class="missing" points="577.0,2053.0 577.0,2094.0 652.0,2095.0 652.0,2053.0" /><polygon class="missing" points="652.0,1974.0 651.0,1994.0 694.0,1994.0 694.0,1974.0" /><polygon class="missing" points="535.0,2686.0 576.0,2686.0 577.0,2890.0 534.0,2890.0" /><polygon class="missing" points="1551.0,1046.0 1575.0,1047.0 1575.0,1165.0 1551.0,1166.0" /><polygon class="missing" points="1720.0,1510.0 1748.0,1510.0 1746.0,1706.0 1720.0,1706.0" /><polygon class="el" fill="#AFD8F8" opacity="0.75" points="769.0,555.0 795.0,556.0 796.0,505.0 770.0,505.0" /><text class="tip" x="782.5" y="525.25">Wall #1</text><polygon class="el" fill="#AFD8F8" opacity="0.75" points="795.0,836.0 770.0,838.0 772.0,864.0 795.0,863.0" /><text class="tip" x="783.0" y="845.25">Wall #2</text><polygon class="el" fill="#AFD8F8" opacity="0.75" points="770.0,1142.0 795.0,1142.0 795.0,1165.0 770.0,1165.0" /><text class="tip" x="782.5" y="1148.5">Wall #3</text><polygon class="el" fill="#AFD8F8" opacity="0.75" points="1852.0,1167.0 1808.0,1166.0 1810.0,1220.0 1851.0,1221.0" /><text class="tip" x="1830.25" y="1188.5">Wall #5</text><polygon class="el" fill="#AFD8F8" opacity="0.75" points="1798.0,2029.0 1799.0,2072.0 1810.0,2072.0 1810.0,2028.0" /><text class="tip" x="1804.25" y="2045.25">Wall #7</text><polygon class="el" fill="#AFD8F8" opacity="0.75" points="1530.0,2029.0 1531.0,2037.0 1021.0,2036.0 1020.0,2028.0" /><text class="tip" x="1275.5" y="2027.5">Wall #8</text><polygon class="el" fill="#AFD8F8" opacity="0.75" points="1587.0,2028.0 1586.0,2073.0 1531.0,2073.0 1531.0,2028.0" /><text class="tip" x="1558.75" y="2045.5">Wall #9</text><polygon class="el" fill="#AFD8F8" opacity="0.75" points="1533.0,2141.0 1574.0,2141.0 1574.0,2026.0 1529.0,2027.0" /><text class="tip" x="1552.5" y="2078.75">Wall #10</text><polygon class="el" fill="#AFD8F8" opacity="0.75" points="1531.0,2282.0 1574.0,2282.0 1574.0,2479.0 1531.0,2479.0" /><text class="tip" x="1552.5" y="2375.5">Wall #11</text><polygon class="el" fill="#AFD8F8" opacity="0.75" points="1203.0,2365.0 1203.0,2371.0 1531.0,2372.0 1531.0,2366.0" /><text class="tip" x="1367.0" y="2363.5">Wall #12</text><polygon class="el" fill="#AFD8F8" opacity="0.75" points="1202.0,2453.0 1196.0,2453.0 1196.0,2365.0 1202.0,2365.0" /><text class="tip" x="1199.0" y="2404.0">Wall #13</text><polygon class="el" fill="#AFD8F8" opacity="0.75" points="1533.0,2549.0 1575.0,2549.0 1575.0,2891.0 1532.0,2891.0" /><text class="tip" x="1553.75" y="2715.0">Wall #14</text><polygon class="el" fill="#AFD8F8" opacity="0.75" points="1194.0,2554.0 1195.0,2561.0 1533.0,2561.0 1531.0,2553.0" /><text class="tip" x="1363.25" y="2552.25">Wall #15</text><polygon class="el" fill="#AFD8F8" opacity="0.75" points="1209.0,505.0 1209.0,531.0 1549.0,529.0 1549.0,506.0" /><text class="tip" x="1379.0" y="512.75">Wall #17</text><polygon class="el" fill="#AFD8F8" opacity="0.75" points="1549.0,831.0 1575.0,831.0 1574.0,505.0 1550.0,505.0" /><text class="tip" x="1562.0" y="663.0">Wall #18</text><polygon class="el" fill="#AFD8F8" opacity="0.75" points="899.0,1391.0 899.0,1398.0 912.0,1398.0 913.0,1390.0" /><text class="tip" x="905.75" y="1389.25">Wall #20</text><polygon class="el" fill="#AFD8F8" opacity="0.75" points="906.0,1208.0 912.0,1207.0 912.0,1391.0 906.0,1391.0" /><text class="tip" x="909.0" y="1294.25">Wall #21</text><polygon class="el" fill="#AFD8F8" opacity="0.75" points="533.0,1165.0 577.0,1165.0 576.0,1295.0 533.0,1295.0" /><text class="tip" x="554.75" y="1225.0">Wall #23</text><polygon class="el" fill="#AFD8F8" opacity="0.75" points="534.0,1370.0 577.0,1370.0 577.0,1518.0 534.0,1517.0" /><text class="tip" x="555.5" y="1438.75">Wall #24</text><polygon class="el" fill="#AFD8F8" opacity="0.75" points="801.0,1391.0 801.0,1398.0 577.0,1398.0 577.0,1390.0" /><text class="tip" x="689.0" y="1389.25">Wall #25</text><polygon class="el" fill="#AFD8F8" opacity="0.75" points="694.0,1810.0 694.0,1817.0 1021.0,1816.0 1021.0,1810.0" /><text class="tip" x="857.5" y="1808.25">Wall #26</text><polygon class="el" fill="#AFD8F8" opacity="0.75" points="652.0,1869.0 695.0,1870.0 695.0,1809.0 652.0,1809.0" /><text class="tip" x="673.5" y="1834.25">Wall #27</text><polygon class="el" fill="#AFD8F8" opacity="0.75" points="533.0,1666.0 578.0,1666.0 581.0,1813.0 535.0,1809.0" /><text class="tip" x="556.75" y="1733.5">Wall #28</text><polygon class="el" fill="#AFD8F8" opacity="0.75" points="1328.0,2891.0 1328.0,2933.0 1575.0,2933.0 1575.0,2890.0" /><text class="tip" x="1451.5" y="2906.75">Wall #30</text><polygon class="el" fill="#AFD8F8" opacity="0.75" points="696.0,1981.0 697.0,1988.0 914.0,1987.0 914.0,1981.0" /><text class="tip" x="805.25" y="1979.25">Wall #34</text><polygon class="el" fill="#AFD8F8" opacity="0.75" points="905.0,2086.0 905.0,2095.0 695.0,2094.0 694.0,2088.0" /><text class="tip" x="799.75" y="2085.75">Wall #35</text><polygon class="el" fill="#AFD8F8" opacity="0.75" points="534.0,2052.0 577.0,2052.0 577.0,2180.0 534.0,2180.0" /><text class="tip" x="555.5" y="2111.0">Wall #37</text><polygon class="el" fill="#AFD8F8" opacity="0.75" points="906.0,2272.0 913.0,2272.0 912.0,2454.0 906.0,2454.0" /><text class="tip" x="909.25" y="2358.0">Wall #38</text><polygon class="el" fill="#AFD8F8" opacity="0.75" points="1011.0,1980.0 1013.0,2448.0 1020.0,2447.0 1020.0,1981.0" /><text class="tip" x="1016.0" y="2209.0">Wall #39</text><polygon class="el" fill="#AFD8F8" opacity="0.75" points="577.0,2389.0 577.0,2396.0 906.0,2395.0 906.0,2389.0" /><text class="tip" x="741.5" y="2387.25">Wall #40</text><polygon class="el" fill="#AFD8F8" opacity="0.75" points="533.0,2280.0 576.0,2280.0 577.0,2540.0 534.0,2540.0" /><text class="tip" x="555.0" y="2405.0">Wall #41</text><polygon class="el" fill="#AFD8F8" opacity="0.75" points="906.0,2171.0 912.0,2171.0 912.0,2086.0 906.0,2086.0" /><text class="tip" x="909.0" y="2123.5">Wall #42</text><polygon class="el" fill="#AFD8F8" opacity="0.75" points="534.0,2933.0 534.0,2890.0 1183.0,2890.0 1183.0,2933.0" /><text class="tip" x="858.5" y="2906.5">Wall #44</text><polygon class="el" fill="#AFD8F8" opacity="0.75" points="1030.0,2801.0 1036.0,2802.0 1036.0,2890.0 1030.0,2890.0" /><text class="tip" x="1033.0" y="2840.75">Wall #45</text><polygon class="el" fill="#AFD8F8" opacity="0.75" points="905.0,2803.0 906.0,2889.0 913.0,2889.0 913.0,2803.0" /><text class="tip" x="909.25" y="2841.0">Wall #46</text><polygon class="el" fill="#AFD8F8" opacity="0.75" points="913.0,2631.0 913.0,2637.0 1029.0,2637.0 1029.0,2631.0" /><text class="tip" x="971.0" y="2629.0">Wall #47</text><polygon class="el" fill="#AFD8F8" opacity="0.75" points="906.0,2555.0 906.0,2702.0 912.0,2702.0 912.0,2555.0" /><text class="tip" x="909.0" y="2623.5">Wall #48</text><polygon class="el" fill="#AFD8F8" opacity="0.75" points="1809.0,1433.0 1851.0,1433.0 1851.0,1804.0 1810.0,1805.0 1811.0,1529.0" /><text class="tip" x="1826.4" y="1595.8">Wall #50</text><polygon class="el" fill="#AFD8F8" opacity="0.75" points="1747.0,1510.0 1747.0,1531.0 1811.0,1530.0 1810.0,1509.0" /><text class="tip" x="1778.75" y="1515.0">Wall #51</text><polygon class="el" fill="#AFD8F8" opacity="0.75" points="1720.0,1727.0 1720.0,1706.0 1810.0,1706.0 1810.0,1728.0" /><text class="tip" x="1765.0" y="1711.75">Wall #53</text><polygon class="el" fill="#AFD8F8" opacity="0.75" points="1096.0,2448.0 1096.0,2454.0 1011.0,2454.0 1011.0,2448.0" /><text class="tip" x="1053.5" y="2446.0">Wall #54</text><polygon class="el" fill="#8BBA00" opacity="0.75" points="756.0,551.0 801.0,550.0 802.0,840.0 758.0,838.0" /><text class="tip" x="779.25" y="689.75">Parking #55</text><polygon class="el" fill="#F6BD0F" opacity="0.75" points="1137.0,534.0 1137.0,503.0 1210.0,502.0 1210.0,533.0" /><text class="tip" x="1173.5" y="513.0">Window #56</text><polygon class="el" fill="#F6BD0F" opacity="0.75" points="1547.0,832.0 1579.0,832.0 1581.0,905.0 1547.0,905.0" /><text class="tip" x="1563.5" y="863.5">Window #57</text><polygon class="el" fill="#F6BD0F" opacity="0.75" points="1544.0,948.0 1579.0,948.0 1578.0,1047.0 1546.0,1046.0" /><text class="tip" x="1561.75" y="992.25">Window #58</text><polygon class="el" fill="#F6BD0F" opacity="0.75" points="1741.0,1224.0 1854.0,1222.0 1855.0,1435.0 1807.0,1434.0 1808.0,1358.0 1741.0,1357.0 1749.0,1307.0 1785.0,1291.0 1748.0,1265.0" /><text class="tip" x="1787.5555555555557" y="1316.4444444444443">Window #59</text><polygon class="el" fill="#F6BD0F" opacity="0.75" points="1741.0,1940.0 1808.0,1941.0 1809.0,2015.0 1854.0,2017.0 1853.0,1805.0 1740.0,1804.0 1747.0,1854.0 1784.0,1875.0 1749.0,1898.0" /><text class="tip" x="1787.2222222222222" y="1900.4444444444443">Window #60</text><polygon class="el" fill="#F6BD0F" opacity="0.75" points="1589.0,1960.0 1587.0,2071.0 1799.0,2074.0 1798.0,2024.0 1724.0,2024.0 1724.0,1959.0 1674.0,1970.0 1655.0,2008.0 1633.0,1968.0" /><text class="tip" x="1687.0" y="2001.4444444444443">Window #61</text><polygon class="el" fill="#F6BD0F" opacity="0.75" points="1463.0,2145.0 1578.0,2143.0 1576.0,2283.0 1463.0,2279.0 1476.0,2228.0 1510.0,2211.0 1470.0,2186.0" /><text class="tip" x="1505.142857142857" y="2205.714285714286">Window #62</text><polygon class="el" fill="#F6BD0F" opacity="0.75" points="1578.0,2480.0 1531.0,2478.0 1530.0,2551.0 1578.0,2552.0" /><text class="tip" x="1554.25" y="2510.25">Window #63</text><polygon class="el" fill="#F6BD0F" opacity="0.75" points="1184.0,2884.0 1183.0,2937.0 1326.0,2937.0 1325.0,2884.0" /><text class="tip" x="1254.5" y="2905.5">Window #64</text><polygon class="el" fill="#F6BD0F" opacity="0.75" points="528.0,2541.0 578.0,2539.0 579.0,2687.0 530.0,2688.0" /><text class="tip" x="553.75" y="2608.75">Window #65</text><polygon class="el" fill="#F6BD0F" opacity="0.75" points="529.0,2182.0 579.0,2181.0 579.0,2280.0 531.0,2282.0" /><text class="tip" x="554.5" y="2226.25">Window #66</text><polygon class="el" fill="#F6BD0F" opacity="0.75" points="649.0,1998.0 695.0,1996.0 697.0,2042.0 650.0,2042.0" /><text class="tip" x="672.75" y="2014.5">Window #67</text><polygon class="el" fill="#FF8E46" opacity="0.75" points="771.304613794618,1955.0201398596191 674.5680228867964,1955.0201398596191 672.5385839167022,1884.6662555630217 703.6566481248127,1884.6662555630217 734.7747123329232,1892.7840114433982 761.1574189441473,1919.8431977113203" /><text class="tip" x="719.6666666666666" y="1910.3333333333333">Door #68</text><polygon class="el" fill="#F6BD0F" opacity="0.75" points="581.0,1519.0 529.0,1519.0 530.0,1666.0 580.0,1667.0" /><text class="tip" x="555.0" y="1587.75">Window #69</text><polygon class="el" fill="#F6BD0F" opacity="0.75" points="579.0,1294.0 532.0,1294.0 531.0,1369.0 579.0,1371.0" /><text class="tip" x="555.25" y="1327.0">Window #70</text><polygon class="el" fill="#FF8E46" opacity="0.75" points="897.0,1295.0 896.0,1166.0 801.0,1166.0 802.0,1211.0 816.0,1261.0 852.0,1289.0" /><text class="tip" x="844.0" y="1226.3333333333333">Door #71</text><polygon class="el" fill="#8BBA00" opacity="0.75" points="754.0,856.0 804.0,856.0 806.0,1146.0 759.0,1145.0" /><text class="tip" x="780.75" y="995.75">Parking #72</text><polygon class="el" fill="#FF8E46" opacity="0.75" points="808.0,1345.0 843.0,1315.0 894.0,1300.0 895.0,1397.0 800.0,1400.0" /><text class="tip" x="848.0" y="1346.4">Door #73</text><polygon class="el" fill="#FF8E46" opacity="0.75" points="936.6839284127367,2061.313791387488 921.8121812074625,2033.2995699077853 920.4287628627859,2067.8850285247017 929.075127517015,2066.501610180025" /><text class="tip" x="927.0" y="2052.25">Door #74</text><polygon class="el" fill="#FF8E46" opacity="0.75" points="1011.0,2082.0 1008.0,1980.0 916.0,1982.0 930.0,2043.0 962.0,2069.0" /><text class="tip" x="965.4" y="2026.2">Door #75</text><polygon class="el" fill="#FF8E46" opacity="0.75" points="836.1491648694779,2193.442054549888 892.6151316906588,2192.2277326827657 895.0437754249032,2252.336665105313 858.614119411238,2245.0507339025803 838.5778086037222,2218.9428137594537" /><text class="tip" x="864.2" y="2215.4">Door #76</text><polygon class="el" fill="#FF8E46" opacity="0.75" points="847.928948311148,2522.5002364003303 879.1506893383978,2522.1750099312962 879.4759158074316,2490.9532689040466 861.2632335415359,2495.5064394705205 851.1812130014865,2507.865045293807" /><text class="tip" x="863.8" y="2502.8">Door #77</text><polygon class="el" fill="#FF8E46" opacity="0.75" points="1192.0,2359.0 1194.0,2453.0 1095.0,2453.0 1106.0,2410.0 1138.0,2370.0" /><text class="tip" x="1145.0" y="2404.0">Door #78</text><polygon class="el" fill="#FF8E46" opacity="0.75" points="1257.9700376955216,2516.359284193764 1227.1128525131785,2517.2758342486845 1226.5018191432312,2487.3351991212626 1240.2500699670472,2489.168299231105 1252.1652206810213,2499.861383205184" /><text class="tip" x="1240.8" y="2497.0">Door #79</text><polygon class="el" fill="#FF8E46" opacity="0.75" points="1191.0,2648.0 1192.0,2555.0 1096.0,2552.0 1106.0,2601.0 1141.0,2640.0" /><text class="tip" x="1145.2" y="2594.2">Door #80</text><polygon class="el" fill="#FF8E46" opacity="0.75" points="1124.0,2707.0 1035.0,2706.0 1034.0,2800.0 1088.0,2790.0 1118.0,2753.0" /><text class="tip" x="1079.8" y="2746.2">Door #81</text><polygon class="el" fill="#FF8E46" opacity="0.75" points="818.0,2708.0 909.0,2707.0 911.0,2800.0 857.0,2786.0 819.0,2744.0" /><text class="tip" x="862.8" y="2744.0">Door #82</text><polygon class="el" fill="#008E8E" opacity="0.4" points="803.0,535.0 805.0,1162.0 1548.0,1161.0 1542.0,532.0" /><text class="tip" x="1174.5" y="842.5">Room #83</text><polygon class="el" fill="#008E8E" opacity="0.4" points="579.0,1213.0 581.0,1383.0 902.0,1388.0 901.0,1211.0" /><text class="tip" x="740.75" y="1293.75">Room #84</text><polygon class="el" fill="#008E8E" opacity="0.4" points="582.0,1401.0 581.0,1804.0 1010.0,1804.0 910.0,1399.0" /><text class="tip" x="770.75" y="1597.0">Room #85</text><polygon class="el" fill="#008E8E" opacity="0.4" points="700.0,1822.0 1017.0,1818.0 1015.0,1980.0 699.0,1974.0" /><text class="tip" x="857.75" y="1893.5">Room #86</text><polygon class="el" fill="#008E8E" opacity="0.4" points="907.0,1991.0 905.0,2081.0 701.0,2084.0 699.0,1993.0" /><text class="tip" x="803.0" y="2032.25">Room #87</text><polygon class="el" fill="#008E8E" opacity="0.4" points="917.0,1208.0 918.0,1395.0 1024.0,1810.0 1025.0,2022.0 1807.0,2021.0 1805.0,1732.0 1715.0,1730.0 1717.0,1507.0 1805.0,1505.0 1803.0,1211.0" /><text class="tip" x="1453.6" y="1609.1">Room #88</text><polygon class="el" fill="#008E8E" opacity="0.4" points="1025.0,2041.0 1024.0,2442.0 1189.0,2444.0 1187.0,2356.0 1526.0,2360.0 1525.0,2043.0" /><text class="tip" x="1246.0" y="2276.0">Room #89</text><polygon class="el" fill="#008E8E" opacity="0.4" points="1525.0,2376.0 1527.0,2545.0 1200.0,2545.0 1205.0,2373.0" /><text class="tip" x="1364.25" y="2454.75">Room #90</text><polygon class="el" fill="#008E8E" opacity="0.4" points="1529.0,2564.0 1526.0,2884.0 1039.0,2884.0 1039.0,2567.0" /><text class="tip" x="1283.25" y="2719.75">Room #91</text><polygon class="el" fill="#008E8E" opacity="0.4" points="920.0,2640.0 916.0,2881.0 1025.0,2881.0 1022.0,2642.0" /><text class="tip" x="970.75" y="2756.0">Room #92</text><polygon class="el" fill="#008E8E" opacity="0.4" points="579.0,2398.0 581.0,2884.0 903.0,2883.0 900.0,2401.0" /><text class="tip" x="740.75" y="2636.5">Room #93</text><polygon class="el" fill="#008E8E" opacity="0.4" points="582.0,2098.0 583.0,2387.0 902.0,2387.0 900.0,2099.0" /><text class="tip" x="741.75" y="2237.75">Room #94</text><polygon class="el" fill="#008E8E" opacity="0.4" points="1004.0,1991.0 1006.0,2457.0 1189.0,2457.0 1190.0,2549.0 1027.0,2549.0 1024.0,2624.0 916.0,2623.0 915.0,1993.0" /><text class="tip" x="1033.875" y="2400.375">Room #95</text><polygon class="el" fill="#D64646" opacity="0.75" points="908.0,1397.0 1011.0,1810.0 1024.0,1808.0 919.0,1388.0" /><text class="tip" x="965.5" y="1595.75">Separation #96</text><polygon class="el" fill="#D64646" opacity="0.75" points="1012.0,1820.0 1027.0,1820.0 1027.0,1980.0 1012.0,1980.0" /><text class="tip" x="1019.5" y="1895.0">Separation #97</text><polygon class="el" fill="#9B59B6" opacity="0.75" points="1417.5667553268893,1183.8942600532403 1780.177216494358,1183.8942600532403 1780.177216494358,1909.1151823881776 1417.5667553268893,1909.1151823881776" /><text class="tip" x="1598.8719859106236" y="1541.504721220709">Stair #98</text><polygon fill="#9B59B6" opacity="0.6" points="1417.5667553268893,1183.8942600532403 1780.177216494358,1183.8942600532403 1780.177216494358,1909.1151823881776 1417.5667553268893,1909.1151823881776" stroke="#9B59B6" stroke-width="3" /><text fill="white" font-size="10px" font-weight="bold" text-anchor="middle" x="1598.8719859106236" y="1550.504721220709">STAIR</text></g><g id="f_Lower_Floor__Reference_"><text font-size="13px" font-weight="bold" text-anchor="middle" x="1249.5" y="3938.8">Lower Floor (Reference)</text><polygon class="el" fill="#AFD8F8" opacity="0.75" points="1135.0,4363.8 1135.0,4389.8 796.0,4388.8 796.0,4363.8" /><text class="tip" x="965.5" y="4371.55">Wall #0</text><polygon class="el" fill="#AFD8F8" opacity="0.75" points="769.0,4413.8 795.0,4414.8 796.0,4363.8 770.0,4363.8" /><text class="tip" x="782.5" y="4384.05">Wall #1</text><polygon class="el" fill="#AFD8F8" opacity="0.75" points="795.0,4694.8 770.0,4696.8 772.0,4722.8 795.0,4721.8" /><text class="tip" x="783.0" y="4704.05">Wall #2</text><polygon class="el" fill="#AFD8F8" opacity="0.75" points="770.0,5000.8 795.0,5000.8 795.0,5023.8 770.0,5023.8" /><text class="tip" x="782.5" y="5007.3">Wall #3</text><polygon class="el" fill="#AFD8F8" opacity="0.75" points="900.0,5025.8 900.0,5066.8 1810.0,5066.8 1810.0,5025.8" /><text class="tip" x="1355.0" y="5041.3">Wall #4</text><polygon class="el" fill="#AFD8F8" opacity="0.75" points="1852.0,5025.8 1808.0,5024.8 1810.0,5078.8 1851.0,5079.8" /><text class="tip" x="1830.25" y="5047.3">Wall #5</text><polygon class="el" fill="#AFD8F8" opacity="0.75" points="1809.0,5875.8 1851.0,5875.8 1852.0,5930.8 1810.0,5930.8" /><text class="tip" x="1830.5" y="5898.3">Wall #6</text><polygon class="el" fill="#AFD8F8" opacity="0.75" points="1798.0,5887.8 1799.0,5930.8 1810.0,5930.8 1810.0,5886.8" /><text class="tip" x="1804.25" y="5904.05">Wall #7</text><polygon class="el" fill="#AFD8F8" opacity="0.75" points="1530.0,5887.8 1531.0,5895.8 1021.0,5894.8 1020.0,5886.8" /><text class="tip" x="1275.5" y="5886.3">Wall #8</text><polygon class="el" fill="#AFD8F8" opacity="0.75" points="1587.0,5886.8 1586.0,5931.8 1531.0,5931.8 1531.0,5886.8" /><text class="tip" x="1558.75" y="5904.3">Wall #9</text><polygon class="el" fill="#AFD8F8" opacity="0.75" points="1533.0,5999.8 1574.0,5999.8 1574.0,5884.8 1529.0,5885.8" /><text class="tip" x="1552.5" y="5937.55">Wall #10</text><polygon class="el" fill="#AFD8F8" opacity="0.75" points="1531.0,6140.8 1574.0,6140.8 1574.0,6337.8 1531.0,6337.8" /><text class="tip" x="1552.5" y="6234.3">Wall #11</text><polygon class="el" fill="#AFD8F8" opacity="0.75" points="1203.0,6223.8 1203.0,6229.8 1531.0,6230.8 1531.0,6224.8" /><text class="tip" x="1367.0" y="6222.3">Wall #12</text><polygon class="el" fill="#AFD8F8" opacity="0.75" points="1202.0,6311.8 1196.0,6311.8 1196.0,6223.8 1202.0,6223.8" /><text class="tip" x="1199.0" y="6262.8">Wall #13</text><polygon class="el" fill="#AFD8F8" opacity="0.75" points="1533.0,6407.8 1575.0,6407.8 1575.0,6749.8 1532.0,6749.8" /><text class="tip" x="1553.75" y="6573.8">Wall #14</text><polygon class="el" fill="#AFD8F8" opacity="0.75" points="1194.0,6412.8 1195.0,6419.8 1533.0,6419.8 1531.0,6411.8" /><text class="tip" x="1363.25" y="6411.05">Wall #15</text><polygon class="el" fill="#AFD8F8" opacity="0.75" points="1038.0,6419.8 1038.0,6412.8 1097.0,6411.8 1095.0,6419.8" /><text class="tip" x="1067.0" y="6411.05">Wall #16</text><polygon class="el" fill="#AFD8F8" opacity="0.75" points="1209.0,4363.8 1209.0,4389.8 1549.0,4387.8 1549.0,4364.8" /><text class="tip" x="1379.0" y="4371.55">Wall #17</text><polygon class="el" fill="#AFD8F8" opacity="0.75" points="1549.0,4689.8 1575.0,4689.8 1574.0,4363.8 1550.0,4363.8" /><text class="tip" x="1562.0" y="4521.8">Wall #18</text><polygon class="el" fill="#AFD8F8" opacity="0.75" points="1549.0,4760.8 1576.0,4760.8 1575.0,4804.8 1549.0,4803.8" /><text class="tip" x="1562.25" y="4777.55">Wall #19</text><polygon class="el" fill="#AFD8F8" opacity="0.75" points="899.0,5249.8 899.0,5256.8 912.0,5256.8 913.0,5248.8" /><text class="tip" x="905.75" y="5248.05">Wall #20</text><polygon class="el" fill="#AFD8F8" opacity="0.75" points="906.0,5066.8 912.0,5065.8 912.0,5249.8 906.0,5249.8" /><text class="tip" x="909.0" y="5153.05">Wall #21</text><polygon class="el" fill="#AFD8F8" opacity="0.75" points="800.0,5067.8 800.0,5023.8 576.0,5023.8 576.0,5068.8" /><text class="tip" x="688.0" y="5041.05">Wall #22</text><polygon class="el" fill="#AFD8F8" opacity="0.75" points="533.0,5023.8 577.0,5023.8 576.0,5153.8 533.0,5153.8" /><text class="tip" x="554.75" y="5083.8">Wall #23</text><polygon class="el" fill="#AFD8F8" opacity="0.75" points="534.0,5228.8 577.0,5228.8 577.0,5376.8 534.0,5375.8" /><text class="tip" x="555.5" y="5297.55">Wall #24</text><polygon class="el" fill="#AFD8F8" opacity="0.75" points="801.0,5249.8 801.0,5256.8 577.0,5256.8 577.0,5248.8" /><text class="tip" x="689.0" y="5248.05">Wall #25</text><polygon class="el" fill="#AFD8F8" opacity="0.75" points="694.0,5668.8 694.0,5675.8 1021.0,5674.8 1021.0,5668.8" /><text class="tip" x="857.5" y="5667.05">Wall #26</text><polygon class="el" fill="#AFD8F8" opacity="0.75" points="652.0,5727.8 695.0,5728.8 695.0,5667.8 652.0,5667.8" /><text class="tip" x="673.5" y="5693.05">Wall #27</text><polygon class="el" fill="#AFD8F8" opacity="0.75" points="533.0,5524.8 578.0,5524.8 581.0,5671.8 535.0,5667.8" /><text class="tip" x="556.75" y="5592.3">Wall #28</text><polygon class="el" fill="#AFD8F8" opacity="0.75" points="534.0,5710.8 535.0,5667.8 651.0,5666.8 653.0,5713.8" /><text class="tip" x="593.25" y="5684.8">Wall #29</text><polygon class="el" fill="#AFD8F8" opacity="0.75" points="1328.0,6749.8 1328.0,6791.8 1575.0,6791.8 1575.0,6748.8" /><text class="tip" x="1451.5" y="6765.55">Wall #30</text><polygon class="el" fill="#AFD8F8" opacity="0.75" points="1029.0,6560.8 1030.0,6412.8 1037.0,6411.8 1036.0,6561.8" /><text class="tip" x="1033.0" y="6481.8">Wall #31</text><polygon class="el" fill="#AFD8F8" opacity="0.75" points="652.0,5899.8 696.0,5899.8 695.0,5953.8 652.0,5953.8" /><text class="tip" x="673.75" y="5921.8">Wall #32</text><polygon class="el" fill="#AFD8F8" opacity="0.75" points="577.0,5911.8 577.0,5952.8 652.0,5953.8 652.0,5911.8" /><text class="tip" x="614.5" y="5927.55">Wall #33</text><polygon class="el" fill="#AFD8F8" opacity="0.75" points="696.0,5839.8 697.0,5846.8 914.0,5845.8 914.0,5839.8" /><text class="tip" x="805.25" y="5838.05">Wall #34</text><polygon class="el" fill="#AFD8F8" opacity="0.75" points="905.0,5944.8 905.0,5953.8 695.0,5952.8 694.0,5946.8" /><text class="tip" x="799.75" y="5944.55">Wall #35</text><polygon class="el" fill="#AFD8F8" opacity="0.75" points="652.0,5832.8 651.0,5852.8 694.0,5852.8 694.0,5832.8" /><text class="tip" x="672.75" y="5837.8">Wall #36</text><polygon class="el" fill="#AFD8F8" opacity="0.75" points="534.0,5910.8 577.0,5910.8 577.0,6038.8 534.0,6038.8" /><text class="tip" x="555.5" y="5969.8">Wall #37</text><polygon class="el" fill="#AFD8F8" opacity="0.75" points="906.0,6130.8 913.0,6130.8 912.0,6312.8 906.0,6312.8" /><text class="tip" x="909.25" y="6216.8">Wall #38</text><polygon class="el" fill="#AFD8F8" opacity="0.75" points="1011.0,5838.8 1013.0,6306.8 1020.0,6305.8 1020.0,5839.8" /><text class="tip" x="1016.0" y="6067.8">Wall #39</text><polygon class="el" fill="#AFD8F8" opacity="0.75" points="577.0,6247.8 577.0,6254.8 906.0,6253.8 906.0,6247.8" /><text class="tip" x="741.5" y="6246.05">Wall #40</text><polygon class="el" fill="#AFD8F8" opacity="0.75" points="533.0,6138.8 576.0,6138.8 577.0,6398.8 534.0,6398.8" /><text class="tip" x="555.0" y="6263.8">Wall #41</text><polygon class="el" fill="#AFD8F8" opacity="0.75" points="906.0,6029.8 912.0,6029.8 912.0,5944.8 906.0,5944.8" /><text class="tip" x="909.0" y="5982.3">Wall #42</text><polygon class="el" fill="#AFD8F8" opacity="0.75" points="535.0,6544.8 576.0,6544.8 577.0,6748.8 534.0,6748.8" /><text class="tip" x="555.5" y="6641.8">Wall #43</text><polygon class="el" fill="#AFD8F8" opacity="0.75" points="534.0,6791.8 534.0,6748.8 1183.0,6748.8 1183.0,6791.8" /><text class="tip" x="858.5" y="6765.3">Wall #44</text><polygon class="el" fill="#AFD8F8" opacity="0.75" points="1030.0,6659.8 1036.0,6660.8 1036.0,6748.8 1030.0,6748.8" /><text class="tip" x="1033.0" y="6699.55">Wall #45</text><polygon class="el" fill="#AFD8F8" opacity="0.75" points="905.0,6661.8 906.0,6747.8 913.0,6747.8 913.0,6661.8" /><text class="tip" x="909.25" y="6699.8">Wall #46</text><polygon class="el" fill="#AFD8F8" opacity="0.75" points="913.0,6489.8 913.0,6495.8 1029.0,6495.8 1029.0,6489.8" /><text class="tip" x="971.0" y="6487.8">Wall #47</text><polygon class="el" fill="#AFD8F8" opacity="0.75" points="906.0,6413.8 906.0,6560.8 912.0,6560.8 912.0,6413.8" /><text class="tip" x="909.0" y="6482.3">Wall #48</text><polygon class="el" fill="#AFD8F8" opacity="0.75" points="1551.0,4904.8 1575.0,4905.8 1575.0,5023.8 1551.0,5024.8" /><text class="tip" x="1563.0" y="4959.8">Wall #49</text><polygon class="el" fill="#AFD8F8" opacity="0.75" points="1809.0,5291.8 1851.0,5291.8 1851.0,5662.8 1810.0,5663.8 1811.0,5387.8" /><text class="tip" x="1826.4" y="5454.6">Wall #50</text><polygon class="el" fill="#AFD8F8" opacity="0.75" points="1747.0,5368.8 1747.0,5389.8 1811.0,5388.8 1810.0,5367.8" /><text class="tip" x="1778.75" y="5373.8">Wall #51</text><polygon class="el" fill="#AFD8F8" opacity="0.75" points="1720.0,5368.8 1748.0,5368.8 1746.0,5564.8 1720.0,5564.8" /><text class="tip" x="1733.5" y="5461.8">Wall #52</text><polygon class="el" fill="#AFD8F8" opacity="0.75" points="1720.0,5585.8 1720.0,5564.8 1810.0,5564.8 1810.0,5586.8" /><text class="tip" x="1765.0" y="5570.55">Wall #53</text><polygon class="el" fill="#AFD8F8" opacity="0.75" points="1096.0,6306.8 1096.0,6312.8 1011.0,6312.8 1011.0,6306.8" /><text class="tip" x="1053.5" y="6304.8">Wall #54</text><polygon class="el" fill="#8BBA00" opacity="0.75" points="756.0,4409.8 801.0,4408.8 802.0,4698.8 758.0,4696.8" /><text class="tip" x="779.25" y="4548.55">Parking #55</text><polygon class="el" fill="#F6BD0F" opacity="0.75" points="1137.0,4392.8 1137.0,4361.8 1210.0,4360.8 1210.0,4391.8" /><text class="tip" x="1173.5" y="4371.8">Window #56</text><polygon class="el" fill="#F6BD0F" opacity="0.75" points="1547.0,4690.8 1579.0,4690.8 1581.0,4763.8 1547.0,4763.8" /><text class="tip" x="1563.5" y="4722.3">Window #57</text><polygon class="el" fill="#F6BD0F" opacity="0.75" points="1544.0,4806.8 1579.0,4806.8 1578.0,4905.8 1546.0,4904.8" /><text class="tip" x="1561.75" y="4851.05">Window #58</text><polygon class="el" fill="#F6BD0F" opacity="0.75" points="1741.0,5082.8 1854.0,5080.8 1855.0,5293.8 1807.0,5292.8 1808.0,5216.8 1741.0,5215.8 1749.0,5165.8 1785.0,5149.8 1748.0,5123.8" /><text class="tip" x="1787.5555555555557" y="5175.2444444444445">Window #59</text><polygon class="el" fill="#F6BD0F" opacity="0.75" points="1741.0,5798.8 1808.0,5799.8 1809.0,5873.8 1854.0,5875.8 1853.0,5663.8 1740.0,5662.8 1747.0,5712.8 1784.0,5733.8 1749.0,5756.8" /><text class="tip" x="1787.2222222222222" y="5759.2444444444445">Window #60</text><polygon class="el" fill="#F6BD0F" opacity="0.75" points="1589.0,5818.8 1587.0,5929.8 1799.0,5932.8 1798.0,5882.8 1724.0,5882.8 1724.0,5817.8 1674.0,5828.8 1655.0,5866.8 1633.0,5826.8" /><text class="tip" x="1687.0" y="5860.2444444444445">Window #61</text><polygon class="el" fill="#F6BD0F" opacity="0.75" points="1463.0,6003.8 1578.0,6001.8 1576.0,6141.8 1463.0,6137.8 1476.0,6086.8 1510.0,6069.8 1470.0,6044.8" /><text class="tip" x="1505.142857142857" y="6064.5142857142855">Window #62</text><polygon class="el" fill="#F6BD0F" opacity="0.75" points="1578.0,6338.8 1531.0,6336.8 1530.0,6409.8 1578.0,6410.8" /><text class="tip" x="1554.25" y="6369.05">Window #63</text><polygon class="el" fill="#F6BD0F" opacity="0.75" points="1184.0,6742.8 1183.0,6795.8 1326.0,6795.8 1325.0,6742.8" /><text class="tip" x="1254.5" y="6764.3">Window #64</text><polygon class="el" fill="#F6BD0F" opacity="0.75" points="528.0,6399.8 578.0,6397.8 579.0,6545.8 530.0,6546.8" /><text class="tip" x="553.75" y="6467.55">Window #65</text><polygon class="el" fill="#F6BD0F" opacity="0.75" points="529.0,6040.8 579.0,6039.8 579.0,6138.8 531.0,6140.8" /><text class="tip" x="554.5" y="6085.05">Window #66</text><polygon class="el" fill="#F6BD0F" opacity="0.75" points="649.0,5856.8 695.0,5854.8 697.0,5900.8 650.0,5900.8" /><text class="tip" x="672.75" y="5873.3">Window #67</text><polygon class="el" fill="#FF8E46" opacity="0.75" points="796.0,5832.8 653.0,5832.8 650.0,5728.8 696.0,5728.8 742.0,5740.8 781.0,5780.8" /><text class="tip" x="719.6666666666666" y="5769.133333333333">Door #68</text><polygon class="el" fill="#F6BD0F" opacity="0.75" points="581.0,5377.8 529.0,5377.8 530.0,5524.8 580.0,5525.8" /><text class="tip" x="555.0" y="5446.55">Window #69</text><polygon class="el" fill="#F6BD0F" opacity="0.75" points="579.0,5152.8 532.0,5152.8 531.0,5227.8 579.0,5229.8" /><text class="tip" x="555.25" y="5185.8">Window #70</text><polygon class="el" fill="#FF8E46" opacity="0.75" points="897.0,5153.8 896.0,5024.8 801.0,5024.8 802.0,5069.8 816.0,5119.8 852.0,5147.8" /><text class="tip" x="844.0" y="5085.133333333333">Door #71</text><polygon class="el" fill="#8BBA00" opacity="0.75" points="754.0,4714.8 804.0,4714.8 806.0,5004.8 759.0,5003.8" /><text class="tip" x="780.75" y="4854.55">Parking #72</text><polygon class="el" fill="#FF8E46" opacity="0.75" points="808.0,5203.8 843.0,5173.8 894.0,5158.8 895.0,5255.8 800.0,5258.8" /><text class="tip" x="848.0" y="5205.200000000001">Door #73</text><polygon class="el" fill="#FF8E46" opacity="0.75" points="955.0,5927.8 912.0,5846.8 908.0,5946.8 933.0,5942.8" /><text class="tip" x="927.0" y="5911.05">Door #74</text><polygon class="el" fill="#FF8E46" opacity="0.75" points="1011.0,5940.8 1008.0,5838.8 916.0,5840.8 930.0,5901.8 962.0,5927.8" /><text class="tip" x="965.4" y="5885.0">Door #75</text><polygon class="el" fill="#FF8E46" opacity="0.75" points="818.0,6034.8 911.0,6032.8 915.0,6131.8 855.0,6119.8 822.0,6076.8" /><text class="tip" x="864.2" y="6074.200000000001">Door #76</text><polygon class="el" fill="#FF8E46" opacity="0.75" points="815.0,6411.8 911.0,6410.8 912.0,6314.8 856.0,6328.8 825.0,6366.8" /><text class="tip" x="863.8" y="6361.6">Door #77</text><polygon class="el" fill="#FF8E46" opacity="0.75" points="1192.0,6217.8 1194.0,6311.8 1095.0,6311.8 1106.0,6268.8 1138.0,6228.8" /><text class="tip" x="1145.0" y="6262.8">Door #78</text><polygon class="el" fill="#FF8E46" opacity="0.75" points="1297.0,6407.8 1196.0,6410.8 1194.0,6312.8 1239.0,6318.8 1278.0,6353.8" /><text class="tip" x="1240.8" y="6355.8">Door #79</text><polygon class="el" fill="#FF8E46" opacity="0.75" points="1191.0,6506.8 1192.0,6413.8 1096.0,6410.8 1106.0,6459.8 1141.0,6498.8" /><text class="tip" x="1145.2" y="6453.0">Door #80</text><polygon class="el" fill="#FF8E46" opacity="0.75" points="1124.0,6565.8 1035.0,6564.8 1034.0,6658.8 1088.0,6648.8 1118.0,6611.8" /><text class="tip" x="1079.8" y="6605.0">Door #81</text><polygon class="el" fill="#FF8E46" opacity="0.75" points="818.0,6566.8 909.0,6565.8 911.0,6658.8 857.0,6644.8 819.0,6602.8" /><text class="tip" x="862.8" y="6602.8">Door #82</text><polygon class="el" fill="#008E8E" opacity="0.4" points="803.0,4393.8 805.0,5020.8 1548.0,5019.8 1542.0,4390.8" /><text class="tip" x="1174.5" y="4701.3">Room #83</text><polygon class="el" fill="#008E8E" opacity="0.4" points="579.0,5071.8 581.0,5241.8 902.0,5246.8 901.0,5069.8" /><text class="tip" x="740.75" y="5152.55">Room #84</text><polygon class="el" fill="#008E8E" opacity="0.4" points="582.0,5259.8 581.0,5662.8 1010.0,5662.8 910.0,5257.8" /><text class="tip" x="770.75" y="5455.8">Room #85</text><polygon class="el" fill="#008E8E" opacity="0.4" points="700.0,5680.8 1017.0,5676.8 1015.0,5838.8 699.0,5832.8" /><text class="tip" x="857.75" y="5752.3">Room #86</text><polygon class="el" fill="#008E8E" opacity="0.4" points="907.0,5849.8 905.0,5939.8 701.0,5942.8 699.0,5851.8" /><text class="tip" x="803.0" y="5891.05">Room #87</text><polygon class="el" fill="#008E8E" opacity="0.4" points="917.0,5066.8 918.0,5253.8 1024.0,5668.8 1025.0,5880.8 1807.0,5879.8 1805.0,5590.8 1715.0,5588.8 1717.0,5365.8 1805.0,5363.8 1803.0,5069.8" /><text class="tip" x="1453.6" y="5467.9">Room #88</text><polygon class="el" fill="#008E8E" opacity="0.4" points="1025.0,5899.8 1024.0,6300.8 1189.0,6302.8 1187.0,6214.8 1526.0,6218.8 1525.0,5901.8" /><text class="tip" x="1246.0" y="6134.8">Room #89</text><polygon class="el" fill="#008E8E" opacity="0.4" points="1525.0,6234.8 1527.0,6403.8 1200.0,6403.8 1205.0,6231.8" /><text class="tip" x="1364.25" y="6313.55">Room #90</text><polygon class="el" fill="#008E8E" opacity="0.4" points="1529.0,6422.8 1526.0,6742.8 1039.0,6742.8 1039.0,6425.8" /><text class="tip" x="1283.25" y="6578.55">Room #91</text><polygon class="el" fill="#008E8E" opacity="0.4" points="920.0,6498.8 916.0,6739.8 1025.0,6739.8 1022.0,6500.8" /><text class="tip" x="970.75" y="6614.8">Room #92</text><polygon class="el" fill="#008E8E" opacity="0.4" points="579.0,6256.8 581.0,6742.8 903.0,6741.8 900.0,6259.8" /><text class="tip" x="740.75" y="6495.3">Room #93</text><polygon class="el" fill="#008E8E" opacity="0.4" points="582.0,5956.8 583.0,6245.8 902.0,6245.8 900.0,5957.8" /><text class="tip" x="741.75" y="6096.55">Room #94</text><polygon class="el" fill="#008E8E" opacity="0.4" points="1004.0,5849.8 1006.0,6315.8 1189.0,6315.8 1190.0,6407.8 1027.0,6407.8 1024.0,6482.8 916.0,6481.8 915.0,5851.8" /><text class="tip" x="1033.875" y="6259.175">Room #95</text><polygon class="el" fill="#D64646" opacity="0.75" points="908.0,5255.8 1011.0,5668.8 1024.0,5666.8 919.0,5246.8" /><text class="tip" x="965.5" y="5454.55">Separation #96</text><polygon class="el" fill="#D64646" opacity="0.75" points="1012.0,5678.8 1027.0,5678.8 1027.0,5838.8 1012.0,5838.8" /><text class="tip" x="1019.5" y="5753.8">Separation #97</text><polygon class="el" fill="#9B59B6" opacity="0.75" points="1345.2109393639214,5115.050076016209 1707.82140053139,5115.050076016209 1707.82140053139,5840.270998351146 1345.2109393639214,5840.270998351146" /><text class="tip" x="1526.5161699476557" y="5472.660537183677">Stair #98</text><polygon fill="#9B59B6" opacity="0.6" points="1345.2109393639214,5115.050076016209 1707.82140053139,5115.050076016209 1707.82140053139,5840.270998351146 1345.2109393639214,5840.270998351146" stroke="#9B59B6" stroke-width="3" /><text fill="white" font-size="10px" font-weight="bold" text-anchor="middle" x="1526.5161699476557" y="5481.660537183677">STAIR</text></g><text fill="#27AE60" font-size="16px" font-weight="bold" text-anchor="middle" x="4214.299999999999" y="55">AFTER (Refined)</text><g id="f_Upper_Floor__Fixed_"><text font-size="13px" font-weight="bold" text-anchor="middle" x="4214.299999999999" y="80">Upper Floor (Fixed)</text><polygon class="el" fill="#AFD8F8" opacity="0.75" points="3733.7999999999997,555.0 3759.7999999999997,556.0 3760.7999999999997,505.0 3734.7999999999997,505.0" /><text class="tip" x="3747.2999999999997" y="525.25">Wall #1</text><polygon class="el" fill="#AFD8F8" opacity="0.75" points="3759.7999999999997,836.0 3734.7999999999997,838.0 3736.7999999999997,864.0 3759.7999999999997,863.0" /><text class="tip" x="3747.7999999999997" y="845.25">Wall #2</text><polygon class="el" fill="#AFD8F8" opacity="0.75" points="3734.7999999999997,1142.0 3759.7999999999997,1142.0 3759.7999999999997,1165.0 3734.7999999999997,1165.0" /><text class="tip" x="3747.2999999999997" y="1148.5">Wall #3</text><polygon class="el" fill="#AFD8F8" opacity="0.75" points="4816.799999999999,1167.0 4772.799999999999,1166.0 4774.799999999999,1220.0 4815.799999999999,1221.0" /><text class="tip" x="4795.049999999999" y="1188.5">Wall #5</text><polygon class="el" fill="#AFD8F8" opacity="0.75" points="4762.799999999999,2029.0 4763.799999999999,2072.0 4774.799999999999,2072.0 4774.799999999999,2028.0" /><text class="tip" x="4769.049999999999" y="2045.25">Wall #7</text><polygon class="el" fill="#AFD8F8" opacity="0.75" points="4494.799999999999,2029.0 4495.799999999999,2037.0 3985.7999999999997,2036.0 3984.7999999999997,2028.0" /><text class="tip" x="4240.299999999999" y="2027.5">Wall #8</text><polygon class="el" fill="#AFD8F8" opacity="0.75" points="4551.799999999999,2028.0 4550.799999999999,2073.0 4495.799999999999,2073.0 4495.799999999999,2028.0" /><text class="tip" x="4523.549999999999" y="2045.5">Wall #9</text><polygon class="el" fill="#AFD8F8" opacity="0.75" points="4497.799999999999,2141.0 4538.799999999999,2141.0 4538.799999999999,2026.0 4493.799999999999,2027.0" /><text class="tip" x="4517.299999999999" y="2078.75">Wall #10</text><polygon class="el" fill="#AFD8F8" opacity="0.75" points="4495.799999999999,2282.0 4538.799999999999,2282.0 4538.799999999999,2479.0 4495.799999999999,2479.0" /><text class="tip" x="4517.299999999999" y="2375.5">Wall #11</text><polygon class="el" fill="#AFD8F8" opacity="0.75" points="4167.799999999999,2365.0 4167.799999999999,2371.0 4495.799999999999,2372.0 4495.799999999999,2366.0" /><text class="tip" x="4331.799999999999" y="2363.5">Wall #12</text><polygon class="el" fill="#AFD8F8" opacity="0.75" points="4166.799999999999,2453.0 4160.799999999999,2453.0 4160.799999999999,2365.0 4166.799999999999,2365.0" /><text class="tip" x="4163.799999999999" y="2404.0">Wall #13</text><polygon class="el" fill="#AFD8F8" opacity="0.75" points="4497.799999999999,2549.0 4539.799999999999,2549.0 4539.799999999999,2891.0 4496.799999999999,2891.0" /><text class="tip" x="4518.549999999999" y="2715.0">Wall #14</text><polygon class="el" fill="#AFD8F8" opacity="0.75" points="4158.799999999999,2554.0 4159.799999999999,2561.0 4497.799999999999,2561.0 4495.799999999999,2553.0" /><text class="tip" x="4328.049999999999" y="2552.25">Wall #15</text><polygon class="el" fill="#AFD8F8" opacity="0.75" points="4173.799999999999,505.0 4173.799999999999,531.0 4513.799999999999,529.0 4513.799999999999,506.0" /><text class="tip" x="4343.799999999999" y="512.75">Wall #17</text><polygon class="el" fill="#AFD8F8" opacity="0.75" points="4513.799999999999,831.0 4539.799999999999,831.0 4538.799999999999,505.0 4514.799999999999,505.0" /><text class="tip" x="4526.799999999999" y="663.0">Wall #18</text><polygon class="el" fill="#AFD8F8" opacity="0.75" points="3863.7999999999997,1391.0 3863.7999999999997,1398.0 3876.7999999999997,1398.0 3877.7999999999997,1390.0" /><text class="tip" x="3870.5499999999997" y="1389.25">Wall #20</text><polygon class="el" fill="#AFD8F8" opacity="0.75" points="3870.7999999999997,1208.0 3876.7999999999997,1207.0 3876.7999999999997,1391.0 3870.7999999999997,1391.0" /><text class="tip" x="3873.7999999999997" y="1294.25">Wall #21</text><polygon class="el" fill="#AFD8F8" opacity="0.75" points="3497.7999999999997,1165.0 3541.7999999999997,1165.0 3540.7999999999997,1295.0 3497.7999999999997,1295.0" /><text class="tip" x="3519.5499999999997" y="1225.0">Wall #23</text><polygon class="el" fill="#AFD8F8" opacity="0.75" points="3498.7999999999997,1370.0 3541.7999999999997,1370.0 3541.7999999999997,1518.0 3498.7999999999997,1517.0" /><text class="tip" x="3520.2999999999997" y="1438.75">Wall #24</text><polygon class="el" fill="#AFD8F8" opacity="0.75" points="3765.7999999999997,1391.0 3765.7999999999997,1398.0 3541.7999999999997,1398.0 3541.7999999999997,1390.0" /><text class="tip" x="3653.7999999999997" y="1389.25">Wall #25</text><polygon class="el" fill="#AFD8F8" opacity="0.75" points="3658.7999999999997,1810.0 3658.7999999999997,1817.0 3985.7999999999997,1816.0 3985.7999999999997,1810.0" /><text class="tip" x="3822.2999999999997" y="1808.25">Wall #26</text><polygon class="el" fill="#AFD8F8" opacity="0.75" points="3616.7999999999997,1869.0 3659.7999999999997,1870.0 3659.7999999999997,1809.0 3616.7999999999997,1809.0" /><text class="tip" x="3638.2999999999997" y="1834.25">Wall #27</text><polygon class="el" fill="#AFD8F8" opacity="0.75" points="3497.7999999999997,1666.0 3542.7999999999997,1666.0 3545.7999999999997,1813.0 3499.7999999999997,1809.0" /><text class="tip" x="3521.5499999999997" y="1733.5">Wall #28</text><polygon class="el" fill="#AFD8F8" opacity="0.75" points="4292.799999999999,2891.0 4292.799999999999,2933.0 4539.799999999999,2933.0 4539.799999999999,2890.0" /><text class="tip" x="4416.299999999999" y="2906.75">Wall #30</text><polygon class="el" fill="#AFD8F8" opacity="0.75" points="3660.7999999999997,1981.0 3661.7999999999997,1988.0 3878.7999999999997,1987.0 3878.7999999999997,1981.0" /><text class="tip" x="3770.0499999999997" y="1979.25">Wall #34</text><polygon class="el" fill="#AFD8F8" opacity="0.75" points="3869.7999999999997,2086.0 3869.7999999999997,2095.0 3659.7999999999997,2094.0 3658.7999999999997,2088.0" /><text class="tip" x="3764.5499999999997" y="2085.75">Wall #35</text><polygon class="el" fill="#AFD8F8" opacity="0.75" points="3498.7999999999997,2052.0 3541.7999999999997,2052.0 3541.7999999999997,2180.0 3498.7999999999997,2180.0" /><text class="tip" x="3520.2999999999997" y="2111.0">Wall #37</text><polygon class="el" fill="#AFD8F8" opacity="0.75" points="3870.7999999999997,2272.0 3877.7999999999997,2272.0 3876.7999999999997,2454.0 3870.7999999999997,2454.0" /><text class="tip" x="3874.0499999999997" y="2358.0">Wall #38</text><polygon class="el" fill="#AFD8F8" opacity="0.75" points="3975.7999999999997,1980.0 3977.7999999999997,2448.0 3984.7999999999997,2447.0 3984.7999999999997,1981.0" /><text class="tip" x="3980.7999999999997" y="2209.0">Wall #39</text><polygon class="el" fill="#AFD8F8" opacity="0.75" points="3541.7999999999997,2389.0 3541.7999999999997,2396.0 3870.7999999999997,2395.0 3870.7999999999997,2389.0" /><text class="tip" x="3706.2999999999997" y="2387.25">Wall #40</text><polygon class="el" fill="#AFD8F8" opacity="0.75" points="3497.7999999999997,2280.0 3540.7999999999997,2280.0 3541.7999999999997,2540.0 3498.7999999999997,2540.0" /><text class="tip" x="3519.7999999999997" y="2405.0">Wall #41</text><polygon class="el" fill="#AFD8F8" opacity="0.75" points="3870.7999999999997,2171.0 3876.7999999999997,2171.0 3876.7999999999997,2086.0 3870.7999999999997,2086.0" /><text class="tip" x="3873.7999999999997" y="2123.5">Wall #42</text><polygon class="el" fill="#AFD8F8" opacity="0.75" points="3498.7999999999997,2933.0 3498.7999999999997,2890.0 4147.799999999999,2890.0 4147.799999999999,2933.0" /><text class="tip" x="3823.2999999999997" y="2906.5">Wall #44</text><polygon class="el" fill="#AFD8F8" opacity="0.75" points="3994.7999999999997,2801.0 4000.7999999999997,2802.0 4000.7999999999997,2890.0 3994.7999999999997,2890.0" /><text class="tip" x="3997.7999999999997" y="2840.75">Wall #45</text><polygon class="el" fill="#AFD8F8" opacity="0.75" points="3869.7999999999997,2803.0 3870.7999999999997,2889.0 3877.7999999999997,2889.0 3877.7999999999997,2803.0" /><text class="tip" x="3874.0499999999997" y="2841.0">Wall #46</text><polygon class="el" fill="#AFD8F8" opacity="0.75" points="3877.7999999999997,2631.0 3877.7999999999997,2637.0 3993.7999999999997,2637.0 3993.7999999999997,2631.0" /><text class="tip" x="3935.7999999999997" y="2629.0">Wall #47</text><polygon class="el" fill="#AFD8F8" opacity="0.75" points="3870.7999999999997,2555.0 3870.7999999999997,2702.0 3876.7999999999997,2702.0 3876.7999999999997,2555.0" /><text class="tip" x="3873.7999999999997" y="2623.5">Wall #48</text><polygon class="el" fill="#AFD8F8" opacity="0.75" points="4773.799999999999,1433.0 4815.799999999999,1433.0 4815.799999999999,1804.0 4774.799999999999,1805.0 4775.799999999999,1529.0" /><text class="tip" x="4791.2" y="1595.8">Wall #50</text><polygon class="el" fill="#AFD8F8" opacity="0.75" points="4711.799999999999,1510.0 4711.799999999999,1531.0 4775.799999999999,1530.0 4774.799999999999,1509.0" /><text class="tip" x="4743.549999999999" y="1515.0">Wall #51</text><polygon class="el" fill="#AFD8F8" opacity="0.75" points="4684.799999999999,1727.0 4684.799999999999,1706.0 4774.799999999999,1706.0 4774.799999999999,1728.0" /><text class="tip" x="4729.799999999999" y="1711.75">Wall #53</text><polygon class="el" fill="#AFD8F8" opacity="0.75" points="4060.7999999999997,2448.0 4060.7999999999997,2454.0 3975.7999999999997,2454.0 3975.7999999999997,2448.0" /><text class="tip" x="4018.2999999999997" y="2446.0">Wall #54</text><polygon class="el" fill="#8BBA00" opacity="0.75" points="3720.7999999999997,551.0 3765.7999999999997,550.0 3766.7999999999997,840.0 3722.7999999999997,838.0" /><text class="tip" x="3744.0499999999997" y="689.75">Parking #55</text><polygon class="el" fill="#F6BD0F" opacity="0.75" points="4101.799999999999,534.0 4101.799999999999,503.0 4174.799999999999,502.0 4174.799999999999,533.0" /><text class="tip" x="4138.299999999999" y="513.0">Window #56</text><polygon class="el" fill="#F6BD0F" opacity="0.75" points="4511.799999999999,832.0 4543.799999999999,832.0 4545.799999999999,905.0 4511.799999999999,905.0" /><text class="tip" x="4528.299999999999" y="863.5">Window #57</text><polygon class="el" fill="#F6BD0F" opacity="0.75" points="4508.799999999999,948.0 4543.799999999999,948.0 4542.799999999999,1047.0 4510.799999999999,1046.0" /><text class="tip" x="4526.549999999999" y="992.25">Window #58</text><polygon class="el" fill="#F6BD0F" opacity="0.75" points="4705.799999999999,1224.0 4818.799999999999,1222.0 4819.799999999999,1435.0 4771.799999999999,1434.0 4772.799999999999,1358.0 4705.799999999999,1357.0 4713.799999999999,1307.0 4749.799999999999,1291.0 4712.799999999999,1265.0" /><text class="tip" x="4752.355555555556" y="1316.4444444444443">Window #59</text><polygon class="el" fill="#F6BD0F" opacity="0.75" points="4705.799999999999,1940.0 4772.799999999999,1941.0 4773.799999999999,2015.0 4818.799999999999,2017.0 4817.799999999999,1805.0 4704.799999999999,1804.0 4711.799999999999,1854.0 4748.799999999999,1875.0 4713.799999999999,1898.0" /><text class="tip" x="4752.022222222222" y="1900.4444444444443">Window #60</text><polygon class="el" fill="#F6BD0F" opacity="0.75" points="4553.799999999999,1960.0 4551.799999999999,2071.0 4763.799999999999,2074.0 4762.799999999999,2024.0 4688.799999999999,2024.0 4688.799999999999,1959.0 4638.799999999999,1970.0 4619.799999999999,2008.0 4597.799999999999,1968.0" /><text class="tip" x="4651.799999999999" y="2001.4444444444443">Window #61</text><polygon class="el" fill="#F6BD0F" opacity="0.75" points="4427.799999999999,2145.0 4542.799999999999,2143.0 4540.799999999999,2283.0 4427.799999999999,2279.0 4440.799999999999,2228.0 4474.799999999999,2211.0 4434.799999999999,2186.0" /><text class="tip" x="4469.942857142857" y="2205.714285714286">Window #62</text><polygon class="el" fill="#F6BD0F" opacity="0.75" points="4542.799999999999,2480.0 4495.799999999999,2478.0 4494.799999999999,2551.0 4542.799999999999,2552.0" /><text class="tip" x="4519.049999999999" y="2510.25">Window #63</text><polygon class="el" fill="#F6BD0F" opacity="0.75" points="4148.799999999999,2884.0 4147.799999999999,2937.0 4290.799999999999,2937.0 4289.799999999999,2884.0" /><text class="tip" x="4219.299999999999" y="2905.5">Window #64</text><polygon class="el" fill="#F6BD0F" opacity="0.75" points="3492.7999999999997,2541.0 3542.7999999999997,2539.0 3543.7999999999997,2687.0 3494.7999999999997,2688.0" /><text class="tip" x="3518.5499999999997" y="2608.75">Window #65</text><polygon class="el" fill="#F6BD0F" opacity="0.75" points="3493.7999999999997,2182.0 3543.7999999999997,2181.0 3543.7999999999997,2280.0 3495.7999999999997,2282.0" /><text class="tip" x="3519.2999999999997" y="2226.25">Window #66</text><polygon class="el" fill="#F6BD0F" opacity="0.75" points="3613.7999999999997,1998.0 3659.7999999999997,1996.0 3661.7999999999997,2042.0 3614.7999999999997,2042.0" /><text class="tip" x="3637.5499999999997" y="2014.5">Window #67</text><polygon class="el" fill="#FF8E46" opacity="0.75" points="3736.1046137946178,1955.0201398596191 3639.368022886796,1955.0201398596191 3637.338583916702,1884.6662555630217 3668.4566481248125,1884.6662555630217 3699.574712332923,1892.7840114433982 3725.957418944147,1919.8431977113203" /><text class="tip" x="3684.4666666666662" y="1910.3333333333333">Door #68</text><polygon class="el" fill="#F6BD0F" opacity="0.75" points="3545.7999999999997,1519.0 3493.7999999999997,1519.0 3494.7999999999997,1666.0 3544.7999999999997,1667.0" /><text class="tip" x="3519.7999999999997" y="1587.75">Window #69</text><polygon class="el" fill="#F6BD0F" opacity="0.75" points="3543.7999999999997,1294.0 3496.7999999999997,1294.0 3495.7999999999997,1369.0 3543.7999999999997,1371.0" /><text class="tip" x="3520.0499999999997" y="1327.0">Window #70</text><polygon class="el" fill="#FF8E46" opacity="0.75" points="3861.7999999999997,1295.0 3860.7999999999997,1166.0 3765.7999999999997,1166.0 3766.7999999999997,1211.0 3780.7999999999997,1261.0 3816.7999999999997,1289.0" /><text class="tip" x="3808.7999999999997" y="1226.3333333333333">Door #71</text><polygon class="el" fill="#8BBA00" opacity="0.75" points="3718.7999999999997,856.0 3768.7999999999997,856.0 3770.7999999999997,1146.0 3723.7999999999997,1145.0" /><text class="tip" x="3745.5499999999997" y="995.75">Parking #72</text><polygon class="el" fill="#FF8E46" opacity="0.75" points="3772.7999999999997,1345.0 3807.7999999999997,1315.0 3858.7999999999997,1300.0 3859.7999999999997,1397.0 3764.7999999999997,1400.0" /><text class="tip" x="3812.7999999999997" y="1346.4">Door #73</text><polygon class="el" fill="#FF8E46" opacity="0.75" points="3901.4839284127365,2061.313791387488 3886.612181207462,2033.2995699077853 3885.2287628627855,2067.8850285247017 3893.875127517015,2066.501610180025" /><text class="tip" x="3891.7999999999997" y="2052.25">Door #74</text><polygon class="el" fill="#FF8E46" opacity="0.75" points="3975.7999999999997,2082.0 3972.7999999999997,1980.0 3880.7999999999997,1982.0 3894.7999999999997,2043.0 3926.7999999999997,2069.0" /><text class="tip" x="3930.2" y="2026.2">Door #75</text><polygon class="el" fill="#FF8E46" opacity="0.75" points="3800.9491648694775,2193.442054549888 3857.4151316906587,2192.2277326827657 3859.843775424903,2252.336665105313 3823.4141194112376,2245.0507339025803 3803.377808603722,2218.9428137594537" /><text class="tip" x="3829.0" y="2215.4">Door #76</text><polygon class="el" fill="#FF8E46" opacity="0.75" points="3812.7289483111476,2522.5002364003303 3843.9506893383978,2522.1750099312962 3844.2759158074314,2490.9532689040466 3826.0632335415357,2495.5064394705205 3815.981213001486,2507.865045293807" /><text class="tip" x="3828.5999999999995" y="2502.8">Door #77</text><polygon class="el" fill="#FF8E46" opacity="0.75" points="4156.799999999999,2359.0 4158.799999999999,2453.0 4059.7999999999997,2453.0 4070.7999999999997,2410.0 4102.799999999999,2370.0" /><text class="tip" x="4109.799999999999" y="2404.0">Door #78</text><polygon class="el" fill="#FF8E46" opacity="0.75" points="4222.770037695522,2516.359284193764 4191.912852513178,2517.2758342486845 4191.301819143231,2487.3351991212626 4205.0500699670465,2489.168299231105 4216.965220681021,2499.861383205184" /><text class="tip" x="4205.599999999999" y="2497.0">Door #79</text><polygon class="el" fill="#FF8E46" opacity="0.75" points="4155.799999999999,2648.0 4156.799999999999,2555.0 4060.7999999999997,2552.0 4070.7999999999997,2601.0 4105.799999999999,2640.0" /><text class="tip" x="4110.0" y="2594.2">Door #80</text><polygon class="el" fill="#FF8E46" opacity="0.75" points="4088.7999999999997,2707.0 3999.7999999999997,2706.0 3998.7999999999997,2800.0 4052.7999999999997,2790.0 4082.7999999999997,2753.0" /><text class="tip" x="4044.5999999999995" y="2746.2">Door #81</text><polygon class="el" fill="#FF8E46" opacity="0.75" points="3782.7999999999997,2708.0 3873.7999999999997,2707.0 3875.7999999999997,2800.0 3821.7999999999997,2786.0 3783.7999999999997,2744.0" /><text class="tip" x="3827.5999999999995" y="2744.0">Door #82</text><polygon class="el" fill="#008E8E" opacity="0.4" points="3767.7999999999997,535.0 3769.7999999999997,1162.0 4512.799999999999,1161.0 4506.799999999999,532.0" /><text class="tip" x="4139.299999999999" y="842.5">Room #83</text><polygon class="el" fill="#008E8E" opacity="0.4" points="3543.7999999999997,1213.0 3545.7999999999997,1383.0 3866.7999999999997,1388.0 3865.7999999999997,1211.0" /><text class="tip" x="3705.5499999999997" y="1293.75">Room #84</text><polygon class="el" fill="#008E8E" opacity="0.4" points="3546.7999999999997,1401.0 3545.7999999999997,1804.0 3974.7999999999997,1804.0 3874.7999999999997,1399.0" /><text class="tip" x="3735.5499999999997" y="1597.0">Room #85</text><polygon class="el" fill="#008E8E" opacity="0.4" points="3664.7999999999997,1822.0 3981.7999999999997,1818.0 3979.7999999999997,1980.0 3663.7999999999997,1974.0" /><text class="tip" x="3822.5499999999997" y="1893.5">Room #86</text><polygon class="el" fill="#008E8E" opacity="0.4" points="3871.7999999999997,1991.0 3869.7999999999997,2081.0 3665.7999999999997,2084.0 3663.7999999999997,1993.0" /><text class="tip" x="3767.7999999999997" y="2032.25">Room #87</text><polygon class="el" fill="#008E8E" opacity="0.4" points="3881.7999999999997,1208.0 3882.7999999999997,1395.0 3988.7999999999997,1810.0 3989.7999999999997,2022.0 4771.799999999999,2021.0 4769.799999999999,1732.0 4679.799999999999,1730.0 4681.799999999999,1507.0 4769.799999999999,1505.0 4767.799999999999,1211.0" /><text class="tip" x="4418.4" y="1609.1">Room #88</text><polygon class="el" fill="#008E8E" opacity="0.4" points="3989.7999999999997,2041.0 3988.7999999999997,2442.0 4153.799999999999,2444.0 4151.799999999999,2356.0 4490.799999999999,2360.0 4489.799999999999,2043.0" /><text class="tip" x="4210.799999999999" y="2276.0">Room #89</text><polygon class="el" fill="#008E8E" opacity="0.4" points="4489.799999999999,2376.0 4491.799999999999,2545.0 4164.799999999999,2545.0 4169.799999999999,2373.0" /><text class="tip" x="4329.049999999999" y="2454.75">Room #90</text><polygon class="el" fill="#008E8E" opacity="0.4" points="4493.799999999999,2564.0 4490.799999999999,2884.0 4003.7999999999997,2884.0 4003.7999999999997,2567.0" /><text class="tip" x="4248.049999999999" y="2719.75">Room #91</text><polygon class="el" fill="#008E8E" opacity="0.4" points="3884.7999999999997,2640.0 3880.7999999999997,2881.0 3989.7999999999997,2881.0 3986.7999999999997,2642.0" /><text class="tip" x="3935.5499999999997" y="2756.0">Room #92</text><polygon class="el" fill="#008E8E" opacity="0.4" points="3543.7999999999997,2398.0 3545.7999999999997,2884.0 3867.7999999999997,2883.0 3864.7999999999997,2401.0" /><text class="tip" x="3705.5499999999997" y="2636.5">Room #93</text><polygon class="el" fill="#008E8E" opacity="0.4" points="3546.7999999999997,2098.0 3547.7999999999997,2387.0 3866.7999999999997,2387.0 3864.7999999999997,2099.0" /><text class="tip" x="3706.5499999999997" y="2237.75">Room #94</text><polygon class="el" fill="#008E8E" opacity="0.4" points="3968.7999999999997,1991.0 3970.7999999999997,2457.0 4153.799999999999,2457.0 4154.799999999999,2549.0 3991.7999999999997,2549.0 3988.7999999999997,2624.0 3880.7999999999997,2623.0 3879.7999999999997,1993.0" /><text class="tip" x="3998.6749999999997" y="2400.375">Room #95</text><polygon class="el" fill="#D64646" opacity="0.75" points="3872.7999999999997,1397.0 3975.7999999999997,1810.0 3988.7999999999997,1808.0 3883.7999999999997,1388.0" /><text class="tip" x="3930.2999999999997" y="1595.75">Separation #96</text><polygon class="el" fill="#D64646" opacity="0.75" points="3976.7999999999997,1820.0 3991.7999999999997,1820.0 3991.7999999999997,1980.0 3976.7999999999997,1980.0" /><text class="tip" x="3984.2999999999997" y="1895.0">Separation #97</text><polygon class="el" fill="#9B59B6" opacity="0.75" points="4382.366755326889,1183.8942600532403 4744.977216494358,1183.8942600532403 4744.977216494358,1909.1151823881776 4382.366755326889,1909.1151823881776" /><text class="tip" x="4563.671985910623" y="1541.504721220709">Stair #98</text><polygon class="el" fill="#FF8E46" opacity="0.75" points="3803.2999999999997,2906.5 3843.2999999999997,2906.5 3843.2999999999997,2916.5 3803.2999999999997,2916.5" /><text class="tip" x="3823.2999999999997" y="2906.5">Door #99</text><polygon class="el" fill="#FF8E46" opacity="0.75" points="3803.2999999999997,2906.5 3843.2999999999997,2906.5 3843.2999999999997,2916.5 3803.2999999999997,2916.5" /><text class="tip" x="3823.2999999999997" y="2906.5">Door #100</text><polygon class="el" fill="#FF8E46" opacity="0.75" points="3803.2999999999997,2906.5 3843.2999999999997,2906.5 3843.2999999999997,2916.5 3803.2999999999997,2916.5" /><text class="tip" x="3823.2999999999997" y="2906.5">Door #101</text><polygon fill="#9B59B6" opacity="0.6" points="4382.366755326889,1183.8942600532403 4744.977216494358,1183.8942600532403 4744.977216494358,1909.1151823881776 4382.366755326889,1909.1151823881776" stroke="#9B59B6" stroke-width="3" /><text fill="white" font-size="10px" font-weight="bold" text-anchor="middle" x="4563.671985910623" y="1550.504721220709">STAIR</text></g><g id="f_Lower_Floor__Reference_"><text font-size="13px" font-weight="bold" text-anchor="middle" x="4214.299999999999" y="3938.8">Lower Floor (Reference)</text><polygon class="el" fill="#AFD8F8" opacity="0.75" points="4099.799999999999,4363.8 4099.799999999999,4389.8 3760.7999999999997,4388.8 3760.7999999999997,4363.8" /><text class="tip" x="3930.2999999999997" y="4371.55">Wall #0</text><polygon class="el" fill="#AFD8F8" opacity="0.75" points="3733.7999999999997,4413.8 3759.7999999999997,4414.8 3760.7999999999997,4363.8 3734.7999999999997,4363.8" /><text class="tip" x="3747.2999999999997" y="4384.05">Wall #1</text><polygon class="el" fill="#AFD8F8" opacity="0.75" points="3759.7999999999997,4694.8 3734.7999999999997,4696.8 3736.7999999999997,4722.8 3759.7999999999997,4721.8" /><text class="tip" x="3747.7999999999997" y="4704.05">Wall #2</text><polygon class="el" fill="#AFD8F8" opacity="0.75" points="3734.7999999999997,5000.8 3759.7999999999997,5000.8 3759.7999999999997,5023.8 3734.7999999999997,5023.8" /><text class="tip" x="3747.2999999999997" y="5007.3">Wall #3</text><polygon class="el" fill="#AFD8F8" opacity="0.75" points="3864.7999999999997,5025.8 3864.7999999999997,5066.8 4774.799999999999,5066.8 4774.799999999999,5025.8" /><text class="tip" x="4319.799999999999" y="5041.3">Wall #4</text><polygon class="el" fill="#AFD8F8" opacity="0.75" points="4816.799999999999,5025.8 4772.799999999999,5024.8 4774.799999999999,5078.8 4815.799999999999,5079.8" /><text class="tip" x="4795.049999999999" y="5047.3">Wall #5</text><polygon class="el" fill="#AFD8F8" opacity="0.75" points="4773.799999999999,5875.8 4815.799999999999,5875.8 4816.799999999999,5930.8 4774.799999999999,5930.8" /><text class="tip" x="4795.299999999999" y="5898.3">Wall #6</text><polygon class="el" fill="#AFD8F8" opacity="0.75" points="4762.799999999999,5887.8 4763.799999999999,5930.8 4774.799999999999,5930.8 4774.799999999999,5886.8" /><text class="tip" x="4769.049999999999" y="5904.05">Wall #7</text><polygon class="el" fill="#AFD8F8" opacity="0.75" points="4494.799999999999,5887.8 4495.799999999999,5895.8 3985.7999999999997,5894.8 3984.7999999999997,5886.8" /><text class="tip" x="4240.299999999999" y="5886.3">Wall #8</text><polygon class="el" fill="#AFD8F8" opacity="0.75" points="4551.799999999999,5886.8 4550.799999999999,5931.8 4495.799999999999,5931.8 4495.799999999999,5886.8" /><text class="tip" x="4523.549999999999" y="5904.3">Wall #9</text><polygon class="el" fill="#AFD8F8" opacity="0.75" points="4497.799999999999,5999.8 4538.799999999999,5999.8 4538.799999999999,5884.8 4493.799999999999,5885.8" /><text class="tip" x="4517.299999999999" y="5937.55">Wall #10</text><polygon class="el" fill="#AFD8F8" opacity="0.75" points="4495.799999999999,6140.8 4538.799999999999,6140.8 4538.799999999999,6337.8 4495.799999999999,6337.8" /><text class="tip" x="4517.299999999999" y="6234.3">Wall #11</text><polygon class="el" fill="#AFD8F8" opacity="0.75" points="4167.799999999999,6223.8 4167.799999999999,6229.8 4495.799999999999,6230.8 4495.799999999999,6224.8" /><text class="tip" x="4331.799999999999" y="6222.3">Wall #12</text><polygon class="el" fill="#AFD8F8" opacity="0.75" points="4166.799999999999,6311.8 4160.799999999999,6311.8 4160.799999999999,6223.8 4166.799999999999,6223.8" /><text class="tip" x="4163.799999999999" y="6262.8">Wall #13</text><polygon class="el" fill="#AFD8F8" opacity="0.75" points="4497.799999999999,6407.8 4539.799999999999,6407.8 4539.799999999999,6749.8 4496.799999999999,6749.8" /><text class="tip" x="4518.549999999999" y="6573.8">Wall #14</text><polygon class="el" fill="#AFD8F8" opacity="0.75" points="4158.799999999999,6412.8 4159.799999999999,6419.8 4497.799999999999,6419.8 4495.799999999999,6411.8" /><text class="tip" x="4328.049999999999" y="6411.05">Wall #15</text><polygon class="el" fill="#AFD8F8" opacity="0.75" points="4002.7999999999997,6419.8 4002.7999999999997,6412.8 4061.7999999999997,6411.8 4059.7999999999997,6419.8" /><text class="tip" x="4031.7999999999997" y="6411.05">Wall #16</text><polygon class="el" fill="#AFD8F8" opacity="0.75" points="4173.799999999999,4363.8 4173.799999999999,4389.8 4513.799999999999,4387.8 4513.799999999999,4364.8" /><text class="tip" x="4343.799999999999" y="4371.55">Wall #17</text><polygon class="el" fill="#AFD8F8" opacity="0.75" points="4513.799999999999,4689.8 4539.799999999999,4689.8 4538.799999999999,4363.8 4514.799999999999,4363.8" /><text class="tip" x="4526.799999999999" y="4521.8">Wall #18</text><polygon class="el" fill="#AFD8F8" opacity="0.75" points="4513.799999999999,4760.8 4540.799999999999,4760.8 4539.799999999999,4804.8 4513.799999999999,4803.8" /><text class="tip" x="4527.049999999999" y="4777.55">Wall #19</text><polygon class="el" fill="#AFD8F8" opacity="0.75" points="3863.7999999999997,5249.8 3863.7999999999997,5256.8 3876.7999999999997,5256.8 3877.7999999999997,5248.8" /><text class="tip" x="3870.5499999999997" y="5248.05">Wall #20</text><polygon class="el" fill="#AFD8F8" opacity="0.75" points="3870.7999999999997,5066.8 3876.7999999999997,5065.8 3876.7999999999997,5249.8 3870.7999999999997,5249.8" /><text class="tip" x="3873.7999999999997" y="5153.05">Wall #21</text><polygon class="el" fill="#AFD8F8" opacity="0.75" points="3764.7999999999997,5067.8 3764.7999999999997,5023.8 3540.7999999999997,5023.8 3540.7999999999997,5068.8" /><text class="tip" x="3652.7999999999997" y="5041.05">Wall #22</text><polygon class="el" fill="#AFD8F8" opacity="0.75" points="3497.7999999999997,5023.8 3541.7999999999997,5023.8 3540.7999999999997,5153.8 3497.7999999999997,5153.8" /><text class="tip" x="3519.5499999999997" y="5083.8">Wall #23</text><polygon class="el" fill="#AFD8F8" opacity="0.75" points="3498.7999999999997,5228.8 3541.7999999999997,5228.8 3541.7999999999997,5376.8 3498.7999999999997,5375.8" /><text class="tip" x="3520.2999999999997" y="5297.55">Wall #24</text><polygon class="el" fill="#AFD8F8" opacity="0.75" points="3765.7999999999997,5249.8 3765.7999999999997,5256.8 3541.7999999999997,5256.8 3541.7999999999997,5248.8" /><text class="tip" x="3653.7999999999997" y="5248.05">Wall #25</text><polygon class="el" fill="#AFD8F8" opacity="0.75" points="3658.7999999999997,5668.8 3658.7999999999997,5675.8 3985.7999999999997,5674.8 3985.7999999999997,5668.8" /><text class="tip" x="3822.2999999999997" y="5667.05">Wall #26</text><polygon class="el" fill="#AFD8F8" opacity="0.75" points="3616.7999999999997,5727.8 3659.7999999999997,5728.8 3659.7999999999997,5667.8 3616.7999999999997,5667.8" /><text class="tip" x="3638.2999999999997" y="5693.05">Wall #27</text><polygon class="el" fill="#AFD8F8" opacity="0.75" points="3497.7999999999997,5524.8 3542.7999999999997,5524.8 3545.7999999999997,5671.8 3499.7999999999997,5667.8" /><text class="tip" x="3521.5499999999997" y="5592.3">Wall #28</text><polygon class="el" fill="#AFD8F8" opacity="0.75" points="3498.7999999999997,5710.8 3499.7999999999997,5667.8 3615.7999999999997,5666.8 3617.7999999999997,5713.8" /><text class="tip" x="3558.0499999999997" y="5684.8">Wall #29</text><polygon class="el" fill="#AFD8F8" opacity="0.75" points="4292.799999999999,6749.8 4292.799999999999,6791.8 4539.799999999999,6791.8 4539.799999999999,6748.8" /><text class="tip" x="4416.299999999999" y="6765.55">Wall #30</text><polygon class="el" fill="#AFD8F8" opacity="0.75" points="3993.7999999999997,6560.8 3994.7999999999997,6412.8 4001.7999999999997,6411.8 4000.7999999999997,6561.8" /><text class="tip" x="3997.7999999999997" y="6481.8">Wall #31</text><polygon class="el" fill="#AFD8F8" opacity="0.75" points="3616.7999999999997,5899.8 3660.7999999999997,5899.8 3659.7999999999997,5953.8 3616.7999999999997,5953.8" /><text class="tip" x="3638.5499999999997" y="5921.8">Wall #32</text><polygon class="el" fill="#AFD8F8" opacity="0.75" points="3541.7999999999997,5911.8 3541.7999999999997,5952.8 3616.7999999999997,5953.8 3616.7999999999997,5911.8" /><text class="tip" x="3579.2999999999997" y="5927.55">Wall #33</text><polygon class="el" fill="#AFD8F8" opacity="0.75" points="3660.7999999999997,5839.8 3661.7999999999997,5846.8 3878.7999999999997,5845.8 3878.7999999999997,5839.8" /><text class="tip" x="3770.0499999999997" y="5838.05">Wall #34</text><polygon class="el" fill="#AFD8F8" opacity="0.75" points="3869.7999999999997,5944.8 3869.7999999999997,5953.8 3659.7999999999997,5952.8 3658.7999999999997,5946.8" /><text class="tip" x="3764.5499999999997" y="5944.55">Wall #35</text><polygon class="el" fill="#AFD8F8" opacity="0.75" points="3616.7999999999997,5832.8 3615.7999999999997,5852.8 3658.7999999999997,5852.8 3658.7999999999997,5832.8" /><text class="tip" x="3637.5499999999997" y="5837.8">Wall #36</text><polygon class="el" fill="#AFD8F8" opacity="0.75" points="3498.7999999999997,5910.8 3541.7999999999997,5910.8 3541.7999999999997,6038.8 3498.7999999999997,6038.8" /><text class="tip" x="3520.2999999999997" y="5969.8">Wall #37</text><polygon class="el" fill="#AFD8F8" opacity="0.75" points="3870.7999999999997,6130.8 3877.7999999999997,6130.8 3876.7999999999997,6312.8 3870.7999999999997,6312.8" /><text class="tip" x="3874.0499999999997" y="6216.8">Wall #38</text><polygon class="el" fill="#AFD8F8" opacity="0.75" points="3975.7999999999997,5838.8 3977.7999999999997,6306.8 3984.7999999999997,6305.8 3984.7999999999997,5839.8" /><text class="tip" x="3980.7999999999997" y="6067.8">Wall #39</text><polygon class="el" fill="#AFD8F8" opacity="0.75" points="3541.7999999999997,6247.8 3541.7999999999997,6254.8 3870.7999999999997,6253.8 3870.7999999999997,6247.8" /><text class="tip" x="3706.2999999999997" y="6246.05">Wall #40</text><polygon class="el" fill="#AFD8F8" opacity="0.75" points="3497.7999999999997,6138.8 3540.7999999999997,6138.8 3541.7999999999997,6398.8 3498.7999999999997,6398.8" /><text class="tip" x="3519.7999999999997" y="6263.8">Wall #41</text><polygon class="el" fill="#AFD8F8" opacity="0.75" points="3870.7999999999997,6029.8 3876.7999999999997,6029.8 3876.7999999999997,5944.8 3870.7999999999997,5944.8" /><text class="tip" x="3873.7999999999997" y="5982.3">Wall #42</text><polygon class="el" fill="#AFD8F8" opacity="0.75" points="3499.7999999999997,6544.8 3540.7999999999997,6544.8 3541.7999999999997,6748.8 3498.7999999999997,6748.8" /><text class="tip" x="3520.2999999999997" y="6641.8">Wall #43</text><polygon class="el" fill="#AFD8F8" opacity="0.75" points="3498.7999999999997,6791.8 3498.7999999999997,6748.8 4147.799999999999,6748.8 4147.799999999999,6791.8" /><text class="tip" x="3823.2999999999997" y="6765.3">Wall #44</text><polygon class="el" fill="#AFD8F8" opacity="0.75" points="3994.7999999999997,6659.8 4000.7999999999997,6660.8 4000.7999999999997,6748.8 3994.7999999999997,6748.8" /><text class="tip" x="3997.7999999999997" y="6699.55">Wall #45</text><polygon class="el" fill="#AFD8F8" opacity="0.75" points="3869.7999999999997,6661.8 3870.7999999999997,6747.8 3877.7999999999997,6747.8 3877.7999999999997,6661.8" /><text class="tip" x="3874.0499999999997" y="6699.8">Wall #46</text><polygon class="el" fill="#AFD8F8" opacity="0.75" points="3877.7999999999997,6489.8 3877.7999999999997,6495.8 3993.7999999999997,6495.8 3993.7999999999997,6489.8" /><text class="tip" x="3935.7999999999997" y="6487.8">Wall #47</text><polygon class="el" fill="#AFD8F8" opacity="0.75" points="3870.7999999999997,6413.8 3870.7999999999997,6560.8 3876.7999999999997,6560.8 3876.7999999999997,6413.8" /><text class="tip" x="3873.7999999999997" y="6482.3">Wall #48</text><polygon class="el" fill="#AFD8F8" opacity="0.75" points="4515.799999999999,4904.8 4539.799999999999,4905.8 4539.799999999999,5023.8 4515.799999999999,5024.8" /><text class="tip" x="4527.799999999999" y="4959.8">Wall #49</text><polygon class="el" fill="#AFD8F8" opacity="0.75" points="4773.799999999999,5291.8 4815.799999999999,5291.8 4815.799999999999,5662.8 4774.799999999999,5663.8 4775.799999999999,5387.8" /><text class="tip" x="4791.2" y="5454.6">Wall #50</text><polygon class="el" fill="#AFD8F8" opacity="0.75" points="4711.799999999999,5368.8 4711.799999999999,5389.8 4775.799999999999,5388.8 4774.799999999999,5367.8" /><text class="tip" x="4743.549999999999" y="5373.8">Wall #51</text><polygon class="el" fill="#AFD8F8" opacity="0.75" points="4684.799999999999,5368.8 4712.799999999999,5368.8 4710.799999999999,5564.8 4684.799999999999,5564.8" /><text class="tip" x="4698.299999999999" y="5461.8">Wall #52</text><polygon class="el" fill="#AFD8F8" opacity="0.75" points="4684.799999999999,5585.8 4684.799999999999,5564.8 4774.799999999999,5564.8 4774.799999999999,5586.8" /><text class="tip" x="4729.799999999999" y="5570.55">Wall #53</text><polygon class="el" fill="#AFD8F8" opacity="0.75" points="4060.7999999999997,6306.8 4060.7999999999997,6312.8 3975.7999999999997,6312.8 3975.7999999999997,6306.8" /><text class="tip" x="4018.2999999999997" y="6304.8">Wall #54</text><polygon class="el" fill="#8BBA00" opacity="0.75" points="3720.7999999999997,4409.8 3765.7999999999997,4408.8 3766.7999999999997,4698.8 3722.7999999999997,4696.8" /><text class="tip" x="3744.0499999999997" y="4548.55">Parking #55</text><polygon class="el" fill="#F6BD0F" opacity="0.75" points="4101.799999999999,4392.8 4101.799999999999,4361.8 4174.799999999999,4360.8 4174.799999999999,4391.8" /><text class="tip" x="4138.299999999999" y="4371.8">Window #56</text><polygon class="el" fill="#F6BD0F" opacity="0.75" points="4511.799999999999,4690.8 4543.799999999999,4690.8 4545.799999999999,4763.8 4511.799999999999,4763.8" /><text class="tip" x="4528.299999999999" y="4722.3">Window #57</text><polygon class="el" fill="#F6BD0F" opacity="0.75" points="4508.799999999999,4806.8 4543.799999999999,4806.8 4542.799999999999,4905.8 4510.799999999999,4904.8" /><text class="tip" x="4526.549999999999" y="4851.05">Window #58</text><polygon class="el" fill="#F6BD0F" opacity="0.75" points="4705.799999999999,5082.8 4818.799999999999,5080.8 4819.799999999999,5293.8 4771.799999999999,5292.8 4772.799999999999,5216.8 4705.799999999999,5215.8 4713.799999999999,5165.8 4749.799999999999,5149.8 4712.799999999999,5123.8" /><text class="tip" x="4752.355555555556" y="5175.2444444444445">Window #59</text><polygon class="el" fill="#F6BD0F" opacity="0.75" points="4705.799999999999,5798.8 4772.799999999999,5799.8 4773.799999999999,5873.8 4818.799999999999,5875.8 4817.799999999999,5663.8 4704.799999999999,5662.8 4711.799999999999,5712.8 4748.799999999999,5733.8 4713.799999999999,5756.8" /><text class="tip" x="4752.022222222222" y="5759.2444444444445">Window #60</text><polygon class="el" fill="#F6BD0F" opacity="0.75" points="4553.799999999999,5818.8 4551.799999999999,5929.8 4763.799999999999,5932.8 4762.799999999999,5882.8 4688.799999999999,5882.8 4688.799999999999,5817.8 4638.799999999999,5828.8 4619.799999999999,5866.8 4597.799999999999,5826.8" /><text class="tip" x="4651.799999999999" y="5860.2444444444445">Window #61</text><polygon class="el" fill="#F6BD0F" opacity="0.75" points="4427.799999999999,6003.8 4542.799999999999,6001.8 4540.799999999999,6141.8 4427.799999999999,6137.8 4440.799999999999,6086.8 4474.799999999999,6069.8 4434.799999999999,6044.8" /><text class="tip" x="4469.942857142857" y="6064.5142857142855">Window #62</text><polygon class="el" fill="#F6BD0F" opacity="0.75" points="4542.799999999999,6338.8 4495.799999999999,6336.8 4494.799999999999,6409.8 4542.799999999999,6410.8" /><text class="tip" x="4519.049999999999" y="6369.05">Window #63</text><polygon class="el" fill="#F6BD0F" opacity="0.75" points="4148.799999999999,6742.8 4147.799999999999,6795.8 4290.799999999999,6795.8 4289.799999999999,6742.8" /><text class="tip" x="4219.299999999999" y="6764.3">Window #64</text><polygon class="el" fill="#F6BD0F" opacity="0.75" points="3492.7999999999997,6399.8 3542.7999999999997,6397.8 3543.7999999999997,6545.8 3494.7999999999997,6546.8" /><text class="tip" x="3518.5499999999997" y="6467.55">Window #65</text><polygon class="el" fill="#F6BD0F" opacity="0.75" points="3493.7999999999997,6040.8 3543.7999999999997,6039.8 3543.7999999999997,6138.8 3495.7999999999997,6140.8" /><text class="tip" x="3519.2999999999997" y="6085.05">Window #66</text><polygon class="el" fill="#F6BD0F" opacity="0.75" points="3613.7999999999997,5856.8 3659.7999999999997,5854.8 3661.7999999999997,5900.8 3614.7999999999997,5900.8" /><text class="tip" x="3637.5499999999997" y="5873.3">Window #67</text><polygon class="el" fill="#FF8E46" opacity="0.75" points="3760.7999999999997,5832.8 3617.7999999999997,5832.8 3614.7999999999997,5728.8 3660.7999999999997,5728.8 3706.7999999999997,5740.8 3745.7999999999997,5780.8" /><text class="tip" x="3684.4666666666662" y="5769.133333333333">Door #68</text><polygon class="el" fill="#F6BD0F" opacity="0.75" points="3545.7999999999997,5377.8 3493.7999999999997,5377.8 3494.7999999999997,5524.8 3544.7999999999997,5525.8" /><text class="tip" x="3519.7999999999997" y="5446.55">Window #69</text><polygon class="el" fill="#F6BD0F" opacity="0.75" points="3543.7999999999997,5152.8 3496.7999999999997,5152.8 3495.7999999999997,5227.8 3543.7999999999997,5229.8" /><text class="tip" x="3520.0499999999997" y="5185.8">Window #70</text><polygon class="el" fill="#FF8E46" opacity="0.75" points="3861.7999999999997,5153.8 3860.7999999999997,5024.8 3765.7999999999997,5024.8 3766.7999999999997,5069.8 3780.7999999999997,5119.8 3816.7999999999997,5147.8" /><text class="tip" x="3808.7999999999997" y="5085.133333333333">Door #71</text><polygon class="el" fill="#8BBA00" opacity="0.75" points="3718.7999999999997,4714.8 3768.7999999999997,4714.8 3770.7999999999997,5004.8 3723.7999999999997,5003.8" /><text class="tip" x="3745.5499999999997" y="4854.55">Parking #72</text><polygon class="el" fill="#FF8E46" opacity="0.75" points="3772.7999999999997,5203.8 3807.7999999999997,5173.8 3858.7999999999997,5158.8 3859.7999999999997,5255.8 3764.7999999999997,5258.8" /><text class="tip" x="3812.7999999999997" y="5205.200000000001">Door #73</text><polygon class="el" fill="#FF8E46" opacity="0.75" points="3919.7999999999997,5927.8 3876.7999999999997,5846.8 3872.7999999999997,5946.8 3897.7999999999997,5942.8" /><text class="tip" x="3891.7999999999997" y="5911.05">Door #74</text><polygon class="el" fill="#FF8E46" opacity="0.75" points="3975.7999999999997,5940.8 3972.7999999999997,5838.8 3880.7999999999997,5840.8 3894.7999999999997,5901.8 3926.7999999999997,5927.8" /><text class="tip" x="3930.2" y="5885.0">Door #75</text><polygon class="el" fill="#FF8E46" opacity="0.75" points="3782.7999999999997,6034.8 3875.7999999999997,6032.8 3879.7999999999997,6131.8 3819.7999999999997,6119.8 3786.7999999999997,6076.8" /><text class="tip" x="3829.0" y="6074.200000000001">Door #76</text><polygon class="el" fill="#FF8E46" opacity="0.75" points="3779.7999999999997,6411.8 3875.7999999999997,6410.8 3876.7999999999997,6314.8 3820.7999999999997,6328.8 3789.7999999999997,6366.8" /><text class="tip" x="3828.5999999999995" y="6361.6">Door #77</text><polygon class="el" fill="#FF8E46" opacity="0.75" points="4156.799999999999,6217.8 4158.799999999999,6311.8 4059.7999999999997,6311.8 4070.7999999999997,6268.8 4102.799999999999,6228.8" /><text class="tip" x="4109.799999999999" y="6262.8">Door #78</text><polygon class="el" fill="#FF8E46" opacity="0.75" points="4261.799999999999,6407.8 4160.799999999999,6410.8 4158.799999999999,6312.8 4203.799999999999,6318.8 4242.799999999999,6353.8" /><text class="tip" x="4205.599999999999" y="6355.8">Door #79</text><polygon class="el" fill="#FF8E46" opacity="0.75" points="4155.799999999999,6506.8 4156.799999999999,6413.8 4060.7999999999997,6410.8 4070.7999999999997,6459.8 4105.799999999999,6498.8" /><text class="tip" x="4110.0" y="6453.0">Door #80</text><polygon class="el" fill="#FF8E46" opacity="0.75" points="4088.7999999999997,6565.8 3999.7999999999997,6564.8 3998.7999999999997,6658.8 4052.7999999999997,6648.8 4082.7999999999997,6611.8" /><text class="tip" x="4044.5999999999995" y="6605.0">Door #81</text><polygon class="el" fill="#FF8E46" opacity="0.75" points="3782.7999999999997,6566.8 3873.7999999999997,6565.8 3875.7999999999997,6658.8 3821.7999999999997,6644.8 3783.7999999999997,6602.8" /><text class="tip" x="3827.5999999999995" y="6602.8">Door #82</text><polygon class="el" fill="#008E8E" opacity="0.4" points="3767.7999999999997,4393.8 3769.7999999999997,5020.8 4512.799999999999,5019.8 4506.799999999999,4390.8" /><text class="tip" x="4139.299999999999" y="4701.3">Room #83</text><polygon class="el" fill="#008E8E" opacity="0.4" points="3543.7999999999997,5071.8 3545.7999999999997,5241.8 3866.7999999999997,5246.8 3865.7999999999997,5069.8" /><text class="tip" x="3705.5499999999997" y="5152.55">Room #84</text><polygon class="el" fill="#008E8E" opacity="0.4" points="3546.7999999999997,5259.8 3545.7999999999997,5662.8 3974.7999999999997,5662.8 3874.7999999999997,5257.8" /><text class="tip" x="3735.5499999999997" y="5455.8">Room #85</text><polygon class="el" fill="#008E8E" opacity="0.4" points="3664.7999999999997,5680.8 3981.7999999999997,5676.8 3979.7999999999997,5838.8 3663.7999999999997,5832.8" /><text class="tip" x="3822.5499999999997" y="5752.3">Room #86</text><polygon class="el" fill="#008E8E" opacity="0.4" points="3871.7999999999997,5849.8 3869.7999999999997,5939.8 3665.7999999999997,5942.8 3663.7999999999997,5851.8" /><text class="tip" x="3767.7999999999997" y="5891.05">Room #87</text><polygon class="el" fill="#008E8E" opacity="0.4" points="3881.7999999999997,5066.8 3882.7999999999997,5253.8 3988.7999999999997,5668.8 3989.7999999999997,5880.8 4771.799999999999,5879.8 4769.799999999999,5590.8 4679.799999999999,5588.8 4681.799999999999,5365.8 4769.799999999999,5363.8 4767.799999999999,5069.8" /><text class="tip" x="4418.4" y="5467.9">Room #88</text><polygon class="el" fill="#008E8E" opacity="0.4" points="3989.7999999999997,5899.8 3988.7999999999997,6300.8 4153.799999999999,6302.8 4151.799999999999,6214.8 4490.799999999999,6218.8 4489.799999999999,5901.8" /><text class="tip" x="4210.799999999999" y="6134.8">Room #89</text><polygon class="el" fill="#008E8E" opacity="0.4" points="4489.799999999999,6234.8 4491.799999999999,6403.8 4164.799999999999,6403.8 4169.799999999999,6231.8" /><text class="tip" x="4329.049999999999" y="6313.55">Room #90</text><polygon class="el" fill="#008E8E" opacity="0.4" points="4493.799999999999,6422.8 4490.799999999999,6742.8 4003.7999999999997,6742.8 4003.7999999999997,6425.8" /><text class="tip" x="4248.049999999999" y="6578.55">Room #91</text><polygon class="el" fill="#008E8E" opacity="0.4" points="3884.7999999999997,6498.8 3880.7999999999997,6739.8 3989.7999999999997,6739.8 3986.7999999999997,6500.8" /><text class="tip" x="3935.5499999999997" y="6614.8">Room #92</text><polygon class="el" fill="#008E8E" opacity="0.4" points="3543.7999999999997,6256.8 3545.7999999999997,6742.8 3867.7999999999997,6741.8 3864.7999999999997,6259.8" /><text class="tip" x="3705.5499999999997" y="6495.3">Room #93</text><polygon class="el" fill="#008E8E" opacity="0.4" points="3546.7999999999997,5956.8 3547.7999999999997,6245.8 3866.7999999999997,6245.8 3864.7999999999997,5957.8" /><text class="tip" x="3706.5499999999997" y="6096.55">Room #94</text><polygon class="el" fill="#008E8E" opacity="0.4" points="3968.7999999999997,5849.8 3970.7999999999997,6315.8 4153.799999999999,6315.8 4154.799999999999,6407.8 3991.7999999999997,6407.8 3988.7999999999997,6482.8 3880.7999999999997,6481.8 3879.7999999999997,5851.8" /><text class="tip" x="3998.6749999999997" y="6259.175">Room #95</text><polygon class="el" fill="#D64646" opacity="0.75" points="3872.7999999999997,5255.8 3975.7999999999997,5668.8 3988.7999999999997,5666.8 3883.7999999999997,5246.8" /><text class="tip" x="3930.2999999999997" y="5454.55">Separation #96</text><polygon class="el" fill="#D64646" opacity="0.75" points="3976.7999999999997,5678.8 3991.7999999999997,5678.8 3991.7999999999997,5838.8 3976.7999999999997,5838.8" /><text class="tip" x="3984.2999999999997" y="5753.8">Separation #97</text><polygon class="el" fill="#9B59B6" opacity="0.75" points="4310.010939363921,5115.050076016209 4672.62140053139,5115.050076016209 4672.62140053139,5840.270998351146 4310.010939363921,5840.270998351146" /><text class="tip" x="4491.316169947655" y="5472.660537183677">Stair #98</text><polygon fill="#9B59B6" opacity="0.6" points="4310.010939363921,5115.050076016209 4672.62140053139,5115.050076016209 4672.62140053139,5840.270998351146 4310.010939363921,5840.270998351146" stroke="#9B59B6" stroke-width="3" /><text fill="white" font-size="10px" font-weight="bold" text-anchor="middle" x="4491.316169947655" y="5481.660537183677">STAIR</text></g><text fill="#27AE60" font-size="13px" font-weight="bold" x="50.0" y="8499.199999999999">Stair: 0.63</text><text fill="#27AE60" font-size="13px" font-weight="bold" x="1239.9199999999998" y="8499.199999999999">Wall: 0.73</text><text fill="#27AE60" font-size="13px" font-weight="bold" x="2429.8399999999997" y="8499.199999999999">Door: 0.61</text><text fill="#E74C3C" font-size="13px" font-weight="bold" x="3619.7599999999993" y="8499.199999999999">Egress: 0.01</text><text fill="#E74C3C" font-size="13px" font-weight="bold" x="4809.679999999999" y="8499.199999999999">Overall: 0.03</text></svg>