<?xml version="1.0" encoding="utf-8" ?>
<svg baseProfile="full" height="7483.0px" version="1.1" width="12476.2px" xmlns="http://www.w3.org/2000/svg" xmlns:ev="http://www.w3.org/2001/xml-events" xmlns:xlink="http://www.w3.org/1999/xlink"><defs><style type="text/css"><![CDATA[
        .element:hover { stroke: #E74C3C; stroke-width: 3; cursor: pointer; }
        .tooltip { visibility: hidden; font-size: 12px; }
        .element:hover + .tooltip { visibility: visible; }
        @keyframes pulse { 0%,100% { opacity: 0.3; } 50% { opacity: 1; } }
        .problem { animation: pulse 1.5s infinite; stroke: red; stroke-width: 2; }
    ]]></style></defs><text fill="#2C3E50" font-size="18px" font-weight="bold" text-anchor="middle" x="6238.1" y="25">Multi-Story Floor Plan Coherence</text><text font-size="14px" font-weight="bold" text-anchor="middle" x="2845.5" y="50">Floor 1 (Lower)</text><g id="floor_Floor_1__Lower_"><polygon class="element" fill="#AFD8F8" opacity="0.8" points="4113.0,1176.0 4177.0,1176.625 4177.0,1237.625 4167.0,1239.625 4165.0,1250.625 4125.0,1250.625 4125.0,1239.375 4113.0,1238.375"><title>Wall (id=65)</title></polygon><text class="tooltip" fill="#333" font-size="9px" x="4145.25" y="1221.109375">Wall #65</text><polygon class="element" fill="#AFD8F8" opacity="0.8" points="3664.0,1176.0 3703.0,1176.0 3703.0,4689.0 3664.0,4690.0"><title>Wall (id=67)</title></polygon><text class="tooltip" fill="#333" font-size="9px" x="3683.5" y="2927.75">Wall #67</text><polygon class="element" fill="#AFD8F8" opacity="0.8" points="3703.0,4612.0 3824.5,4613.0 3824.5,4687.0 3702.0,4689.0"><title>Wall (id=68)</title></polygon><text class="tooltip" fill="#333" font-size="9px" x="3763.5" y="4645.25">Wall #68</text><polygon class="element" fill="#AFD8F8" opacity="0.8" points="4459.0,4271.0 4475.0,4271.0 4475.0,4615.0 4459.0,4615.0"><title>Wall (id=69)</title></polygon><text class="tooltip" fill="#333" font-size="9px" x="4467.0" y="4438.0">Wall #69</text><polygon class="element" fill="#AFD8F8" opacity="0.8" points="5081.5,1177.0 5120.5,1177.0 5120.5,4851.0 5082.5,4851.0"><title>Wall (id=70)</title></polygon><text class="tooltip" fill="#333" font-size="9px" x="5101.25" y="3009.0">Wall #70</text><polygon class="element" fill="#AFD8F8" opacity="0.8" points="4786.0,4850.0 5119.0,4850.0 5119.0,4924.0 4786.0,4924.0"><title>Wall (id=71)</title></polygon><text class="tooltip" fill="#333" font-size="9px" x="4952.5" y="4882.0">Wall #71</text><polygon class="element" fill="#AFD8F8" opacity="0.8" points="4292.0,4614.5 4476.0,4614.5 4476.0,4687.5 4292.0,4687.5"><title>Wall (id=72)</title></polygon><text class="tooltip" fill="#333" font-size="9px" x="4384.0" y="4646.0">Wall #72</text><polygon class="element" fill="#AFD8F8" opacity="0.8" points="5071.0,3902.5 5085.0,3902.5 5085.0,3919.5 5071.0,3919.5"><title>Wall (id=73)</title></polygon><text class="tooltip" fill="#333" font-size="9px" x="5078.0" y="3906.0">Wall #73</text><polygon class="element" fill="#AFD8F8" opacity="0.8" points="4462.0,3900.5 4884.0,3900.5 4884.0,3918.0 4462.0,3917.5"><title>Wall (id=74)</title></polygon><text class="tooltip" fill="#333" font-size="9px" x="4673.0" y="3904.125">Wall #74</text><polygon class="element" fill="#AFD8F8" opacity="0.8" points="4459.0,3918.0 4476.0,3918.0 4475.0,4084.0 4459.0,4084.0"><title>Wall (id=75)</title></polygon><text class="tooltip" fill="#333" font-size="9px" x="4467.25" y="3996.0">Wall #75</text><polygon class="element" fill="#AFD8F8" opacity="0.8" points="4599.0,3474.0 4637.0,3474.0 4637.0,3548.0 4599.0,3548.0"><title>Wall (id=76)</title></polygon><text class="tooltip" fill="#333" font-size="9px" x="4618.0" y="3506.0">Wall #76</text><polygon class="element" fill="#AFD8F8" opacity="0.8" points="4610.0,3546.75 4625.0,3546.0 4624.0,3899.75 4610.0,3901.25"><title>Wall (id=77)</title></polygon><text class="tooltip" fill="#333" font-size="9px" x="4617.25" y="3718.4375">Wall #77</text><polygon class="element" fill="#AFD8F8" opacity="0.8" points="4777.0,3475.5 5085.0,3475.5 5085.0,3548.5 4777.0,3548.5"><title>Wall (id=78)</title></polygon><text class="tooltip" fill="#333" font-size="9px" x="4931.0" y="3507.0">Wall #78</text><polygon class="element" fill="#AFD8F8" opacity="0.8" points="4397.5,3474.5 4459.5,3474.5 4459.5,3547.5 4396.5,3547.5"><title>Wall (id=79)</title></polygon><text class="tooltip" fill="#333" font-size="9px" x="4428.25" y="3506.0">Wall #79</text><polygon class="element" fill="#AFD8F8" opacity="0.8" points="4061.0,3534.0 4399.0,3534.0 4399.0,3548.0 4060.0,3549.0"><title>Wall (id=80)</title></polygon><text class="tooltip" fill="#333" font-size="9px" x="4229.75" y="3536.25">Wall #80</text><polygon class="element" fill="#AFD8F8" opacity="0.8" points="4044.5,3394.0 4045.0,3549.0 4061.0,3549.0 4061.0,3394.0"><title>Wall (id=81)</title></polygon><text class="tooltip" fill="#333" font-size="9px" x="4052.875" y="3466.5">Wall #81</text><polygon class="element" fill="#AFD8F8" opacity="0.8" points="3939.0,3357.0 4398.0,3356.0 4399.0,3397.0 3940.0,3397.0"><title>Wall (id=82)</title></polygon><text class="tooltip" fill="#333" font-size="9px" x="4169.0" y="3371.75">Wall #82</text><polygon class="element" fill="#AFD8F8" opacity="0.8" points="3984.0,3321.5 4023.0,3322.0 4024.0,3357.0 3984.0,3356.5"><title>Wall (id=83)</title></polygon><text class="tooltip" fill="#333" font-size="9px" x="4003.75" y="3334.25">Wall #83</text><polygon class="element" fill="#AFD8F8" opacity="0.8" points="3726.0,3327.0 3751.0,3327.0 3751.0,3365.0 3726.0,3365.0"><title>Wall (id=84)</title></polygon><text class="tooltip" fill="#333" font-size="9px" x="3738.5" y="3341.0">Wall #84</text><polygon class="element" fill="#AFD8F8" opacity="0.8" points="3983.0,2967.0 4460.0,2967.0 4461.0,2980.0 4470.0,2979.0 4471.0,3006.0 3984.0,3007.0"><title>Wall (id=85)</title></polygon><text class="tooltip" fill="#333" font-size="9px" x="4304.833333333333" y="2979.3333333333335">Wall #85</text><polygon class="element" fill="#AFD8F8" opacity="0.8" points="3984.0,3006.5 4022.0,3006.5 4022.0,3041.5 3984.0,3041.5"><title>Wall (id=86)</title></polygon><text class="tooltip" fill="#333" font-size="9px" x="4003.0" y="3019.0">Wall #86</text><polygon class="element" fill="#AFD8F8" opacity="0.8" points="4396.5,3006.0 4434.5,3006.0 4435.5,3477.0 4397.5,3478.0"><title>Wall (id=88)</title></polygon><text class="tooltip" fill="#333" font-size="9px" x="4416.0" y="3236.75">Wall #88</text><polygon class="element" fill="#AFD8F8" opacity="0.8" points="5045.0,2775.5 5084.0,2775.5 5084.0,2702.5 5045.0,2702.5"><title>Wall (id=90)</title></polygon><text class="tooltip" fill="#333" font-size="9px" x="5064.5" y="2734.0">Wall #90</text><polygon class="element" fill="#AFD8F8" opacity="0.8" points="4690.0,2472.0 4723.0,2472.0 4723.0,2850.0 4690.0,2850.0"><title>Wall (id=91)</title></polygon><text class="tooltip" fill="#333" font-size="9px" x="4706.5" y="2656.0">Wall #91</text><polygon class="element" fill="#AFD8F8" opacity="0.8" points="4722.0,2703.5 4761.0,2703.5 4761.0,2776.5 4722.0,2776.5"><title>Wall (id=92)</title></polygon><text class="tooltip" fill="#333" font-size="9px" x="4741.5" y="2735.0">Wall #92</text><polygon class="element" fill="#AFD8F8" opacity="0.8" points="4460.5,2138.5 4882.5,2138.5 4882.5,2155.5 4461.5,2155.5"><title>Wall (id=94)</title></polygon><text class="tooltip" fill="#333" font-size="9px" x="4671.75" y="2142.0">Wall #94</text><polygon class="element" fill="#AFD8F8" opacity="0.8" points="4706.5,2153.25 4723.5,2153.75 4723.5,2436.75 4707.5,2436.75"><title>Wall (id=95)</title></polygon><text class="tooltip" fill="#333" font-size="9px" x="4715.25" y="2290.125">Wall #95</text><polygon class="element" fill="#AFD8F8" opacity="0.8" points="4599.0,2154.0 4599.0,2436.0 4617.0,2438.0 4616.0,2154.0"><title>Wall (id=96)</title></polygon><text class="tooltip" fill="#333" font-size="9px" x="4607.75" y="2290.5">Wall #96</text><polygon class="element" fill="#AFD8F8" opacity="0.8" points="3700.0,1175.0 3903.0,1175.0 3905.0,1238.0 3890.5,1236.5 3892.0,1252.0 3701.0,1252.0"><title>Wall (id=98)</title></polygon><text class="tooltip" fill="#333" font-size="9px" x="3831.9166666666665" y="1216.4166666666667">Wall #98</text><polygon class="element" fill="#AFD8F8" opacity="0.8" points="4468.0,1174.5 5081.0,1176.0 5081.0,1252.0 4478.0,1252.0 4477.0,1235.5 4468.0,1235.5"><title>Wall (id=99)</title></polygon><text class="tooltip" fill="#333" font-size="9px" x="4675.5" y="1215.9166666666667">Wall #99</text><polygon class="element" fill="#F6BD0F" opacity="0.8" points="3901.0,1174.0 4117.5,1172.5 4116.5,1249.5 3901.0,1250.0"><title>Window (id=100)</title></polygon><text class="tooltip" fill="#333" font-size="9px" x="4009.0" y="1206.5">Window #100</text><polygon class="element" fill="#F6BD0F" opacity="0.8" points="4171.0,1174.5 4467.0,1174.0 4469.0,1253.0 4171.0,1251.5"><title>Window (id=101)</title></polygon><text class="tooltip" fill="#333" font-size="9px" x="4319.5" y="1208.25">Window #101</text><polygon class="element" fill="#F6BD0F" opacity="0.8" points="3820.0,4613.0 4293.0,4613.0 4293.0,4691.0 3818.0,4691.0"><title>Window (id=104)</title></polygon><text class="tooltip" fill="#333" font-size="9px" x="4056.0" y="4647.0">Window #104</text><polygon class="element" fill="#F6BD0F" opacity="0.8" points="4395.0,4685.0 4473.0,4685.0 4472.0,4848.0 4786.0,4848.0 4786.0,4926.0 4395.0,4927.0"><title>Window (id=105)</title></polygon><text class="tooltip" fill="#333" font-size="9px" x="4551.166666666667" y="4814.833333333333">Window #105</text><polygon class="element" fill="#FF8E46" opacity="0.8" points="4456.5,4080.0 4652.5,4078.0 4632.5,4179.0 4552.5,4240.0 4459.5,4270.0"><title>Door (id=116)</title></polygon><text class="tooltip" fill="#333" font-size="9px" x="4550.7" y="4164.4">Door #116</text><polygon class="element" fill="#FF8E46" opacity="0.8" points="5079.0,3726.0 5077.0,3916.0 4887.0,3916.0 4898.0,3832.0 4967.0,3740.0"><title>Door (id=117)</title></polygon><text class="tooltip" fill="#333" font-size="9px" x="4981.6" y="3821.0">Door #117</text><polygon class="element" fill="#F6BD0F" opacity="0.8" points="4457.0,3471.5 4601.0,3470.5 4601.0,3547.5 4457.0,3548.5"><title>Window (id=118)</title></polygon><text class="tooltip" fill="#333" font-size="9px" x="4529.0" y="3504.5">Window #118</text><polygon class="element" fill="#F6BD0F" opacity="0.8" points="4635.0,3471.0 4778.0,3472.0 4778.0,3549.0 4635.0,3549.0"><title>Window (id=119)</title></polygon><text class="tooltip" fill="#333" font-size="9px" x="4706.5" y="3505.25">Window #119</text><polygon class="element" fill="#F6BD0F" opacity="0.8" points="4762.0,2702.5 5046.0,2702.5 5046.0,2779.5 4760.0,2779.5"><title>Window (id=120)</title></polygon><text class="tooltip" fill="#333" font-size="9px" x="4903.5" y="2736.0">Window #120</text><polygon class="element" fill="#F6BD0F" opacity="0.8" points="4468.0,2968.0 4692.0,2968.0 4692.0,2849.0 4730.0,2849.0 4729.0,3009.0 4469.0,3009.0"><title>Window (id=122)</title></polygon><text class="tooltip" fill="#333" font-size="9px" x="4630.0" y="2937.0">Window #122</text><polygon class="element" fill="#FF8E46" opacity="0.8" points="4879.5,2138.5 5074.5,2137.5 5073.5,2332.5 4963.5,2318.5 4902.5,2243.5"><title>Door (id=123)</title></polygon><text class="tooltip" fill="#333" font-size="9px" x="4978.7" y="2229.1">Door #123</text><polygon class="element" fill="#AFD8F8" opacity="0.8" points="5071.5,2140.0 5071.5,2156.0 5082.5,2156.0 5082.5,2140.0"><title>Wall (id=124)</title></polygon><text class="tooltip" fill="#333" font-size="9px" x="5077.0" y="2143.0">Wall #124</text><polygon class="element" fill="#AFD8F8" opacity="0.8" points="3701.0,2684.5 3727.0,2684.5 3727.0,2704.0 3727.0,2723.5 3701.0,2723.5"><title>Wall (id=126)</title></polygon><text class="tooltip" fill="#333" font-size="9px" x="3716.6" y="2699.0">Wall #126</text><polygon class="element" fill="#FF8E46" opacity="0.8" points="3718.5,2471.5 3718.5,2695.5 3945.5,2694.5 3936.5,2599.5 3835.5,2474.5"><title>Door (id=127)</title></polygon><text class="tooltip" fill="#333" font-size="9px" x="3830.9" y="2582.1">Door #127</text><polygon class="element" fill="#FF8E46" opacity="0.8" points="3750.0,3348.0 3972.0,3348.0 3964.0,3471.0 3866.0,3573.0 3736.0,3580.0"><title>Door (id=128)</title></polygon><text class="tooltip" fill="#333" font-size="9px" x="3857.6" y="3459.0">Door #128</text><polygon class="element" fill="#008E8E" opacity="0.5" points="3710.0,3402.0 4044.0,3404.0 4050.0,3562.0 4613.0,3556.0 4613.0,3907.0 4464.0,3907.0 4464.0,4622.0 3710.0,4622.0"><title>Room (id=133)</title></polygon><text class="tooltip" fill="#333" font-size="9px" x="4208.5" y="3867.75">Room #133</text><polygon class="element" fill="#008E8E" opacity="0.5" points="4624.0,3550.0 5082.0,3550.0 5082.0,3902.0 4624.0,3902.0"><title>Room (id=134)</title></polygon><text class="tooltip" fill="#333" font-size="9px" x="4853.0" y="3721.0">Room #134</text><polygon class="element" fill="#008E8E" opacity="0.5" points="4478.0,3921.5 5084.0,3921.5 5084.0,4854.5 4478.0,4854.5"><title>Room (id=135)</title></polygon><text class="tooltip" fill="#333" font-size="9px" x="4781.0" y="4383.0">Room #135</text><polygon class="element" fill="#AFD8F8" opacity="0.8" points="4823.0,1472.0 4862.0,1471.0 4861.0,1929.0 4821.0,1929.0"><title>Wall (id=136)</title></polygon><text class="tooltip" fill="#333" font-size="9px" x="4841.75" y="1695.25">Wall #136</text><polygon class="element" fill="#AFD8F8" opacity="0.8" points="4858.5,1929.0 4883.5,1929.0 4882.5,1911.0 4859.5,1911.0"><title>Wall (id=137)</title></polygon><text class="tooltip" fill="#333" font-size="9px" x="4871.0" y="1915.0">Wall #137</text><polygon class="element" fill="#AFD8F8" opacity="0.8" points="5072.5,1915.0 5083.5,1913.0 5083.5,1927.0 5071.5,1927.0"><title>Wall (id=138)</title></polygon><text class="tooltip" fill="#333" font-size="9px" x="5077.75" y="1915.5">Wall #138</text><polygon class="element" fill="#AFD8F8" opacity="0.8" points="4082.0,2436.0 4724.0,2435.5 4723.0,2475.0 4083.0,2475.0"><title>Wall (id=139)</title></polygon><text class="tooltip" fill="#333" font-size="9px" x="4403.0" y="2450.375">Wall #139</text><polygon class="element" fill="#AFD8F8" opacity="0.8" points="4044.0,2437.0 4083.0,2437.0 4083.0,2723.0 4044.0,2723.0"><title>Wall (id=140)</title></polygon><text class="tooltip" fill="#333" font-size="9px" x="4063.5" y="2575.0">Wall #140</text><polygon class="element" fill="#AFD8F8" opacity="0.8" points="3940.0,2684.0 4046.0,2684.0 4047.0,2724.0 3940.0,2723.0"><title>Wall (id=141)</title></polygon><text class="tooltip" fill="#333" font-size="9px" x="3993.25" y="2698.75">Wall #141</text><polygon class="element" fill="#008E8E" opacity="0.5" points="4725.0,2156.0 5080.0,2156.0 5080.0,2702.0 4725.0,2702.0"><title>Room (id=143)</title></polygon><text class="tooltip" fill="#333" font-size="9px" x="4902.5" y="2424.0">Room #143</text><polygon class="element" fill="#008E8E" opacity="0.5" points="3705.0,2722.5 3984.0,2722.5 3984.0,3353.5 3705.0,3353.5"><title>Room (id=144)</title></polygon><text class="tooltip" fill="#333" font-size="9px" x="3844.5" y="3033.0">Room #144</text><polygon class="element" fill="#008E8E" opacity="0.5" points="3709.0,2678.5 4049.0,2679.5 4050.0,2432.5 4603.0,2430.5 4603.0,2150.5 3707.0,2153.5"><title>Room (id=145)</title></polygon><text class="tooltip" fill="#333" font-size="9px" x="4120.166666666667" y="2415.8333333333335">Room #145</text><polygon class="element" fill="#D64646" opacity="0.8" points="3704.0,2141.0 4458.0,2141.0 4458.0,2153.0 3704.0,2153.0"><title>Separation (id=146)</title></polygon><text class="tooltip" fill="#333" font-size="9px" x="4081.0" y="2142.0">Separation #146</text><polygon class="element" fill="#008E8E" opacity="0.5" points="3707.0,1248.5 5079.0,1248.5 5083.0,2131.5 3707.0,2131.5"><title>Room (id=147)</title></polygon><text class="tooltip" fill="#333" font-size="9px" x="4394.0" y="1685.0">Room #147</text><polygon class="element" fill="#FF8E46" opacity="0.8" points="5076.0,1735.0 5073.0,1929.0 4886.0,1927.0 4888.0,1849.0 4966.0,1747.0"><title>Door (id=148)</title></polygon><text class="tooltip" fill="#333" font-size="9px" x="4977.8" y="1832.4">Door #148</text><polygon class="element" fill="#AFD8F8" opacity="0.8" points="3203.5,1239.75 3242.0,1240.0 3240.5,2688.25 3202.5,2688.25"><title>Wall (id=149)</title></polygon><text class="tooltip" fill="#333" font-size="9px" x="3222.125" y="1959.0625">Wall #149</text><polygon class="element" fill="#AFD8F8" opacity="0.8" points="2654.5,1166.0 3243.0,1167.0 3243.0,1240.0 2655.5,1240.0"><title>Wall (id=150)</title></polygon><text class="tooltip" fill="#333" font-size="9px" x="2949.0" y="1198.25">Wall #150</text><polygon class="element" fill="#AFD8F8" opacity="0.8" points="3163.0,2700.5 3171.0,2700.5 3171.0,2689.5 3242.0,2688.0 3242.0,2764.0 3163.0,2765.0"><title>Wall (id=151)</title></polygon><text class="tooltip" fill="#333" font-size="9px" x="3192.0" y="2712.9166666666665">Wall #151</text><polygon class="element" fill="#AFD8F8" opacity="0.8" points="2774.5,2689.0 2774.5,2830.0 2785.5,2830.0 2786.0,2842.0 2845.0,2841.0 2843.5,2689.0"><title>Wall (id=152)</title></polygon><text class="tooltip" fill="#333" font-size="9px" x="2801.5" y="2781.8333333333335">Wall #152</text><polygon class="element" fill="#AFD8F8" opacity="0.8" points="2843.0,2689.0 3015.0,2690.0 3015.0,2699.0 3024.0,2699.0 3025.0,2764.0 2843.0,2765.0"><title>Wall (id=153)</title></polygon><text class="tooltip" fill="#333" font-size="9px" x="2960.8333333333335" y="2712.6666666666665">Wall #153</text><polygon class="element" fill="#AFD8F8" opacity="0.8" points="2817.5,2440.0 2844.5,2440.0 2844.5,2690.0 2818.5,2690.0"><title>Wall (id=154)</title></polygon><text class="tooltip" fill="#333" font-size="9px" x="2831.25" y="2560.0">Wall #154</text><polygon class="element" fill="#AFD8F8" opacity="0.8" points="2827.0,2127.5 2845.0,2127.5 2843.0,2440.5 2827.0,2440.5"><title>Wall (id=155)</title></polygon><text class="tooltip" fill="#333" font-size="9px" x="2835.5" y="2279.0">Wall #155</text><polygon class="element" fill="#AFD8F8" opacity="0.8" points="2731.0,2127.5 2827.0,2128.0 2827.0,2144.5 2733.0,2144.5"><title>Wall (id=156)</title></polygon><text class="tooltip" fill="#333" font-size="9px" x="2779.5" y="2131.125">Wall #156</text><polygon class="element" fill="#AFD8F8" opacity="0.8" points="2721.0,2127.5 2721.0,2440.5 2736.0,2440.0 2735.0,2128.5"><title>Wall (id=157)</title></polygon><text class="tooltip" fill="#333" font-size="9px" x="2728.25" y="2279.125">Wall #157</text><polygon class="element" fill="#AFD8F8" opacity="0.8" points="2735.0,2425.5 2828.0,2425.5 2827.0,2440.5 2735.0,2441.0"><title>Wall (id=158)</title></polygon><text class="tooltip" fill="#333" font-size="9px" x="2781.25" y="2428.125">Wall #158</text><polygon class="element" fill="#AFD8F8" opacity="0.8" points="2443.5,2127.0 2724.0,2127.0 2723.0,2154.0 2444.5,2153.0"><title>Wall (id=159)</title></polygon><text class="tooltip" fill="#333" font-size="9px" x="2583.75" y="2135.25">Wall #159</text><polygon class="element" fill="#AFD8F8" opacity="0.8" points="2601.0,2119.5 2619.0,2119.5 2619.0,2130.5 2601.0,2130.5"><title>Wall (id=160)</title></polygon><text class="tooltip" fill="#333" font-size="9px" x="2610.0" y="2120.0">Wall #160</text><polygon class="element" fill="#AFD8F8" opacity="0.8" points="2421.0,2127.0 2449.0,2128.0 2449.0,2558.0 2422.0,2557.5"><title>Wall (id=161)</title></polygon><text class="tooltip" fill="#333" font-size="9px" x="2435.25" y="2337.625">Wall #161</text><polygon class="element" fill="#AFD8F8" opacity="0.8" points="2398.5,1840.5 2714.5,1840.5 2718.5,1852.5 2730.5,1853.5 2730.5,1919.5 2408.5,1918.5 2411.5,1904.5 2401.5,1903.5"><title>Wall (id=163)</title></polygon><text class="tooltip" fill="#333" font-size="9px" x="2564.25" y="1874.125">Wall #163</text><polygon class="element" fill="#AFD8F8" opacity="0.8" points="2601.0,1915.5 2619.0,1915.5 2619.0,1932.5 2601.0,1932.5"><title>Wall (id=164)</title></polygon><text class="tooltip" fill="#333" font-size="9px" x="2610.0" y="1919.0">Wall #164</text><polygon class="element" fill="#AFD8F8" opacity="0.8" points="1784.0,1840.0 1928.0,1841.0 1928.0,1905.0 1919.0,1905.0 1919.0,1918.0 1784.0,1918.0"><title>Wall (id=165)</title></polygon><text class="tooltip" fill="#333" font-size="9px" x="1877.0" y="1882.8333333333333">Wall #165</text><polygon class="element" fill="#AFD8F8" opacity="0.8" points="2655.0,1229.5 2729.0,1229.5 2728.0,1454.5 2715.0,1453.5 2715.0,1464.5 2655.0,1464.5"><title>Wall (id=166)</title></polygon><text class="tooltip" fill="#333" font-size="9px" x="2699.5" y="1377.6666666666667">Wall #166</text><polygon class="element" fill="#AFD8F8" opacity="0.8" points="1785.0,1916.5 1823.0,1917.0 1823.0,4674.0 1785.0,4675.5"><title>Wall (id=167)</title></polygon><text class="tooltip" fill="#333" font-size="9px" x="1804.0" y="3290.75">Wall #167</text><polygon class="element" fill="#AFD8F8" opacity="0.8" points="1822.0,4638.5 2518.0,4639.0 2518.0,4677.0 1822.0,4677.5"><title>Wall (id=168)</title></polygon><text class="tooltip" fill="#333" font-size="9px" x="2170.0" y="4653.0">Wall #168</text><polygon class="element" fill="#AFD8F8" opacity="0.8" points="2518.0,4198.0 2530.0,4197.0 2530.0,4187.0 2556.0,4187.0 2556.0,4677.0 2519.0,4677.0"><title>Wall (id=169)</title></polygon><text class="tooltip" fill="#333" font-size="9px" x="2534.8333333333335" y="4348.833333333333">Wall #169</text><polygon class="element" fill="#AFD8F8" opacity="0.8" points="1819.0,2956.5 2519.0,2955.0 2518.0,2996.0 1819.0,2995.5"><title>Wall (id=170)</title></polygon><text class="tooltip" fill="#333" font-size="9px" x="2168.75" y="2970.75">Wall #170</text><polygon class="element" fill="#AFD8F8" opacity="0.8" points="2519.0,2922.0 2582.0,2922.0 2582.0,2933.0 2593.0,2934.0 2593.0,2997.0 2518.0,2996.0"><title>Wall (id=171)</title></polygon><text class="tooltip" fill="#333" font-size="9px" x="2564.5" y="2945.6666666666665">Wall #171</text><polygon class="element" fill="#AFD8F8" opacity="0.8" points="2518.5,2994.0 2557.0,2993.0 2554.5,3515.0 2530.5,3515.0 2528.5,3505.0 2517.5,3504.0"><title>Wall (id=172)</title></polygon><text class="tooltip" fill="#333" font-size="9px" x="2534.4166666666665" y="3332.6666666666665">Wall #172</text><polygon class="element" fill="#AFD8F8" opacity="0.8" points="2178.0,3488.5 2519.0,3488.5 2519.0,3503.5 2178.0,3503.5"><title>Wall (id=173)</title></polygon><text class="tooltip" fill="#333" font-size="9px" x="2348.5" y="3491.0">Wall #173</text><polygon class="element" fill="#AFD8F8" opacity="0.8" points="2166.0,3373.0 2180.0,3373.0 2180.0,3505.0 2166.0,3505.0"><title>Wall (id=174)</title></polygon><text class="tooltip" fill="#333" font-size="9px" x="2173.0" y="3434.0">Wall #174</text><polygon class="element" fill="#AFD8F8" opacity="0.8" points="2179.0,3370.0 2519.0,3370.0 2519.0,3384.0 2179.0,3384.0"><title>Wall (id=175)</title></polygon><text class="tooltip" fill="#333" font-size="9px" x="2349.0" y="3372.0">Wall #175</text><polygon class="element" fill="#AFD8F8" opacity="0.8" points="2421.0,2959.0 2422.0,2745.0 2448.0,2746.0 2447.0,2959.0"><title>Wall (id=178)</title></polygon><text class="tooltip" fill="#333" font-size="9px" x="2434.5" y="2847.25">Wall #178</text><polygon class="element" fill="#F6BD0F" opacity="0.8" points="2650.0,1464.5 2730.0,1464.5 2729.0,1846.0 2651.0,1845.0"><title>Window (id=179)</title></polygon><text class="tooltip" fill="#333" font-size="9px" x="2690.0" y="1650.0">Window #179</text><polygon class="element" fill="#F6BD0F" opacity="0.8" points="1929.0,1837.5 2403.0,1837.5 2403.0,1920.5 1929.0,1920.5"><title>Window (id=180)</title></polygon><text class="tooltip" fill="#333" font-size="9px" x="2166.0" y="1874.0">Window #180</text><polygon class="element" fill="#F6BD0F" opacity="0.8" points="3022.0,2688.5 3166.0,2688.5 3166.0,2767.5 3022.0,2767.5"><title>Window (id=181)</title></polygon><text class="tooltip" fill="#333" font-size="9px" x="3094.0" y="2723.0">Window #181</text><polygon class="element" fill="#F6BD0F" opacity="0.8" points="2775.5,2838.5 2849.5,2838.5 2849.5,3001.5 2588.0,2998.0 2589.0,2922.0 2776.5,2921.5"><title>Window (id=182)</title></polygon><text class="tooltip" fill="#333" font-size="9px" x="2738.0" y="2915.0">Window #182</text><polygon class="element" fill="#8BBA00" opacity="0.8" points="2519.0,3514.0 2558.0,3513.0 2558.0,4194.0 2520.0,4193.0"><title>Parking (id=183)</title></polygon><text class="tooltip" fill="#333" font-size="9px" x="2538.75" y="3848.5">Parking #183</text><polygon class="element" fill="#FF8E46" opacity="0.8" points="2420.0,2744.5 2625.0,2746.5 2610.0,2623.5 2498.0,2566.5 2420.0,2555.5"><title>Door (id=184)</title></polygon><text class="tooltip" fill="#333" font-size="9px" x="2514.6" y="2642.3">Door #184</text><polygon class="element" fill="#FF8E46" opacity="0.8" points="2620.0,1930.5 2622.0,2119.5 2508.0,2113.5 2451.0,2056.5 2422.0,1925.5"><title>Door (id=185)</title></polygon><text class="tooltip" fill="#333" font-size="9px" x="2524.6" y="2024.1">Door #185</text><polygon class="element" fill="#008E8E" opacity="0.5" points="1829.0,1919.5 2604.0,1921.5 2605.0,2129.5 2422.0,2129.5 2425.0,2956.5 1829.0,2958.5"><title>Room (id=186)</title></polygon><text class="tooltip" fill="#333" font-size="9px" x="2285.6666666666665" y="2330.8333333333335">Room #186</text><polygon class="element" fill="#008E8E" opacity="0.5" points="2451.5,2156.0 2719.5,2156.0 2723.5,2443.0 2820.5,2445.0 2818.5,2691.0 2775.5,2692.0 2778.5,2925.0 2520.5,2925.0 2518.5,2959.0 2448.5,2956.0"><title>Room (id=187)</title></polygon><text class="tooltip" fill="#333" font-size="9px" x="2657.5" y="2629.8">Room #187</text><polygon class="element" fill="#008E8E" opacity="0.5" points="2736.5,1247.0 3200.5,1244.0 3216.5,2691.0 2856.5,2691.0 2846.5,2127.0 2626.5,2124.0 2623.5,1917.0 2743.5,1921.0"><title>Room (id=188)</title></polygon><text class="tooltip" fill="#333" font-size="9px" x="2856.25" y="1990.25">Room #188</text><polygon class="element" fill="#AFD8F8" opacity="0.8" points="2941.0,1460.0 2983.0,1460.0 2983.0,1919.0 2941.0,1919.0"><title>Wall (id=189)</title></polygon><text class="tooltip" fill="#333" font-size="9px" x="2962.0" y="1684.5">Wall #189</text><polygon class="element" fill="#9B59B6" opacity="0.8" points="4056.6975303135596,1248.5 4774.697361673907,1248.5 4774.697361673907,2684.4996627206947 4056.6975303135596,2684.4996627206947"><title>Stair (id=190)</title></polygon><text class="tooltip" fill="#333" font-size="9px" x="4415.697445993733" y="1961.4998313603473">Stair #190</text><polygon class="problem" fill="#9B59B6" opacity="0.6" points="4056.6975303135596,1248.5 4774.697361673907,1248.5 4774.697361673907,2684.4996627206947 4056.6975303135596,2684.4996627206947" /></g><text font-size="14px" font-weight="bold" text-anchor="middle" x="8536.5" y="50">Floor 2 (Upper)</text><g id="floor_Floor_2__Upper_"><polygon class="element" fill="#AFD8F8" opacity="0.8" points="9804.0,1176.0 9868.0,1176.625 9868.0,1237.625 9858.0,1239.625 9856.0,1250.625 9816.0,1250.625 9816.0,1239.375 9804.0,1238.375"><title>Wall (id=65)</title></polygon><text class="tooltip" fill="#333" font-size="9px" x="9836.25" y="1221.109375">Wall #65</text><polygon class="element" fill="#AFD8F8" opacity="0.8" points="9355.0,1176.0 9394.0,1176.0 9394.0,4689.0 9355.0,4690.0"><title>Wall (id=67)</title></polygon><text class="tooltip" fill="#333" font-size="9px" x="9374.5" y="2927.75">Wall #67</text><polygon class="element" fill="#AFD8F8" opacity="0.8" points="10150.0,4271.0 10166.0,4271.0 10166.0,4615.0 10150.0,4615.0"><title>Wall (id=69)</title></polygon><text class="tooltip" fill="#333" font-size="9px" x="10158.0" y="4438.0">Wall #69</text><polygon class="element" fill="#AFD8F8" opacity="0.8" points="10772.5,1177.0 10811.5,1177.0 10811.5,4851.0 10773.5,4851.0"><title>Wall (id=70)</title></polygon><text class="tooltip" fill="#333" font-size="9px" x="10792.25" y="3009.0">Wall #70</text><polygon class="element" fill="#AFD8F8" opacity="0.8" points="10477.0,4850.0 10810.0,4850.0 10810.0,4924.0 10477.0,4924.0"><title>Wall (id=71)</title></polygon><text class="tooltip" fill="#333" font-size="9px" x="10643.5" y="4882.0">Wall #71</text><polygon class="element" fill="#AFD8F8" opacity="0.8" points="9983.0,4614.5 10167.0,4614.5 10167.0,4687.5 9983.0,4687.5"><title>Wall (id=72)</title></polygon><text class="tooltip" fill="#333" font-size="9px" x="10075.0" y="4646.0">Wall #72</text><polygon class="element" fill="#AFD8F8" opacity="0.8" points="10762.0,3902.5 10776.0,3902.5 10776.0,3919.5 10762.0,3919.5"><title>Wall (id=73)</title></polygon><text class="tooltip" fill="#333" font-size="9px" x="10769.0" y="3906.0">Wall #73</text><polygon class="element" fill="#AFD8F8" opacity="0.8" points="10153.0,3900.5 10575.0,3900.5 10575.0,3918.0 10153.0,3917.5"><title>Wall (id=74)</title></polygon><text class="tooltip" fill="#333" font-size="9px" x="10364.0" y="3904.125">Wall #74</text><polygon class="element" fill="#AFD8F8" opacity="0.8" points="10150.0,3918.0 10167.0,3918.0 10166.0,4084.0 10150.0,4084.0"><title>Wall (id=75)</title></polygon><text class="tooltip" fill="#333" font-size="9px" x="10158.25" y="3996.0">Wall #75</text><polygon class="element" fill="#AFD8F8" opacity="0.8" points="10290.0,3474.0 10328.0,3474.0 10328.0,3548.0 10290.0,3548.0"><title>Wall (id=76)</title></polygon><text class="tooltip" fill="#333" font-size="9px" x="10309.0" y="3506.0">Wall #76</text><polygon class="element" fill="#AFD8F8" opacity="0.8" points="10468.0,3475.5 10776.0,3475.5 10776.0,3548.5 10468.0,3548.5"><title>Wall (id=78)</title></polygon><text class="tooltip" fill="#333" font-size="9px" x="10622.0" y="3507.0">Wall #78</text><polygon class="element" fill="#AFD8F8" opacity="0.8" points="9752.0,3534.0 10090.0,3534.0 10090.0,3548.0 9751.0,3549.0"><title>Wall (id=80)</title></polygon><text class="tooltip" fill="#333" font-size="9px" x="9920.75" y="3536.25">Wall #80</text><polygon class="element" fill="#AFD8F8" opacity="0.8" points="9735.5,3394.0 9736.0,3549.0 9752.0,3549.0 9752.0,3394.0"><title>Wall (id=81)</title></polygon><text class="tooltip" fill="#333" font-size="9px" x="9743.875" y="3466.5">Wall #81</text><polygon class="element" fill="#AFD8F8" opacity="0.8" points="9675.0,3321.5 9714.0,3322.0 9715.0,3357.0 9675.0,3356.5"><title>Wall (id=83)</title></polygon><text class="tooltip" fill="#333" font-size="9px" x="9694.75" y="3334.25">Wall #83</text><polygon class="element" fill="#AFD8F8" opacity="0.8" points="9674.0,2967.0 10151.0,2967.0 10152.0,2980.0 10161.0,2979.0 10162.0,3006.0 9675.0,3007.0"><title>Wall (id=85)</title></polygon><text class="tooltip" fill="#333" font-size="9px" x="9995.833333333332" y="2979.3333333333335">Wall #85</text><polygon class="element" fill="#AFD8F8" opacity="0.8" points="9675.0,3006.5 9713.0,3006.5 9713.0,3041.5 9675.0,3041.5"><title>Wall (id=86)</title></polygon><text class="tooltip" fill="#333" font-size="9px" x="9694.0" y="3019.0">Wall #86</text><polygon class="element" fill="#AFD8F8" opacity="0.8" points="10736.0,2775.5 10775.0,2775.5 10775.0,2702.5 10736.0,2702.5"><title>Wall (id=90)</title></polygon><text class="tooltip" fill="#333" font-size="9px" x="10755.5" y="2734.0">Wall #90</text><polygon class="element" fill="#AFD8F8" opacity="0.8" points="10381.0,2472.0 10414.0,2472.0 10414.0,2850.0 10381.0,2850.0"><title>Wall (id=91)</title></polygon><text class="tooltip" fill="#333" font-size="9px" x="10397.5" y="2656.0">Wall #91</text><polygon class="element" fill="#AFD8F8" opacity="0.8" points="10413.0,2703.5 10452.0,2703.5 10452.0,2776.5 10413.0,2776.5"><title>Wall (id=92)</title></polygon><text class="tooltip" fill="#333" font-size="9px" x="10432.5" y="2735.0">Wall #92</text><polygon class="element" fill="#AFD8F8" opacity="0.8" points="10397.5,2153.25 10414.5,2153.75 10414.5,2436.75 10398.5,2436.75"><title>Wall (id=95)</title></polygon><text class="tooltip" fill="#333" font-size="9px" x="10406.25" y="2290.125">Wall #95</text><polygon class="element" fill="#AFD8F8" opacity="0.8" points="10290.0,2154.0 10290.0,2436.0 10308.0,2438.0 10307.0,2154.0"><title>Wall (id=96)</title></polygon><text class="tooltip" fill="#333" font-size="9px" x="10298.75" y="2290.5">Wall #96</text><polygon class="element" fill="#AFD8F8" opacity="0.8" points="9391.0,1175.0 9594.0,1175.0 9596.0,1238.0 9581.5,1236.5 9583.0,1252.0 9392.0,1252.0"><title>Wall (id=98)</title></polygon><text class="tooltip" fill="#333" font-size="9px" x="9522.916666666666" y="1216.4166666666667">Wall #98</text><polygon class="element" fill="#F6BD0F" opacity="0.8" points="9592.0,1174.0 9808.5,1172.5 9807.5,1249.5 9592.0,1250.0"><title>Window (id=100)</title></polygon><text class="tooltip" fill="#333" font-size="9px" x="9700.0" y="1206.5">Window #100</text><polygon class="element" fill="#F6BD0F" opacity="0.8" points="9862.0,1174.5 10158.0,1174.0 10160.0,1253.0 9862.0,1251.5"><title>Window (id=101)</title></polygon><text class="tooltip" fill="#333" font-size="9px" x="10010.5" y="1208.25">Window #101</text><polygon class="element" fill="#F6BD0F" opacity="0.8" points="9511.0,4613.0 9984.0,4613.0 9984.0,4691.0 9509.0,4691.0"><title>Window (id=104)</title></polygon><text class="tooltip" fill="#333" font-size="9px" x="9747.0" y="4647.0">Window #104</text><polygon class="element" fill="#F6BD0F" opacity="0.8" points="10086.0,4685.0 10164.0,4685.0 10163.0,4848.0 10477.0,4848.0 10477.0,4926.0 10086.0,4927.0"><title>Window (id=105)</title></polygon><text class="tooltip" fill="#333" font-size="9px" x="10242.166666666668" y="4814.833333333333">Window #105</text><polygon class="element" fill="#FF8E46" opacity="0.8" points="10179.420286891178,4110.293775457232 10309.00440333841,4108.971488554709 10295.78153431318,4175.746977132109 10242.89005821227,4216.076727659054 10181.40371724496,4235.911031196895"><title>Door (id=116)</title></polygon><text class="tooltip" fill="#333" font-size="9px" x="10241.699999999999" y="4164.4">Door #116</text><polygon class="element" fill="#FF8E46" opacity="0.8" points="10733.188232004759,3763.7944229930613 10731.944120464621,3881.985019306245 10613.753524151436,3881.985019306245 10620.5961376222,3829.732334620416 10663.517985756987,3772.5032037740325"><title>Door (id=117)</title></polygon><text class="tooltip" fill="#333" font-size="9px" x="10672.6" y="3821.0">Door #117</text><polygon class="element" fill="#F6BD0F" opacity="0.8" points="10148.0,3471.5 10292.0,3470.5 10292.0,3547.5 10148.0,3548.5"><title>Window (id=118)</title></polygon><text class="tooltip" fill="#333" font-size="9px" x="10220.0" y="3504.5">Window #118</text><polygon class="element" fill="#F6BD0F" opacity="0.8" points="10326.0,3471.0 10469.0,3472.0 10469.0,3549.0 10326.0,3549.0"><title>Window (id=119)</title></polygon><text class="tooltip" fill="#333" font-size="9px" x="10397.5" y="3505.25">Window #119</text><polygon class="element" fill="#F6BD0F" opacity="0.8" points="10453.0,2702.5 10737.0,2702.5 10737.0,2779.5 10451.0,2779.5"><title>Window (id=120)</title></polygon><text class="tooltip" fill="#333" font-size="9px" x="10594.5" y="2736.0">Window #120</text><polygon class="element" fill="#F6BD0F" opacity="0.8" points="10159.0,2968.0 10383.0,2968.0 10383.0,2849.0 10421.0,2849.0 10420.0,3009.0 10160.0,3009.0"><title>Window (id=122)</title></polygon><text class="tooltip" fill="#333" font-size="9px" x="10321.0" y="2937.0">Window #122</text><polygon class="element" fill="#FF8E46" opacity="0.8" points="10570.5,2138.5 10765.5,2137.5 10764.5,2332.5 10654.5,2318.5 10593.5,2243.5"><title>Door (id=123)</title></polygon><text class="tooltip" fill="#333" font-size="9px" x="10669.7" y="2229.1">Door #123</text><polygon class="element" fill="#FF8E46" opacity="0.8" points="9409.5,2471.5 9409.5,2695.5 9636.5,2694.5 9627.5,2599.5 9526.5,2474.5"><title>Door (id=127)</title></polygon><text class="tooltip" fill="#333" font-size="9px" x="9521.9" y="2582.1">Door #127</text><polygon class="element" fill="#FF8E46" opacity="0.8" points="9505.867752674658,3417.931777976397 9594.032798271553,3417.931777976397 9590.855679511305,3466.7799789152173 9551.93597469826,3507.288243108386 9500.307794844222,3510.068222023603"><title>Door (id=128)</title></polygon><text class="tooltip" fill="#333" font-size="9px" x="9548.6" y="3459.0">Door #128</text><polygon class="element" fill="#008E8E" opacity="0.5" points="9401.0,3402.0 9735.0,3404.0 9741.0,3562.0 10304.0,3556.0 10304.0,3907.0 10155.0,3907.0 10155.0,4622.0 9401.0,4622.0"><title>Room (id=133)</title></polygon><text class="tooltip" fill="#333" font-size="9px" x="9899.5" y="3867.75">Room #133</text><polygon class="element" fill="#008E8E" opacity="0.5" points="10315.0,3550.0 10773.0,3550.0 10773.0,3902.0 10315.0,3902.0"><title>Room (id=134)</title></polygon><text class="tooltip" fill="#333" font-size="9px" x="10544.0" y="3721.0">Room #134</text><polygon class="element" fill="#008E8E" opacity="0.5" points="10169.0,3921.5 10775.0,3921.5 10775.0,4854.5 10169.0,4854.5"><title>Room (id=135)</title></polygon><text class="tooltip" fill="#333" font-size="9px" x="10472.0" y="4383.0">Room #135</text><polygon class="element" fill="#AFD8F8" opacity="0.8" points="10514.0,1472.0 10553.0,1471.0 10552.0,1929.0 10512.0,1929.0"><title>Wall (id=136)</title></polygon><text class="tooltip" fill="#333" font-size="9px" x="10532.75" y="1695.25">Wall #136</text><polygon class="element" fill="#AFD8F8" opacity="0.8" points="9773.0,2436.0 10415.0,2435.5 10414.0,2475.0 9774.0,2475.0"><title>Wall (id=139)</title></polygon><text class="tooltip" fill="#333" font-size="9px" x="10094.0" y="2450.375">Wall #139</text><polygon class="element" fill="#AFD8F8" opacity="0.8" points="9631.0,2684.0 9737.0,2684.0 9738.0,2724.0 9631.0,2723.0"><title>Wall (id=141)</title></polygon><text class="tooltip" fill="#333" font-size="9px" x="9684.25" y="2698.75">Wall #141</text><polygon class="element" fill="#008E8E" opacity="0.5" points="10416.0,2156.0 10771.0,2156.0 10771.0,2702.0 10416.0,2702.0"><title>Room (id=143)</title></polygon><text class="tooltip" fill="#333" font-size="9px" x="10593.5" y="2424.0">Room #143</text><polygon class="element" fill="#008E8E" opacity="0.5" points="9396.0,2722.5 9675.0,2722.5 9675.0,3353.5 9396.0,3353.5"><title>Room (id=144)</title></polygon><text class="tooltip" fill="#333" font-size="9px" x="9535.5" y="3033.0">Room #144</text><polygon class="element" fill="#008E8E" opacity="0.5" points="9400.0,2678.5 9740.0,2679.5 9741.0,2432.5 10294.0,2430.5 10294.0,2150.5 9398.0,2153.5"><title>Room (id=145)</title></polygon><text class="tooltip" fill="#333" font-size="9px" x="9811.166666666668" y="2415.8333333333335">Room #145</text><polygon class="element" fill="#D64646" opacity="0.8" points="9395.0,2141.0 10149.0,2141.0 10149.0,2153.0 9395.0,2153.0"><title>Separation (id=146)</title></polygon><text class="tooltip" fill="#333" font-size="9px" x="9772.0" y="2142.0">Separation #146</text><polygon class="element" fill="#008E8E" opacity="0.5" points="9398.0,1248.5 10770.0,1248.5 10774.0,2131.5 9398.0,2131.5"><title>Room (id=147)</title></polygon><text class="tooltip" fill="#333" font-size="9px" x="10085.0" y="1685.0">Room #147</text><polygon class="element" fill="#FF8E46" opacity="0.8" points="10767.0,1735.0 10764.0,1929.0 10577.0,1927.0 10579.0,1849.0 10657.0,1747.0"><title>Door (id=148)</title></polygon><text class="tooltip" fill="#333" font-size="9px" x="10668.8" y="1832.4">Door #148</text><polygon class="element" fill="#AFD8F8" opacity="0.8" points="8894.5,1239.75 8933.0,1240.0 8931.5,2688.25 8893.5,2688.25"><title>Wall (id=149)</title></polygon><text class="tooltip" fill="#333" font-size="9px" x="8913.125" y="1959.0625">Wall #149</text><polygon class="element" fill="#AFD8F8" opacity="0.8" points="8465.5,2689.0 8465.5,2830.0 8476.5,2830.0 8477.0,2842.0 8536.0,2841.0 8534.5,2689.0"><title>Wall (id=152)</title></polygon><text class="tooltip" fill="#333" font-size="9px" x="8492.5" y="2781.8333333333335">Wall #152</text><polygon class="element" fill="#AFD8F8" opacity="0.8" points="8508.5,2440.0 8535.5,2440.0 8535.5,2690.0 8509.5,2690.0"><title>Wall (id=154)</title></polygon><text class="tooltip" fill="#333" font-size="9px" x="8522.25" y="2560.0">Wall #154</text><polygon class="element" fill="#AFD8F8" opacity="0.8" points="8518.0,2127.5 8536.0,2127.5 8534.0,2440.5 8518.0,2440.5"><title>Wall (id=155)</title></polygon><text class="tooltip" fill="#333" font-size="9px" x="8526.5" y="2279.0">Wall #155</text><polygon class="element" fill="#AFD8F8" opacity="0.8" points="8422.0,2127.5 8518.0,2128.0 8518.0,2144.5 8424.0,2144.5"><title>Wall (id=156)</title></polygon><text class="tooltip" fill="#333" font-size="9px" x="8470.5" y="2131.125">Wall #156</text><polygon class="element" fill="#AFD8F8" opacity="0.8" points="8426.0,2425.5 8519.0,2425.5 8518.0,2440.5 8426.0,2441.0"><title>Wall (id=158)</title></polygon><text class="tooltip" fill="#333" font-size="9px" x="8472.25" y="2428.125">Wall #158</text><polygon class="element" fill="#AFD8F8" opacity="0.8" points="8292.0,2119.5 8310.0,2119.5 8310.0,2130.5 8292.0,2130.5"><title>Wall (id=160)</title></polygon><text class="tooltip" fill="#333" font-size="9px" x="8301.0" y="2120.0">Wall #160</text><polygon class="element" fill="#AFD8F8" opacity="0.8" points="8112.0,2127.0 8140.0,2128.0 8140.0,2558.0 8113.0,2557.5"><title>Wall (id=161)</title></polygon><text class="tooltip" fill="#333" font-size="9px" x="8126.25" y="2337.625">Wall #161</text><polygon class="element" fill="#AFD8F8" opacity="0.8" points="8089.5,1840.5 8405.5,1840.5 8409.5,1852.5 8421.5,1853.5 8421.5,1919.5 8099.5,1918.5 8102.5,1904.5 8092.5,1903.5"><title>Wall (id=163)</title></polygon><text class="tooltip" fill="#333" font-size="9px" x="8255.25" y="1874.125">Wall #163</text><polygon class="element" fill="#AFD8F8" opacity="0.8" points="8346.0,1229.5 8420.0,1229.5 8419.0,1454.5 8406.0,1453.5 8406.0,1464.5 8346.0,1464.5"><title>Wall (id=166)</title></polygon><text class="tooltip" fill="#333" font-size="9px" x="8390.5" y="1377.6666666666667">Wall #166</text><polygon class="element" fill="#AFD8F8" opacity="0.8" points="7476.0,1916.5 7514.0,1917.0 7514.0,4674.0 7476.0,4675.5"><title>Wall (id=167)</title></polygon><text class="tooltip" fill="#333" font-size="9px" x="7495.0" y="3290.75">Wall #167</text><polygon class="element" fill="#AFD8F8" opacity="0.8" points="8210.0,2922.0 8273.0,2922.0 8273.0,2933.0 8284.0,2934.0 8284.0,2997.0 8209.0,2996.0"><title>Wall (id=171)</title></polygon><text class="tooltip" fill="#333" font-size="9px" x="8255.5" y="2945.6666666666665">Wall #171</text><polygon class="element" fill="#AFD8F8" opacity="0.8" points="8209.5,2994.0 8248.0,2993.0 8245.5,3515.0 8221.5,3515.0 8219.5,3505.0 8208.5,3504.0"><title>Wall (id=172)</title></polygon><text class="tooltip" fill="#333" font-size="9px" x="8225.416666666666" y="3332.6666666666665">Wall #172</text><polygon class="element" fill="#AFD8F8" opacity="0.8" points="7857.0,3373.0 7871.0,3373.0 7871.0,3505.0 7857.0,3505.0"><title>Wall (id=174)</title></polygon><text class="tooltip" fill="#333" font-size="9px" x="7864.0" y="3434.0">Wall #174</text><polygon class="element" fill="#AFD8F8" opacity="0.8" points="8112.0,2959.0 8113.0,2745.0 8139.0,2746.0 8138.0,2959.0"><title>Wall (id=178)</title></polygon><text class="tooltip" fill="#333" font-size="9px" x="8125.5" y="2847.25">Wall #178</text><polygon class="element" fill="#F6BD0F" opacity="0.8" points="8341.0,1464.5 8421.0,1464.5 8420.0,1846.0 8342.0,1845.0"><title>Window (id=179)</title></polygon><text class="tooltip" fill="#333" font-size="9px" x="8381.0" y="1650.0">Window #179</text><polygon class="element" fill="#F6BD0F" opacity="0.8" points="7620.0,1837.5 8094.0,1837.5 8094.0,1920.5 7620.0,1920.5"><title>Window (id=180)</title></polygon><text class="tooltip" fill="#333" font-size="9px" x="7857.0" y="1874.0">Window #180</text><polygon class="element" fill="#F6BD0F" opacity="0.8" points="8713.0,2688.5 8857.0,2688.5 8857.0,2767.5 8713.0,2767.5"><title>Window (id=181)</title></polygon><text class="tooltip" fill="#333" font-size="9px" x="8785.0" y="2723.0">Window #181</text><polygon class="element" fill="#F6BD0F" opacity="0.8" points="8466.5,2838.5 8540.5,2838.5 8540.5,3001.5 8279.0,2998.0 8280.0,2922.0 8467.5,2921.5"><title>Window (id=182)</title></polygon><text class="tooltip" fill="#333" font-size="9px" x="8429.0" y="2915.0">Window #182</text><polygon class="element" fill="#8BBA00" opacity="0.8" points="8210.0,3514.0 8249.0,3513.0 8249.0,4194.0 8211.0,4193.0"><title>Parking (id=183)</title></polygon><text class="tooltip" fill="#333" font-size="9px" x="8229.75" y="3848.5">Parking #183</text><polygon class="element" fill="#FF8E46" opacity="0.8" points="8111.0,2744.5 8316.0,2746.5 8301.0,2623.5 8189.0,2566.5 8111.0,2555.5"><title>Door (id=184)</title></polygon><text class="tooltip" fill="#333" font-size="9px" x="8205.6" y="2642.3">Door #184</text><polygon class="element" fill="#FF8E46" opacity="0.8" points="8311.0,1930.5 8313.0,2119.5 8199.0,2113.5 8142.0,2056.5 8113.0,1925.5"><title>Door (id=185)</title></polygon><text class="tooltip" fill="#333" font-size="9px" x="8215.6" y="2024.1">Door #185</text><polygon class="element" fill="#008E8E" opacity="0.5" points="7520.0,1919.5 8295.0,1921.5 8296.0,2129.5 8113.0,2129.5 8116.0,2956.5 7520.0,2958.5"><title>Room (id=186)</title></polygon><text class="tooltip" fill="#333" font-size="9px" x="7976.666666666666" y="2330.8333333333335">Room #186</text><polygon class="element" fill="#008E8E" opacity="0.5" points="8142.5,2156.0 8410.5,2156.0 8414.5,2443.0 8511.5,2445.0 8509.5,2691.0 8466.5,2692.0 8469.5,2925.0 8211.5,2925.0 8209.5,2959.0 8139.5,2956.0"><title>Room (id=187)</title></polygon><text class="tooltip" fill="#333" font-size="9px" x="8348.5" y="2629.8">Room #187</text><polygon class="element" fill="#008E8E" opacity="0.5" points="8427.5,1247.0 8891.5,1244.0 8907.5,2691.0 8547.5,2691.0 8537.5,2127.0 8317.5,2124.0 8314.5,1917.0 8434.5,1921.0"><title>Room (id=188)</title></polygon><text class="tooltip" fill="#333" font-size="9px" x="8547.25" y="1990.25">Room #188</text><polygon class="element" fill="#AFD8F8" opacity="0.8" points="8632.0,1460.0 8674.0,1460.0 8674.0,1919.0 8632.0,1919.0"><title>Wall (id=189)</title></polygon><text class="tooltip" fill="#333" font-size="9px" x="8653.0" y="1684.5">Wall #189</text><polygon class="element" fill="#9B59B6" opacity="0.8" points="9801.919674845583,1302.722144532024 10519.91950620593,1302.722144532024 10519.91950620593,2738.7218072527185 9801.919674845583,2738.7218072527185"><title>Stair (id=190)</title></polygon><text class="tooltip" fill="#333" font-size="9px" x="10160.919590525757" y="2015.7219758923713">Stair #190</text><polygon class="element" fill="#FF8E46" opacity="0.8" points="7490.0,3275.75 7500.0,3275.75 7500.0,3315.75 7490.0,3315.75"><title>Door (id=191)</title></polygon><text class="tooltip" fill="#333" font-size="9px" x="7495.0" y="3290.75">Door #191</text><polygon class="element" fill="#FF8E46" opacity="0.8" points="7490.0,3275.75 7500.0,3275.75 7500.0,3315.75 7490.0,3315.75"><title>Door (id=192)</title></polygon><text class="tooltip" fill="#333" font-size="9px" x="7495.0" y="3290.75">Door #192</text><polygon class="element" fill="#FF8E46" opacity="0.8" points="7490.0,3275.75 7500.0,3275.75 7500.0,3315.75 7490.0,3315.75"><title>Door (id=193)</title></polygon><text class="tooltip" fill="#333" font-size="9px" x="7495.0" y="3290.75">Door #193</text><polygon class="problem" fill="#9B59B6" opacity="0.6" points="9801.919674845583,1302.722144532024 10519.91950620593,1302.722144532024 10519.91950620593,2738.7218072527185 9801.919674845583,2738.7218072527185" /></g><text fill="#27AE60" font-size="12px" font-weight="bold" x="50.0" y="7453.0">Stair: 0.72</text><text fill="#27AE60" font-size="12px" font-weight="bold" x="2545.2400000000002" y="7453.0">Wall: 0.70</text><text fill="#27AE60" font-size="12px" font-weight="bold" x="5040.4800000000005" y="7453.0">Door: 1.00</text><text fill="#E74C3C" font-size="12px" font-weight="bold" x="7535.720000000001" y="7453.0">Egress: 0.00</text><text fill="#E74C3C" font-size="12px" font-weight="bold" x="10030.960000000001" y="7453.0">Overall: 0.00</text></svg>