<?xml version="1.0" encoding="utf-8" ?>
<svg baseProfile="full" height="3608.0px" version="1.1" width="5453.8px" xmlns="http://www.w3.org/2000/svg" xmlns:ev="http://www.w3.org/2001/xml-events" xmlns:xlink="http://www.w3.org/1999/xlink"><defs><style type="text/css"><![CDATA[
        .element:hover { stroke: #E74C3C; stroke-width: 3; cursor: pointer; }
        .tooltip { visibility: hidden; font-size: 12px; }
        .element:hover + .tooltip { visibility: visible; }
        @keyframes pulse { 0%,100% { opacity: 0.3; } 50% { opacity: 1; } }
        .problem { animation: pulse 1.5s infinite; stroke: red; stroke-width: 2; }
    ]]></style></defs><text fill="#2C3E50" font-size="18px" font-weight="bold" text-anchor="middle" x="2726.9" y="25">Multi-Story Floor Plan Coherence</text><text font-size="14px" font-weight="bold" text-anchor="middle" x="1249.5" y="50">Floor 1 (Lower)</text><g id="floor_Floor_1__Lower_"><polygon class="element" fill="#AFD8F8" opacity="0.8" points="1515.0,1331.0 1525.0,1328.0 1523.0,1447.0 1512.0,1447.0"><title>Wall (id=0)</title></polygon><text class="tooltip" fill="#333" font-size="9px" x="1518.75" y="1383.25">Wall #0</text><polygon class="element" fill="#F6BD0F" opacity="0.8" points="923.0,1101.0 878.0,1023.0 829.0,1020.0 829.0,1116.0 875.0,1117.0 905.0,1118.0"><title>Window (id=1)</title></polygon><text class="tooltip" fill="#333" font-size="9px" x="873.1666666666666" y="1077.5">Window #1</text><polygon class="element" fill="#F6BD0F" opacity="0.8" points="758.0,1197.0 790.0,1233.0 637.0,1388.0 605.0,1349.0"><title>Window (id=2)</title></polygon><text class="tooltip" fill="#333" font-size="9px" x="697.5" y="1286.75">Window #2</text><polygon class="element" fill="#F6BD0F" opacity="0.8" points="1510.0,1049.0 1449.0,1017.0 1446.0,967.0 1519.0,965.0 1525.0,1015.0"><title>Window (id=3)</title></polygon><text class="tooltip" fill="#333" font-size="9px" x="1489.8" y="997.6">Window #3</text><polygon class="element" fill="#FF8E46" opacity="0.8" points="1518.0,1452.0 1661.0,1454.0 1667.0,1554.0 1619.0,1557.0 1560.0,1542.0 1524.0,1491.0"><title>Door (id=4)</title></polygon><text class="tooltip" fill="#333" font-size="9px" x="1591.5" y="1503.3333333333333">Door #4</text><polygon class="element" fill="#F6BD0F" opacity="0.8" points="1696.0,1763.0 1745.0,1763.0 1749.0,1941.0 1695.0,1943.0"><title>Window (id=5)</title></polygon><text class="tooltip" fill="#333" font-size="9px" x="1721.25" y="1847.5">Window #5</text><polygon class="element" fill="#F6BD0F" opacity="0.8" points="1442.0,2092.0 1444.0,2142.0 1619.0,2141.0 1619.0,2089.0"><title>Window (id=6)</title></polygon><text class="tooltip" fill="#333" font-size="9px" x="1531.0" y="2111.0">Window #6</text><polygon class="element" fill="#FF8E46" opacity="0.8" points="1249.0,1884.0 1250.0,2020.0 1160.0,2022.0 1152.0,1975.0 1166.0,1917.0 1212.0,1884.0"><title>Door (id=7)</title></polygon><text class="tooltip" fill="#333" font-size="9px" x="1198.1666666666667" y="1945.3333333333333">Door #7</text><polygon class="element" fill="#F6BD0F" opacity="0.8" points="765.0,1702.0 800.0,1666.0 596.0,1466.0 567.0,1502.0"><title>Window (id=8)</title></polygon><text class="tooltip" fill="#333" font-size="9px" x="682.0" y="1579.0">Window #8</text><polygon class="element" fill="#FF8E46" opacity="0.8" points="1538.0,1563.0 1623.0,1610.0 1528.0,1609.0 1527.0,1583.0"><title>Door (id=9)</title></polygon><text class="tooltip" fill="#333" font-size="9px" x="1554.0" y="1586.25">Door #9</text><polygon class="element" fill="#FF8E46" opacity="0.8" points="1398.0,1351.0 1399.0,1442.0 1307.0,1446.0 1311.0,1396.0 1346.0,1361.0"><title>Door (id=10)</title></polygon><text class="tooltip" fill="#333" font-size="9px" x="1352.2" y="1394.2">Door #10</text><polygon class="element" fill="#008E8E" opacity="0.5" points="1285.0,1694.0 1507.0,1695.0 1513.0,1722.0 1696.0,1724.0 1696.0,2088.0 1309.0,2088.0 1309.0,1972.0 1286.0,1975.0"><title>Room (id=11)</title></polygon><text class="tooltip" fill="#333" font-size="9px" x="1450.125" y="1864.75">Room #11</text><polygon class="element" fill="#008E8E" opacity="0.5" points="875.0,1153.0 581.0,1448.0 1108.0,1972.0 1281.0,1972.0 1277.0,1450.0 1168.0,1453.0"><title>Room (id=12)</title></polygon><text class="tooltip" fill="#333" font-size="9px" x="1048.3333333333333" y="1569.6666666666667">Room #12</text><polygon class="element" fill="#008E8E" opacity="0.5" points="1296.5,1447.5 1294.5,1681.5 1514.5,1676.5 1509.5,1602.5 1614.5,1601.5 1617.5,1454.5"><title>Room (id=13)</title></polygon><text class="tooltip" fill="#333" font-size="9px" x="1474.5" y="1572.3333333333333">Room #13</text><polygon class="element" fill="#FF8E46" opacity="0.8" points="1428.0,1488.0 1513.0,1440.0 1409.0,1439.0"><title>Door (id=14)</title></polygon><text class="tooltip" fill="#333" font-size="9px" x="1450.0" y="1450.6666666666667">Door #14</text><polygon class="element" fill="#008E8E" opacity="0.5" points="879.0,1020.0 880.0,1138.0 1172.0,1432.0 1261.0,1434.0 1259.0,1409.0 1294.0,1411.0 1294.0,1430.0 1395.0,1432.0 1398.0,1018.0"><title>Room (id=15)</title></polygon><text class="tooltip" fill="#333" font-size="9px" x="1203.5555555555557" y="1297.6666666666667">Room #15</text><polygon class="element" fill="#008E8E" opacity="0.5" points="1524.0,1615.0 1526.0,1703.0 1693.0,1708.0 1692.0,1618.0"><title>Room (id=16)</title></polygon><text class="tooltip" fill="#333" font-size="9px" x="1608.75" y="1656.0">Room #16</text><polygon class="element" fill="#FF8E46" opacity="0.8" points="1500.0,1217.0 1410.0,1217.0 1403.0,1120.0 1460.0,1132.0 1491.0,1167.0"><title>Door (id=17)</title></polygon><text class="tooltip" fill="#333" font-size="9px" x="1452.8" y="1165.6">Door #17</text><polygon class="element" fill="#AFD8F8" opacity="0.8" points="515.0,1446.0 569.0,1504.0 597.0,1465.0 547.0,1415.0"><title>Wall (id=18)</title></polygon><text class="tooltip" fill="#333" font-size="9px" x="557.0" y="1452.5">Wall #18</text><polygon class="element" fill="#AFD8F8" opacity="0.8" points="607.0,1359.0 544.0,1418.0 581.0,1449.0 636.0,1388.0"><title>Wall (id=19)</title></polygon><text class="tooltip" fill="#333" font-size="9px" x="592.0" y="1398.5">Wall #19</text><polygon class="element" fill="#AFD8F8" opacity="0.8" points="764.0,1204.0 793.0,1229.0 873.0,1154.0 834.0,1128.0"><title>Wall (id=20)</title></polygon><text class="tooltip" fill="#333" font-size="9px" x="816.0" y="1173.75">Wall #20</text><polygon class="element" fill="#AFD8F8" opacity="0.8" points="829.0,1150.0 879.0,1151.0 874.0,1118.0 829.0,1113.0"><title>Wall (id=21)</title></polygon><text class="tooltip" fill="#333" font-size="9px" x="852.75" y="1128.0">Wall #21</text><polygon class="element" fill="#AFD8F8" opacity="0.8" points="874.0,1151.0 1170.0,1450.0 1172.0,1436.0 881.0,1144.0"><title>Wall (id=22)</title></polygon><text class="tooltip" fill="#333" font-size="9px" x="1024.25" y="1290.25">Wall #22</text><polygon class="element" fill="#AFD8F8" opacity="0.8" points="1172.0,1450.0 1315.0,1449.0 1313.0,1439.0 1171.0,1439.0"><title>Wall (id=23)</title></polygon><text class="tooltip" fill="#333" font-size="9px" x="1242.75" y="1439.25">Wall #23</text><polygon class="element" fill="#AFD8F8" opacity="0.8" points="1263.0,1415.0 1295.0,1417.0 1295.0,1440.0 1268.0,1442.0"><title>Wall (id=24)</title></polygon><text class="tooltip" fill="#333" font-size="9px" x="1280.25" y="1423.5">Wall #24</text><polygon class="element" fill="#AFD8F8" opacity="0.8" points="1088.0,2019.0 771.0,1701.0 800.0,1673.0 1108.0,1975.0"><title>Wall (id=25)</title></polygon><text class="tooltip" fill="#333" font-size="9px" x="941.75" y="1837.0">Wall #25</text><polygon class="element" fill="#AFD8F8" opacity="0.8" points="1159.0,2026.0 1087.0,2024.0 1109.0,1974.0 1151.0,1978.0"><title>Wall (id=26)</title></polygon><text class="tooltip" fill="#333" font-size="9px" x="1126.5" y="1995.5">Wall #26</text><polygon class="element" fill="#AFD8F8" opacity="0.8" points="847.0,2115.0 870.0,2115.0 870.0,2138.0 849.0,2136.0"><title>Wall (id=27)</title></polygon><text class="tooltip" fill="#333" font-size="9px" x="859.0" y="2121.0">Wall #27</text><polygon class="element" fill="#AFD8F8" opacity="0.8" points="1251.0,2021.0 1308.0,2019.0 1308.0,1977.0 1252.0,1977.0"><title>Wall (id=28)</title></polygon><text class="tooltip" fill="#333" font-size="9px" x="1279.75" y="1993.5">Wall #28</text><polygon class="element" fill="#AFD8F8" opacity="0.8" points="1268.0,2136.0 1266.0,2021.0 1307.0,2018.0 1312.0,2135.0"><title>Wall (id=29)</title></polygon><text class="tooltip" fill="#333" font-size="9px" x="1288.25" y="2072.5">Wall #29</text><polygon class="element" fill="#AFD8F8" opacity="0.8" points="1442.0,2140.0 1265.0,2144.0 1264.0,2095.0 1442.0,2095.0"><title>Wall (id=30)</title></polygon><text class="tooltip" fill="#333" font-size="9px" x="1353.25" y="2113.5">Wall #30</text><polygon class="element" fill="#AFD8F8" opacity="0.8" points="1738.0,2138.0 1620.0,2139.0 1617.0,2095.0 1742.0,2094.0"><title>Wall (id=31)</title></polygon><text class="tooltip" fill="#333" font-size="9px" x="1679.25" y="2111.5">Wall #31</text><polygon class="element" fill="#AFD8F8" opacity="0.8" points="1742.0,1947.0 1695.0,1945.0 1698.0,2094.0 1739.0,2094.0"><title>Wall (id=32)</title></polygon><text class="tooltip" fill="#333" font-size="9px" x="1718.5" y="2015.0">Wall #32</text><polygon class="element" fill="#AFD8F8" opacity="0.8" points="1739.0,1613.0 1692.0,1614.0 1695.0,1764.0 1746.0,1761.0"><title>Wall (id=33)</title></polygon><text class="tooltip" fill="#333" font-size="9px" x="1718.0" y="1683.0">Wall #33</text><polygon class="element" fill="#AFD8F8" opacity="0.8" points="1694.0,1713.0 1522.0,1710.0 1524.0,1720.0 1692.0,1723.0"><title>Wall (id=34)</title></polygon><text class="tooltip" fill="#333" font-size="9px" x="1608.0" y="1711.5">Wall #34</text><polygon class="element" fill="#AFD8F8" opacity="0.8" points="1512.5,1692.5 1283.5,1692.5 1283.5,1678.5 1511.5,1681.5"><title>Wall (id=35)</title></polygon><text class="tooltip" fill="#333" font-size="9px" x="1397.75" y="1681.25">Wall #35</text><polygon class="element" fill="#AFD8F8" opacity="0.8" points="1510.0,1605.0 1512.0,1723.0 1525.0,1722.0 1524.0,1609.0"><title>Wall (id=36)</title></polygon><text class="tooltip" fill="#333" font-size="9px" x="1517.75" y="1659.75">Wall #36</text><polygon class="element" fill="#AFD8F8" opacity="0.8" points="1742.0,1569.0 1742.0,1614.0 1622.0,1614.0 1623.0,1573.0"><title>Wall (id=37)</title></polygon><text class="tooltip" fill="#333" font-size="9px" x="1682.25" y="1587.5">Wall #37</text><polygon class="element" fill="#AFD8F8" opacity="0.8" points="1667.0,1555.0 1667.0,1613.0 1627.0,1613.0 1620.0,1556.0"><title>Wall (id=38)</title></polygon><text class="tooltip" fill="#333" font-size="9px" x="1645.25" y="1579.25">Wall #38</text><polygon class="element" fill="#AFD8F8" opacity="0.8" points="1661.0,1009.0 1664.0,1452.0 1621.0,1449.0 1617.0,1009.0"><title>Wall (id=39)</title></polygon><text class="tooltip" fill="#333" font-size="9px" x="1640.75" y="1224.75">Wall #39</text><polygon class="element" fill="#AFD8F8" opacity="0.8" points="1615.0,1232.0 1409.0,1230.0 1410.0,1216.0 1615.0,1218.0"><title>Wall (id=40)</title></polygon><text class="tooltip" fill="#333" font-size="9px" x="1512.25" y="1219.0">Wall #40</text><polygon class="element" fill="#AFD8F8" opacity="0.8" points="1409.5,1446.5 1414.5,1222.5 1402.5,1220.5 1400.5,1443.5"><title>Wall (id=41)</title></polygon><text class="tooltip" fill="#333" font-size="9px" x="1406.75" y="1328.25">Wall #41</text><polygon class="element" fill="#AFD8F8" opacity="0.8" points="1664.0,975.0 1519.0,975.0 1524.0,1016.0 1661.0,1019.0"><title>Wall (id=42)</title></polygon><text class="tooltip" fill="#333" font-size="9px" x="1592.0" y="991.25">Wall #42</text><polygon class="element" fill="#008E8E" opacity="0.5" points="1614.0,1210.0 1415.0,1207.0 1412.0,1021.0 1612.0,1025.0"><title>Room (id=43)</title></polygon><text class="tooltip" fill="#333" font-size="9px" x="1513.25" y="1110.75">Room #43</text><polygon class="element" fill="#AFD8F8" opacity="0.8" points="834.0,975.0 1445.0,975.0 1447.0,1020.0 838.0,1018.0"><title>Wall (id=44)</title></polygon><text class="tooltip" fill="#333" font-size="9px" x="1141.0" y="992.0">Wall #44</text><polygon class="element" fill="#AFD8F8" opacity="0.8" points="1398.0,1016.0 1400.0,1119.0 1413.0,1118.0 1412.0,1021.0"><title>Wall (id=45)</title></polygon><text class="tooltip" fill="#333" font-size="9px" x="1405.75" y="1063.5">Wall #45</text><polygon class="element" fill="#D64646" opacity="0.8" points="1274.0,1448.0 1291.0,1448.0 1291.0,1600.0 1274.0,1600.0"><title>Separation (id=46)</title></polygon><text class="tooltip" fill="#333" font-size="9px" x="1282.5" y="1519.0">Separation #46</text><polygon class="element" fill="#D64646" opacity="0.8" points="1277.0,1691.0 1289.0,1691.0 1289.0,1972.0 1277.0,1972.0"><title>Separation (id=47)</title></polygon><text class="tooltip" fill="#333" font-size="9px" x="1283.0" y="1826.5">Separation #47</text><polygon class="element" fill="#AFD8F8" opacity="0.8" points="1280.0,1604.0 1293.0,1604.0 1293.0,1686.0 1280.0,1686.0"><title>Wall (id=48)</title></polygon><text class="tooltip" fill="#333" font-size="9px" x="1286.5" y="1640.0">Wall #48</text><polygon class="element" fill="#D64646" opacity="0.8" points="1519.0,1438.0 1621.0,1438.0 1621.0,1453.0 1519.0,1453.0"><title>Separation (id=49)</title></polygon><text class="tooltip" fill="#333" font-size="9px" x="1570.0" y="1440.5">Separation #49</text><polygon class="element" fill="#008E8E" opacity="0.5" points="1412.0,1231.0 1616.0,1231.0 1616.0,1433.0 1412.0,1433.0"><title>Room (id=50)</title></polygon><text class="tooltip" fill="#333" font-size="9px" x="1514.0" y="1327.0">Room #50</text><polygon class="element" fill="#9B59B6" opacity="0.8" points="603.1522891909489,1173.7351879714324 996.909538223348,1173.7351879714324 996.909538223348,1961.2496860362307 603.1522891909489,1961.2496860362307"><title>Stair (id=51)</title></polygon><text class="tooltip" fill="#333" font-size="9px" x="800.0309137071484" y="1562.4924370038316">Stair #51</text><polygon class="problem" fill="#9B59B6" opacity="0.6" points="603.1522891909489,1173.7351879714324 996.909538223348,1173.7351879714324 996.909538223348,1961.2496860362307 603.1522891909489,1961.2496860362307" /></g><text font-size="14px" font-weight="bold" text-anchor="middle" x="3748.5" y="50">Floor 2 (Upper)</text><g id="floor_Floor_2__Upper_"><polygon class="element" fill="#AFD8F8" opacity="0.8" points="4014.0,1331.0 4024.0,1328.0 4022.0,1447.0 4011.0,1447.0"><title>Wall (id=0)</title></polygon><text class="tooltip" fill="#333" font-size="9px" x="4017.75" y="1383.25">Wall #0</text><polygon class="element" fill="#F6BD0F" opacity="0.8" points="3422.0,1101.0 3377.0,1023.0 3328.0,1020.0 3328.0,1116.0 3374.0,1117.0 3404.0,1118.0"><title>Window (id=1)</title></polygon><text class="tooltip" fill="#333" font-size="9px" x="3372.1666666666665" y="1077.5">Window #1</text><polygon class="element" fill="#F6BD0F" opacity="0.8" points="3257.0,1197.0 3289.0,1233.0 3136.0,1388.0 3104.0,1349.0"><title>Window (id=2)</title></polygon><text class="tooltip" fill="#333" font-size="9px" x="3196.5" y="1286.75">Window #2</text><polygon class="element" fill="#F6BD0F" opacity="0.8" points="4009.0,1049.0 3948.0,1017.0 3945.0,967.0 4018.0,965.0 4024.0,1015.0"><title>Window (id=3)</title></polygon><text class="tooltip" fill="#333" font-size="9px" x="3988.8" y="997.6">Window #3</text><polygon class="element" fill="#FF8E46" opacity="0.8" points="4041.7647526473547,1470.9806947728025 4136.5829889933175,1472.3068239524662 4140.561376532309,1538.613282935657 4108.734276220377,1540.6024767051529 4069.613465420295,1530.6565078576743 4045.743140186346,1496.8402137762469"><title>Door (id=4)</title></polygon><text class="tooltip" fill="#333" font-size="9px" x="4090.5" y="1503.3333333333333">Door #4</text><polygon class="element" fill="#F6BD0F" opacity="0.8" points="4195.0,1763.0 4244.0,1763.0 4248.0,1941.0 4194.0,1943.0"><title>Window (id=5)</title></polygon><text class="tooltip" fill="#333" font-size="9px" x="4220.25" y="1847.5">Window #5</text><polygon class="element" fill="#F6BD0F" opacity="0.8" points="3941.0,2092.0 3943.0,2142.0 4118.0,2141.0 4118.0,2089.0"><title>Window (id=6)</title></polygon><text class="tooltip" fill="#333" font-size="9px" x="4030.0" y="2111.0">Window #6</text><polygon class="element" fill="#FF8E46" opacity="0.8" points="3748.0,1884.0 3749.0,2020.0 3659.0,2022.0 3651.0,1975.0 3665.0,1917.0 3711.0,1884.0"><title>Door (id=7)</title></polygon><text class="tooltip" fill="#333" font-size="9px" x="3697.166666666667" y="1945.3333333333333">Door #7</text><polygon class="element" fill="#F6BD0F" opacity="0.8" points="3264.0,1702.0 3299.0,1666.0 3095.0,1466.0 3066.0,1502.0"><title>Window (id=8)</title></polygon><text class="tooltip" fill="#333" font-size="9px" x="3181.0" y="1579.0">Window #8</text><polygon class="element" fill="#FF8E46" opacity="0.8" points="4037.0,1563.0 4122.0,1610.0 4027.0,1609.0 4026.0,1583.0"><title>Door (id=9)</title></polygon><text class="tooltip" fill="#333" font-size="9px" x="4053.0" y="1586.25">Door #9</text><polygon class="element" fill="#FF8E46" opacity="0.8" points="3876.2114961860043,1372.8778577256464 3876.7575987228165,1422.5731885755672 3826.5161653360833,1424.7575987228165 3828.7005754833326,1397.4524718822006 3847.8141642717637,1378.3388830937695"><title>Door (id=10)</title></polygon><text class="tooltip" fill="#333" font-size="9px" x="3851.2" y="1394.2">Door #10</text><polygon class="element" fill="#008E8E" opacity="0.5" points="3784.0,1694.0 4006.0,1695.0 4012.0,1722.0 4195.0,1724.0 4195.0,2088.0 3808.0,2088.0 3808.0,1972.0 3785.0,1975.0"><title>Room (id=11)</title></polygon><text class="tooltip" fill="#333" font-size="9px" x="3949.125" y="1864.75">Room #11</text><polygon class="element" fill="#008E8E" opacity="0.5" points="3374.0,1153.0 3080.0,1448.0 3607.0,1972.0 3780.0,1972.0 3776.0,1450.0 3667.0,1453.0"><title>Room (id=12)</title></polygon><text class="tooltip" fill="#333" font-size="9px" x="3547.333333333333" y="1569.6666666666667">Room #12</text><polygon class="element" fill="#008E8E" opacity="0.5" points="3795.5,1447.5 3793.5,1681.5 4013.5,1676.5 4008.5,1602.5 4113.5,1601.5 4116.5,1454.5"><title>Room (id=13)</title></polygon><text class="tooltip" fill="#333" font-size="9px" x="3973.5" y="1572.3333333333333">Room #13</text><polygon class="element" fill="#FF8E46" opacity="0.8" points="3927.0,1488.0 4012.0,1440.0 3908.0,1439.0"><title>Door (id=14)</title></polygon><text class="tooltip" fill="#333" font-size="9px" x="3949.0" y="1450.6666666666667">Door #14</text><polygon class="element" fill="#008E8E" opacity="0.5" points="3378.0,1020.0 3379.0,1138.0 3671.0,1432.0 3760.0,1434.0 3758.0,1409.0 3793.0,1411.0 3793.0,1430.0 3894.0,1432.0 3897.0,1018.0"><title>Room (id=15)</title></polygon><text class="tooltip" fill="#333" font-size="9px" x="3702.5555555555557" y="1297.6666666666667">Room #15</text><polygon class="element" fill="#008E8E" opacity="0.5" points="4023.0,1615.0 4025.0,1703.0 4192.0,1708.0 4191.0,1618.0"><title>Room (id=16)</title></polygon><text class="tooltip" fill="#333" font-size="9px" x="4107.75" y="1656.0">Room #16</text><polygon class="element" fill="#FF8E46" opacity="0.8" points="3999.0,1217.0 3909.0,1217.0 3902.0,1120.0 3959.0,1132.0 3990.0,1167.0"><title>Door (id=17)</title></polygon><text class="tooltip" fill="#333" font-size="9px" x="3951.8" y="1165.6">Door #17</text><polygon class="element" fill="#AFD8F8" opacity="0.8" points="3014.0,1446.0 3068.0,1504.0 3096.0,1465.0 3046.0,1415.0"><title>Wall (id=18)</title></polygon><text class="tooltip" fill="#333" font-size="9px" x="3056.0" y="1452.5">Wall #18</text><polygon class="element" fill="#AFD8F8" opacity="0.8" points="3106.0,1359.0 3043.0,1418.0 3080.0,1449.0 3135.0,1388.0"><title>Wall (id=19)</title></polygon><text class="tooltip" fill="#333" font-size="9px" x="3091.0" y="1398.5">Wall #19</text><polygon class="element" fill="#AFD8F8" opacity="0.8" points="3328.0,1150.0 3378.0,1151.0 3373.0,1118.0 3328.0,1113.0"><title>Wall (id=21)</title></polygon><text class="tooltip" fill="#333" font-size="9px" x="3351.75" y="1128.0">Wall #21</text><polygon class="element" fill="#AFD8F8" opacity="0.8" points="3373.0,1151.0 3669.0,1450.0 3671.0,1436.0 3380.0,1144.0"><title>Wall (id=22)</title></polygon><text class="tooltip" fill="#333" font-size="9px" x="3523.25" y="1290.25">Wall #22</text><polygon class="element" fill="#AFD8F8" opacity="0.8" points="3671.0,1450.0 3814.0,1449.0 3812.0,1439.0 3670.0,1439.0"><title>Wall (id=23)</title></polygon><text class="tooltip" fill="#333" font-size="9px" x="3741.75" y="1439.25">Wall #23</text><polygon class="element" fill="#AFD8F8" opacity="0.8" points="3658.0,2026.0 3586.0,2024.0 3608.0,1974.0 3650.0,1978.0"><title>Wall (id=26)</title></polygon><text class="tooltip" fill="#333" font-size="9px" x="3625.5" y="1995.5">Wall #26</text><polygon class="element" fill="#AFD8F8" opacity="0.8" points="3346.0,2115.0 3369.0,2115.0 3369.0,2138.0 3348.0,2136.0"><title>Wall (id=27)</title></polygon><text class="tooltip" fill="#333" font-size="9px" x="3358.0" y="2121.0">Wall #27</text><polygon class="element" fill="#AFD8F8" opacity="0.8" points="3750.0,2021.0 3807.0,2019.0 3807.0,1977.0 3751.0,1977.0"><title>Wall (id=28)</title></polygon><text class="tooltip" fill="#333" font-size="9px" x="3778.75" y="1993.5">Wall #28</text><polygon class="element" fill="#AFD8F8" opacity="0.8" points="3767.0,2136.0 3765.0,2021.0 3806.0,2018.0 3811.0,2135.0"><title>Wall (id=29)</title></polygon><text class="tooltip" fill="#333" font-size="9px" x="3787.25" y="2072.5">Wall #29</text><polygon class="element" fill="#AFD8F8" opacity="0.8" points="3941.0,2140.0 3764.0,2144.0 3763.0,2095.0 3941.0,2095.0"><title>Wall (id=30)</title></polygon><text class="tooltip" fill="#333" font-size="9px" x="3852.25" y="2113.5">Wall #30</text><polygon class="element" fill="#AFD8F8" opacity="0.8" points="4237.0,2138.0 4119.0,2139.0 4116.0,2095.0 4241.0,2094.0"><title>Wall (id=31)</title></polygon><text class="tooltip" fill="#333" font-size="9px" x="4178.25" y="2111.5">Wall #31</text><polygon class="element" fill="#AFD8F8" opacity="0.8" points="4241.0,1947.0 4194.0,1945.0 4197.0,2094.0 4238.0,2094.0"><title>Wall (id=32)</title></polygon><text class="tooltip" fill="#333" font-size="9px" x="4217.5" y="2015.0">Wall #32</text><polygon class="element" fill="#AFD8F8" opacity="0.8" points="4238.0,1613.0 4191.0,1614.0 4194.0,1764.0 4245.0,1761.0"><title>Wall (id=33)</title></polygon><text class="tooltip" fill="#333" font-size="9px" x="4217.0" y="1683.0">Wall #33</text><polygon class="element" fill="#AFD8F8" opacity="0.8" points="4193.0,1713.0 4021.0,1710.0 4023.0,1720.0 4191.0,1723.0"><title>Wall (id=34)</title></polygon><text class="tooltip" fill="#333" font-size="9px" x="4107.0" y="1711.5">Wall #34</text><polygon class="element" fill="#AFD8F8" opacity="0.8" points="4011.5,1692.5 3782.5,1692.5 3782.5,1678.5 4010.5,1681.5"><title>Wall (id=35)</title></polygon><text class="tooltip" fill="#333" font-size="9px" x="3896.75" y="1681.25">Wall #35</text><polygon class="element" fill="#AFD8F8" opacity="0.8" points="4009.0,1605.0 4011.0,1723.0 4024.0,1722.0 4023.0,1609.0"><title>Wall (id=36)</title></polygon><text class="tooltip" fill="#333" font-size="9px" x="4016.75" y="1659.75">Wall #36</text><polygon class="element" fill="#AFD8F8" opacity="0.8" points="4241.0,1569.0 4241.0,1614.0 4121.0,1614.0 4122.0,1573.0"><title>Wall (id=37)</title></polygon><text class="tooltip" fill="#333" font-size="9px" x="4181.25" y="1587.5">Wall #37</text><polygon class="element" fill="#AFD8F8" opacity="0.8" points="4160.0,1009.0 4163.0,1452.0 4120.0,1449.0 4116.0,1009.0"><title>Wall (id=39)</title></polygon><text class="tooltip" fill="#333" font-size="9px" x="4139.75" y="1224.75">Wall #39</text><polygon class="element" fill="#AFD8F8" opacity="0.8" points="4114.0,1232.0 3908.0,1230.0 3909.0,1216.0 4114.0,1218.0"><title>Wall (id=40)</title></polygon><text class="tooltip" fill="#333" font-size="9px" x="4011.25" y="1219.0">Wall #40</text><polygon class="element" fill="#AFD8F8" opacity="0.8" points="3908.5,1446.5 3913.5,1222.5 3901.5,1220.5 3899.5,1443.5"><title>Wall (id=41)</title></polygon><text class="tooltip" fill="#333" font-size="9px" x="3905.75" y="1328.25">Wall #41</text><polygon class="element" fill="#008E8E" opacity="0.5" points="4113.0,1210.0 3914.0,1207.0 3911.0,1021.0 4111.0,1025.0"><title>Room (id=43)</title></polygon><text class="tooltip" fill="#333" font-size="9px" x="4012.25" y="1110.75">Room #43</text><polygon class="element" fill="#D64646" opacity="0.8" points="3773.0,1448.0 3790.0,1448.0 3790.0,1600.0 3773.0,1600.0"><title>Separation (id=46)</title></polygon><text class="tooltip" fill="#333" font-size="9px" x="3781.5" y="1519.0">Separation #46</text><polygon class="element" fill="#D64646" opacity="0.8" points="3776.0,1691.0 3788.0,1691.0 3788.0,1972.0 3776.0,1972.0"><title>Separation (id=47)</title></polygon><text class="tooltip" fill="#333" font-size="9px" x="3782.0" y="1826.5">Separation #47</text><polygon class="element" fill="#AFD8F8" opacity="0.8" points="3779.0,1604.0 3792.0,1604.0 3792.0,1686.0 3779.0,1686.0"><title>Wall (id=48)</title></polygon><text class="tooltip" fill="#333" font-size="9px" x="3785.5" y="1640.0">Wall #48</text><polygon class="element" fill="#D64646" opacity="0.8" points="4018.0,1438.0 4120.0,1438.0 4120.0,1453.0 4018.0,1453.0"><title>Separation (id=49)</title></polygon><text class="tooltip" fill="#333" font-size="9px" x="4069.0" y="1440.5">Separation #49</text><polygon class="element" fill="#008E8E" opacity="0.5" points="3911.0,1231.0 4115.0,1231.0 4115.0,1433.0 3911.0,1433.0"><title>Room (id=50)</title></polygon><text class="tooltip" fill="#333" font-size="9px" x="4013.0" y="1327.0">Room #50</text><polygon class="element" fill="#9B59B6" opacity="0.8" points="3109.136242844779,1166.7512343176018 3502.8934918771783,1166.7512343176018 3502.8934918771783,1954.2657323824 3109.136242844779,1954.2657323824"><title>Stair (id=51)</title></polygon><text class="tooltip" fill="#333" font-size="9px" x="3306.014867360979" y="1555.508483350001">Stair #51</text><polygon class="problem" fill="#9B59B6" opacity="0.6" points="3109.136242844779,1166.7512343176018 3502.8934918771783,1166.7512343176018 3502.8934918771783,1954.2657323824 3109.136242844779,1954.2657323824" /></g><text fill="#27AE60" font-size="12px" font-weight="bold" x="50.0" y="3578.0">Stair: 0.59</text><text fill="#27AE60" font-size="12px" font-weight="bold" x="1140.76" y="3578.0">Wall: 0.78</text><text fill="#27AE60" font-size="12px" font-weight="bold" x="2231.52" y="3578.0">Door: 0.85</text><text fill="#27AE60" font-size="12px" font-weight="bold" x="3322.2799999999997" y="3578.0">Egress: 1.00</text><text fill="#E74C3C" font-size="12px" font-weight="bold" x="4413.04" y="3578.0">Overall: 0.02</text></svg>