<?xml version="1.0" encoding="utf-8" ?>
<svg baseProfile="full" height="8539.199999999999px" version="1.1" width="5949.599999999999px" xmlns="http://www.w3.org/2000/svg" xmlns:ev="http://www.w3.org/2001/xml-events" xmlns:xlink="http://www.w3.org/1999/xlink"><defs><style type="text/css"><![CDATA[
        .el:hover { stroke: #E74C3C; stroke-width: 3; cursor: pointer; }
        .tip { visibility: hidden; font-size: 11px; fill: #333; }
        .el:hover ~ .tip { visibility: visible; }
        @keyframes pulse { 0%,100% { opacity: 0.3; } 50% { opacity: 1; } }
        .missing { animation: pulse 1.5s infinite; fill: red; opacity: 0.15;
                   stroke: red; stroke-width: 2; stroke-dasharray: 8,4; }
    ]]></style></defs><text fill="#2C3E50" font-size="20px" font-weight="bold" text-anchor="middle" x="2974.7999999999997" y="30">Multi-Story Coherence: Before vs After Refinement</text><text fill="#E74C3C" font-size="16px" font-weight="bold" text-anchor="middle" x="1239.5" y="55">BEFORE (Broken)</text><g id="f_Upper_Floor__Broken_"><text font-size="13px" font-weight="bold" text-anchor="middle" x="1249.5" y="80">Upper Floor (Broken)</text><polygon class="missing" points="910.0,1365.0 1006.0,1365.0 1006.0,1372.0 910.0,1372.0" /><polygon class="missing" points="1282.0,1737.0 1516.0,1738.0 1516.0,1744.0 1282.0,1744.0" /><polygon class="missing" points="1977.0,798.0 2001.0,798.0 2002.0,863.0 1977.0,859.0" /><polygon class="missing" points="1481.0,2150.0 1480.0,2158.0 1273.0,2158.0 1274.0,2150.0" /><polygon class="missing" points="1528.0,2192.0 1528.0,2151.0 1481.0,2150.0 1482.0,2192.0" /><polygon class="missing" points="1012.0,2512.0 1012.0,2552.0 1482.0,2553.0 1480.0,2510.0 1106.0,2511.0 1043.0,2511.0" /><polygon class="missing" points="1517.0,1690.0 1559.0,1691.0 1559.0,1744.0 1517.0,1744.0" /><polygon class="missing" points="1729.0,1529.0 1728.0,1574.0 1559.0,1573.0 1559.0,1529.0" /><polygon class="missing" points="1009.0,1475.0 1016.0,1476.0 1016.0,1364.0 1008.0,1364.0" /><polygon class="missing" points="1652.0,2528.0 1678.0,2529.0 1676.0,2551.0 1652.0,2551.0" /><polygon class="el" fill="#AFD8F8" opacity="0.75" points="1181.0,797.0 1350.0,799.0 1350.0,823.0 1181.0,822.0" /><text class="tip" x="1265.5" y="805.25">Wall #0</text><polygon class="el" fill="#AFD8F8" opacity="0.75" points="1333.0,1176.0 1975.0,1176.0 1975.0,1201.0 1333.0,1201.0" /><text class="tip" x="1654.0" y="1183.5">Wall #1</text><polygon class="el" fill="#AFD8F8" opacity="0.75" points="1515.0,1530.0 1559.0,1531.0 1558.0,1585.0 1516.0,1586.0" /><text class="tip" x="1537.0" y="1553.0">Wall #3</text><polygon class="el" fill="#AFD8F8" opacity="0.75" points="1800.0,1530.0 1860.0,1530.0 1861.0,1575.0 1800.0,1573.0" /><text class="tip" x="1830.25" y="1547.0">Wall #4</text><polygon class="el" fill="#AFD8F8" opacity="0.75" points="1126.0,1583.0 1134.0,1583.0 1132.0,1938.0 1126.0,1938.0" /><text class="tip" x="1129.5" y="1755.5">Wall #5</text><polygon class="el" fill="#AFD8F8" opacity="0.75" points="1633.0,1745.0 1676.0,1745.0 1676.0,1876.0 1635.0,1877.0" /><text class="tip" x="1655.0" y="1805.75">Wall #7</text><polygon class="el" fill="#AFD8F8" opacity="0.75" points="1275.0,1942.0 1282.0,1941.0 1281.0,2150.0 1275.0,2149.0" /><text class="tip" x="1278.25" y="2040.5">Wall #8</text><polygon class="el" fill="#AFD8F8" opacity="0.75" points="1481.0,2500.0 1524.0,2500.0 1523.0,2553.0 1482.0,2553.0" /><text class="tip" x="1502.5" y="2521.5">Wall #9</text><polygon class="el" fill="#AFD8F8" opacity="0.75" points="1975.0,1139.0 2001.0,1135.0 2001.0,1201.0 1975.0,1202.0" /><text class="tip" x="1988.0" y="1164.25">Wall #11</text><polygon class="el" fill="#AFD8F8" opacity="0.75" points="643.0,2510.0 643.0,2552.0 725.0,2552.0 725.0,2510.0" /><text class="tip" x="684.0" y="2526.0">Wall #12</text><polygon class="el" fill="#AFD8F8" opacity="0.75" points="601.0,1696.0 643.0,1696.0 643.0,1592.0 602.0,1592.0" /><text class="tip" x="622.25" y="1639.0">Wall #13</text><polygon class="el" fill="#AFD8F8" opacity="0.75" points="601.0,1840.0 642.0,1840.0 643.0,2553.0 600.0,2552.0" /><text class="tip" x="621.5" y="2191.25">Wall #14</text><polygon class="el" fill="#AFD8F8" opacity="0.75" points="1634.0,2018.0 1677.0,2019.0 1677.0,2148.0 1634.0,2148.0" /><text class="tip" x="1655.5" y="2078.25">Wall #15</text><polygon class="el" fill="#AFD8F8" opacity="0.75" points="1622.0,2192.0 1676.0,2192.0 1677.0,2149.0 1622.0,2150.0" /><text class="tip" x="1649.25" y="2165.75">Wall #16</text><polygon class="el" fill="#AFD8F8" opacity="0.75" points="1481.0,2217.0 1523.0,2217.0 1524.0,2192.0 1481.0,2191.0" /><text class="tip" x="1502.25" y="2199.25">Wall #19</text><polygon class="el" fill="#AFD8F8" opacity="0.75" points="1676.0,1701.0 1676.0,1745.0 1559.0,1744.0 1559.0,1701.0" /><text class="tip" x="1617.5" y="1717.75">Wall #22</text><polygon class="el" fill="#AFD8F8" opacity="0.75" points="1818.0,1443.0 1861.0,1442.0 1860.0,1530.0 1816.0,1533.0" /><text class="tip" x="1838.75" y="1482.0">Wall #23</text><polygon class="el" fill="#AFD8F8" opacity="0.75" points="1347.0,1529.0 1348.0,1537.0 1514.0,1539.0 1515.0,1530.0" /><text class="tip" x="1431.0" y="1528.75">Wall #25</text><polygon class="el" fill="#AFD8F8" opacity="0.75" points="1275.0,1839.0 1281.0,1841.0 1281.0,1736.0 1275.0,1736.0" /><text class="tip" x="1278.0" y="1783.0">Wall #26</text><polygon class="el" fill="#AFD8F8" opacity="0.75" points="1423.0,798.0 1423.0,823.0 1977.0,824.0 1977.0,798.0" /><text class="tip" x="1700.0" y="805.75">Wall #27</text><polygon class="el" fill="#AFD8F8" opacity="0.75" points="1816.0,1301.0 1860.0,1301.0 1860.0,1199.0 1816.0,1199.0" /><text class="tip" x="1838.0" y="1245.0">Wall #28</text><polygon class="el" fill="#AFD8F8" opacity="0.75" points="1339.0,1419.0 1347.0,1419.0 1345.0,1200.0 1339.0,1200.0" /><text class="tip" x="1342.5" y="1304.5">Wall #29</text><polygon class="el" fill="#AFD8F8" opacity="0.75" points="892.0,823.0 891.0,798.0 1107.0,797.0 1107.0,823.0" /><text class="tip" x="999.25" y="805.25">Wall #30</text><polygon class="el" fill="#AFD8F8" opacity="0.75" points="890.0,1175.0 866.0,1175.0 866.0,798.0 891.0,799.0" /><text class="tip" x="878.25" y="981.75">Wall #31</text><polygon class="el" fill="#AFD8F8" opacity="0.75" points="909.0,1582.0 909.0,1591.0 1025.0,1590.0 1025.0,1584.0" /><text class="tip" x="967.0" y="1581.75">Wall #33</text><polygon class="el" fill="#AFD8F8" opacity="0.75" points="865.0,1463.0 909.0,1463.0 909.0,1546.0 866.0,1546.0" /><text class="tip" x="887.25" y="1499.5">Wall #34</text><polygon class="el" fill="#AFD8F8" opacity="0.75" points="602.0,1548.0 602.0,1591.0 908.0,1590.0 909.0,1547.0" /><text class="tip" x="755.25" y="1564.0">Wall #35</text><polygon class="el" fill="#AFD8F8" opacity="0.75" points="641.0,1939.0 642.0,1946.0 1132.0,1944.0 1133.0,1937.0" /><text class="tip" x="887.0" y="1936.5">Wall #36</text><polygon class="el" fill="#AFD8F8" opacity="0.75" points="910.0,1200.0 867.0,1200.0 867.0,1281.0 910.0,1281.0" /><text class="tip" x="888.5" y="1235.5">Wall #37</text><polygon class="el" fill="#AFD8F8" opacity="0.75" points="1233.0,1201.0 1232.0,1175.0 863.0,1174.0 865.0,1202.0" /><text class="tip" x="1048.25" y="1183.0">Wall #38</text><polygon class="el" fill="#AFD8F8" opacity="0.75" points="866.0,1358.0 908.0,1358.0 908.0,1388.0 867.0,1388.0" /><text class="tip" x="887.25" y="1368.0">Wall #39</text><polygon class="el" fill="#AFD8F8" opacity="0.75" points="1340.0,1538.0 1347.0,1537.0 1345.0,1522.0 1339.0,1522.0" /><text class="tip" x="1342.75" y="1524.75">Wall #40</text><polygon class="el" fill="#AFD8F8" opacity="0.75" points="1116.0,1466.0 1116.0,1473.0 1221.0,1472.0 1221.0,1464.0" /><text class="tip" x="1168.5" y="1463.75">Wall #41</text><polygon class="el" fill="#AFD8F8" opacity="0.75" points="1227.0,1472.0 1221.0,1471.0 1222.0,1201.0 1228.0,1202.0" /><text class="tip" x="1224.5" y="1331.5">Wall #42</text><polygon class="el" fill="#AFD8F8" opacity="0.75" points="1044.0,2462.0 1050.0,2461.0 1051.0,2511.0 1043.0,2511.0" /><text class="tip" x="1047.0" y="2481.25">Wall #43</text><polygon class="el" fill="#AFD8F8" opacity="0.75" points="1104.0,2452.0 1104.0,2459.0 1044.0,2460.0 1044.0,2453.0" /><text class="tip" x="1074.0" y="2451.0">Wall #44</text><polygon class="el" fill="#AFD8F8" opacity="0.75" points="1104.0,2459.0 1097.0,2459.0 1097.0,2511.0 1104.0,2510.0" /><text class="tip" x="1100.5" y="2479.75">Wall #45</text><polygon class="el" fill="#F6BD0F" opacity="0.75" points="1109.0,828.0 1180.0,826.0 1180.0,793.0 1103.0,794.0" /><text class="tip" x="1143.0" y="805.25">Window #46</text><polygon class="el" fill="#F6BD0F" opacity="0.75" points="1352.0,828.0 1424.0,825.0 1423.0,793.0 1348.0,791.0" /><text class="tip" x="1386.75" y="804.25">Window #47</text><polygon class="el" fill="#8BBA00" opacity="0.75" points="1967.0,856.0 1966.0,1149.0 2019.0,1149.0 2015.0,855.0" /><text class="tip" x="1991.75" y="997.25">Parking #48</text><polygon class="el" fill="#FF8E46" opacity="0.75" points="1326.0,1089.0 1330.0,1174.0 1230.0,1179.0 1240.0,1139.0 1270.0,1099.0" /><text class="tip" x="1279.2" y="1131.0">Door #49</text><polygon class="el" fill="#F6BD0F" opacity="0.75" points="1813.0,1443.0 1869.0,1441.0 1865.0,1301.0 1813.0,1301.0" /><text class="tip" x="1840.0" y="1366.5">Window #50</text><polygon class="el" fill="#F6BD0F" opacity="0.75" points="1729.0,1525.0 1798.0,1529.0 1800.0,1576.0 1728.0,1576.0" /><text class="tip" x="1763.75" y="1546.5">Window #51</text><polygon class="el" fill="#FF8E46" opacity="0.75" points="1467.1989368550874,1626.5896874384691 1509.5678928280636,1626.2891983890154 1510.7698490258786,1657.5400595322035 1496.3463746520995,1657.2395704827497 1478.918009783783,1653.0327237903975 1467.1989368550874,1638.3087603671647" /><text class="tip" x="1488.3333333333333" y="1638.1666666666667">Door #52</text><polygon class="el" fill="#F6BD0F" opacity="0.75" points="1628.0,1879.0 1680.0,1880.0 1683.0,2018.0 1631.0,2018.0" /><text class="tip" x="1655.5" y="1943.75">Window #53</text><polygon class="el" fill="#FF8E46" opacity="0.75" points="1618.0,2059.0 1620.0,2192.0 1526.0,2192.0 1528.0,2149.0 1534.0,2099.0 1572.0,2067.0" /><text class="tip" x="1566.3333333333333" y="2121.333333333333">Door #54</text><polygon class="el" fill="#F6BD0F" opacity="0.75" points="1477.0,2215.0 1525.0,2218.0 1528.0,2503.0 1479.0,2501.0" /><text class="tip" x="1502.25" y="2354.25">Window #55</text><polygon class="el" fill="#F6BD0F" opacity="0.75" points="727.0,2510.0 726.0,2554.0 1014.0,2553.0 1015.0,2508.0" /><text class="tip" x="870.5" y="2526.25">Window #56</text><polygon class="el" fill="#F6BD0F" opacity="0.75" points="648.0,1841.0 596.0,1842.0 595.0,1698.0 647.0,1697.0" /><text class="tip" x="621.5" y="1764.5">Window #57</text><polygon class="el" fill="#F6BD0F" opacity="0.75" points="860.0,1463.0 912.0,1464.0 912.0,1388.0 863.0,1387.0" /><text class="tip" x="886.75" y="1420.5">Window #58</text><polygon class="el" fill="#F6BD0F" opacity="0.75" points="862.5,1279.0 912.5,1281.0 913.5,1354.0 861.5,1353.0" /><text class="tip" x="887.5" y="1311.75">Window #59</text><polygon class="el" fill="#FF8E46" opacity="0.75" points="1018.0,1375.0 1015.0,1476.0 1116.0,1468.0 1101.0,1409.0 1059.0,1381.0" /><text class="tip" x="1061.8" y="1416.8">Door #60</text><polygon class="el" fill="#FF8E46" opacity="0.75" points="1076.884496238657,1505.910366211434 1033.3590818239566,1506.3590818239566 1033.3590818239566,1548.538349401089 1054.4487156125226,1544.9486245009073 1071.9486245009073,1529.2435780626133" /><text class="tip" x="1054.0" y="1522.0">Door #61</text><polygon class="el" fill="#FF8E46" opacity="0.75" points="1120.0,1686.0 1124.0,1586.0 1026.0,1585.0 1031.0,1628.0 1065.0,1665.0" /><text class="tip" x="1073.2" y="1625.0">Door #62</text><polygon class="el" fill="#FF8E46" opacity="0.75" points="1432.0,1513.0 1340.0,1518.0 1341.0,1427.0 1379.0,1428.0 1429.0,1470.0" /><text class="tip" x="1384.2" y="1466.2">Door #63</text><polygon class="el" fill="#FF8E46" opacity="0.75" points="1338.9696356342959,1906.51615882427 1306.9931458137248,1908.696374039309 1306.9931458137248,1873.086192193673 1322.9813907240105,1877.0832534212443 1336.062682014244,1891.618021521504" /><text class="tip" x="1322.4" y="1886.4">Door #64</text><polygon class="el" fill="#008E8E" opacity="0.4" points="895.0,829.0 891.0,1171.0 1970.0,1170.0 1971.0,828.0" /><text class="tip" x="1431.75" y="994.5">Room #65</text><polygon class="el" fill="#008E8E" opacity="0.4" points="1350.0,1206.0 1352.0,1526.0 1813.0,1527.0 1810.0,1205.0" /><text class="tip" x="1581.25" y="1361.0">Room #66</text><polygon class="el" fill="#008E8E" opacity="0.4" points="1221.0,1207.0 1214.0,1457.0 1025.0,1460.0 1023.0,1361.0 918.0,1358.0 915.0,1204.0" /><text class="tip" x="1052.6666666666667" y="1336.1666666666667">Room #67</text><polygon class="el" fill="#008E8E" opacity="0.4" points="912.0,1576.0 915.0,1376.0 1003.0,1375.0 1004.0,1578.0" /><text class="tip" x="958.5" y="1471.25">Room #68</text><polygon class="el" fill="#008E8E" opacity="0.4" points="1137.0,1939.5 1277.0,1939.5 1274.0,1730.5 1512.0,1730.5 1511.0,1543.5 1338.0,1540.5 1332.0,1184.5 1231.0,1188.5 1229.0,1473.5 1022.0,1478.5 1025.0,1577.5 1135.0,1580.5" /><text class="tip" x="1251.9166666666667" y="1570.5833333333333">Room #69</text><polygon class="el" fill="#008E8E" opacity="0.4" points="647.0,1597.0 645.0,1933.0 1121.0,1934.0 1120.0,1591.0" /><text class="tip" x="883.25" y="1758.75">Room #70</text><polygon class="el" fill="#008E8E" opacity="0.4" points="1627.0,1752.0 1632.0,2143.0 1285.0,2145.0 1285.0,1746.0" /><text class="tip" x="1457.25" y="1941.5">Room #71</text><polygon class="el" fill="#008E8E" opacity="0.4" points="648.0,1952.0 647.0,2504.0 1038.0,2505.0 1039.0,2450.0 1110.0,2448.0 1108.0,2504.0 1474.0,2504.0 1476.0,2161.0 1269.0,2162.0 1268.0,1947.0" /><text class="tip" x="1107.7" y="2308.7">Room #72</text><polygon class="el" fill="#D64646" opacity="0.75" points="1133.0,1922.0 1276.0,1922.0 1276.0,1952.0 1133.0,1952.0" /><text class="tip" x="1204.5" y="1932.0">Separation #74</text><polygon class="el" fill="#9B59B6" opacity="0.75" points="1050.8112576889503,2029.7912375689843 1362.0876227980489,2029.7912375689843 1362.0876227980489,2652.3439677871816 1050.8112576889503,2652.3439677871816" /><text class="tip" x="1206.4494402434996" y="2336.067602678083">Stair #75</text><polygon fill="#9B59B6" opacity="0.6" points="1050.8112576889503,2029.7912375689843 1362.0876227980489,2029.7912375689843 1362.0876227980489,2652.3439677871816 1050.8112576889503,2652.3439677871816" stroke="#9B59B6" stroke-width="3" /><text fill="white" font-size="10px" font-weight="bold" text-anchor="middle" x="1206.4494402434996" y="2345.067602678083">STAIR</text></g><g id="f_Lower_Floor__Reference_"><text font-size="13px" font-weight="bold" text-anchor="middle" x="1249.5" y="3938.8">Lower Floor (Reference)</text><polygon class="el" fill="#AFD8F8" opacity="0.75" points="1181.0,4655.8 1350.0,4657.8 1350.0,4681.8 1181.0,4680.8" /><text class="tip" x="1265.5" y="4664.05">Wall #0</text><polygon class="el" fill="#AFD8F8" opacity="0.75" points="1333.0,5034.8 1975.0,5034.8 1975.0,5059.8 1333.0,5059.8" /><text class="tip" x="1654.0" y="5042.3">Wall #1</text><polygon class="el" fill="#AFD8F8" opacity="0.75" points="910.0,5223.8 1006.0,5223.8 1006.0,5230.8 910.0,5230.8" /><text class="tip" x="958.0" y="5222.3">Wall #2</text><polygon class="el" fill="#AFD8F8" opacity="0.75" points="1515.0,5388.8 1559.0,5389.8 1558.0,5443.8 1516.0,5444.8" /><text class="tip" x="1537.0" y="5411.8">Wall #3</text><polygon class="el" fill="#AFD8F8" opacity="0.75" points="1800.0,5388.8 1860.0,5388.8 1861.0,5433.8 1800.0,5431.8" /><text class="tip" x="1830.25" y="5405.8">Wall #4</text><polygon class="el" fill="#AFD8F8" opacity="0.75" points="1126.0,5441.8 1134.0,5441.8 1132.0,5796.8 1126.0,5796.8" /><text class="tip" x="1129.5" y="5614.3">Wall #5</text><polygon class="el" fill="#AFD8F8" opacity="0.75" points="1282.0,5595.8 1516.0,5596.8 1516.0,5602.8 1282.0,5602.8" /><text class="tip" x="1399.0" y="5594.55">Wall #6</text><polygon class="el" fill="#AFD8F8" opacity="0.75" points="1633.0,5603.8 1676.0,5603.8 1676.0,5734.8 1635.0,5735.8" /><text class="tip" x="1655.0" y="5664.55">Wall #7</text><polygon class="el" fill="#AFD8F8" opacity="0.75" points="1275.0,5800.8 1282.0,5799.8 1281.0,6008.8 1275.0,6007.8" /><text class="tip" x="1278.25" y="5899.3">Wall #8</text><polygon class="el" fill="#AFD8F8" opacity="0.75" points="1481.0,6358.8 1524.0,6358.8 1523.0,6411.8 1482.0,6411.8" /><text class="tip" x="1502.5" y="6380.3">Wall #9</text><polygon class="el" fill="#AFD8F8" opacity="0.75" points="1977.0,4656.8 2001.0,4656.8 2002.0,4721.8 1977.0,4717.8" /><text class="tip" x="1989.25" y="4683.3">Wall #10</text><polygon class="el" fill="#AFD8F8" opacity="0.75" points="1975.0,4997.8 2001.0,4993.8 2001.0,5059.8 1975.0,5060.8" /><text class="tip" x="1988.0" y="5023.05">Wall #11</text><polygon class="el" fill="#AFD8F8" opacity="0.75" points="643.0,6368.8 643.0,6410.8 725.0,6410.8 725.0,6368.8" /><text class="tip" x="684.0" y="6384.8">Wall #12</text><polygon class="el" fill="#AFD8F8" opacity="0.75" points="601.0,5554.8 643.0,5554.8 643.0,5450.8 602.0,5450.8" /><text class="tip" x="622.25" y="5497.8">Wall #13</text><polygon class="el" fill="#AFD8F8" opacity="0.75" points="601.0,5698.8 642.0,5698.8 643.0,6411.8 600.0,6410.8" /><text class="tip" x="621.5" y="6050.05">Wall #14</text><polygon class="el" fill="#AFD8F8" opacity="0.75" points="1634.0,5876.8 1677.0,5877.8 1677.0,6006.8 1634.0,6006.8" /><text class="tip" x="1655.5" y="5937.05">Wall #15</text><polygon class="el" fill="#AFD8F8" opacity="0.75" points="1622.0,6050.8 1676.0,6050.8 1677.0,6007.8 1622.0,6008.8" /><text class="tip" x="1649.25" y="6024.55">Wall #16</text><polygon class="el" fill="#AFD8F8" opacity="0.75" points="1481.0,6008.8 1480.0,6016.8 1273.0,6016.8 1274.0,6008.8" /><text class="tip" x="1377.0" y="6007.8">Wall #17</text><polygon class="el" fill="#AFD8F8" opacity="0.75" points="1528.0,6050.8 1528.0,6009.8 1481.0,6008.8 1482.0,6050.8" /><text class="tip" x="1504.75" y="6025.05">Wall #18</text><polygon class="el" fill="#AFD8F8" opacity="0.75" points="1481.0,6075.8 1523.0,6075.8 1524.0,6050.8 1481.0,6049.8" /><text class="tip" x="1502.25" y="6058.05">Wall #19</text><polygon class="el" fill="#AFD8F8" opacity="0.75" points="1012.0,6370.8 1012.0,6410.8 1482.0,6411.8 1480.0,6368.8 1106.0,6369.8 1043.0,6369.8" /><text class="tip" x="1189.1666666666667" y="6378.633333333333">Wall #20</text><polygon class="el" fill="#AFD8F8" opacity="0.75" points="1517.0,5548.8 1559.0,5549.8 1559.0,5602.8 1517.0,5602.8" /><text class="tip" x="1538.0" y="5571.05">Wall #21</text><polygon class="el" fill="#AFD8F8" opacity="0.75" points="1676.0,5559.8 1676.0,5603.8 1559.0,5602.8 1559.0,5559.8" /><text class="tip" x="1617.5" y="5576.55">Wall #22</text><polygon class="el" fill="#AFD8F8" opacity="0.75" points="1818.0,5301.8 1861.0,5300.8 1860.0,5388.8 1816.0,5391.8" /><text class="tip" x="1838.75" y="5340.8">Wall #23</text><polygon class="el" fill="#AFD8F8" opacity="0.75" points="1729.0,5387.8 1728.0,5432.8 1559.0,5431.8 1559.0,5387.8" /><text class="tip" x="1643.75" y="5405.05">Wall #24</text><polygon class="el" fill="#AFD8F8" opacity="0.75" points="1347.0,5387.8 1348.0,5395.8 1514.0,5397.8 1515.0,5388.8" /><text class="tip" x="1431.0" y="5387.55">Wall #25</text><polygon class="el" fill="#AFD8F8" opacity="0.75" points="1275.0,5697.8 1281.0,5699.8 1281.0,5594.8 1275.0,5594.8" /><text class="tip" x="1278.0" y="5641.8">Wall #26</text><polygon class="el" fill="#AFD8F8" opacity="0.75" points="1423.0,4656.8 1423.0,4681.8 1977.0,4682.8 1977.0,4656.8" /><text class="tip" x="1700.0" y="4664.55">Wall #27</text><polygon class="el" fill="#AFD8F8" opacity="0.75" points="1816.0,5159.8 1860.0,5159.8 1860.0,5057.8 1816.0,5057.8" /><text class="tip" x="1838.0" y="5103.8">Wall #28</text><polygon class="el" fill="#AFD8F8" opacity="0.75" points="1339.0,5277.8 1347.0,5277.8 1345.0,5058.8 1339.0,5058.8" /><text class="tip" x="1342.5" y="5163.3">Wall #29</text><polygon class="el" fill="#AFD8F8" opacity="0.75" points="892.0,4681.8 891.0,4656.8 1107.0,4655.8 1107.0,4681.8" /><text class="tip" x="999.25" y="4664.05">Wall #30</text><polygon class="el" fill="#AFD8F8" opacity="0.75" points="890.0,5033.8 866.0,5033.8 866.0,4656.8 891.0,4657.8" /><text class="tip" x="878.25" y="4840.55">Wall #31</text><polygon class="el" fill="#AFD8F8" opacity="0.75" points="1009.0,5333.8 1016.0,5334.8 1016.0,5222.8 1008.0,5222.8" /><text class="tip" x="1012.25" y="5273.55">Wall #32</text><polygon class="el" fill="#AFD8F8" opacity="0.75" points="909.0,5440.8 909.0,5449.8 1025.0,5448.8 1025.0,5442.8" /><text class="tip" x="967.0" y="5440.55">Wall #33</text><polygon class="el" fill="#AFD8F8" opacity="0.75" points="865.0,5321.8 909.0,5321.8 909.0,5404.8 866.0,5404.8" /><text class="tip" x="887.25" y="5358.3">Wall #34</text><polygon class="el" fill="#AFD8F8" opacity="0.75" points="602.0,5406.8 602.0,5449.8 908.0,5448.8 909.0,5405.8" /><text class="tip" x="755.25" y="5422.8">Wall #35</text><polygon class="el" fill="#AFD8F8" opacity="0.75" points="641.0,5797.8 642.0,5804.8 1132.0,5802.8 1133.0,5795.8" /><text class="tip" x="887.0" y="5795.3">Wall #36</text><polygon class="el" fill="#AFD8F8" opacity="0.75" points="910.0,5058.8 867.0,5058.8 867.0,5139.8 910.0,5139.8" /><text class="tip" x="888.5" y="5094.3">Wall #37</text><polygon class="el" fill="#AFD8F8" opacity="0.75" points="1233.0,5059.8 1232.0,5033.8 863.0,5032.8 865.0,5060.8" /><text class="tip" x="1048.25" y="5041.8">Wall #38</text><polygon class="el" fill="#AFD8F8" opacity="0.75" points="866.0,5216.8 908.0,5216.8 908.0,5246.8 867.0,5246.8" /><text class="tip" x="887.25" y="5226.8">Wall #39</text><polygon class="el" fill="#AFD8F8" opacity="0.75" points="1340.0,5396.8 1347.0,5395.8 1345.0,5380.8 1339.0,5380.8" /><text class="tip" x="1342.75" y="5383.55">Wall #40</text><polygon class="el" fill="#AFD8F8" opacity="0.75" points="1116.0,5324.8 1116.0,5331.8 1221.0,5330.8 1221.0,5322.8" /><text class="tip" x="1168.5" y="5322.55">Wall #41</text><polygon class="el" fill="#AFD8F8" opacity="0.75" points="1227.0,5330.8 1221.0,5329.8 1222.0,5059.8 1228.0,5060.8" /><text class="tip" x="1224.5" y="5190.3">Wall #42</text><polygon class="el" fill="#AFD8F8" opacity="0.75" points="1044.0,6320.8 1050.0,6319.8 1051.0,6369.8 1043.0,6369.8" /><text class="tip" x="1047.0" y="6340.05">Wall #43</text><polygon class="el" fill="#AFD8F8" opacity="0.75" points="1104.0,6310.8 1104.0,6317.8 1044.0,6318.8 1044.0,6311.8" /><text class="tip" x="1074.0" y="6309.8">Wall #44</text><polygon class="el" fill="#AFD8F8" opacity="0.75" points="1104.0,6317.8 1097.0,6317.8 1097.0,6369.8 1104.0,6368.8" /><text class="tip" x="1100.5" y="6338.55">Wall #45</text><polygon class="el" fill="#F6BD0F" opacity="0.75" points="1109.0,4686.8 1180.0,4684.8 1180.0,4651.8 1103.0,4652.8" /><text class="tip" x="1143.0" y="4664.05">Window #46</text><polygon class="el" fill="#F6BD0F" opacity="0.75" points="1352.0,4686.8 1424.0,4683.8 1423.0,4651.8 1348.0,4649.8" /><text class="tip" x="1386.75" y="4663.05">Window #47</text><polygon class="el" fill="#8BBA00" opacity="0.75" points="1967.0,4714.8 1966.0,5007.8 2019.0,5007.8 2015.0,4713.8" /><text class="tip" x="1991.75" y="4856.05">Parking #48</text><polygon class="el" fill="#FF8E46" opacity="0.75" points="1326.0,4947.8 1330.0,5032.8 1230.0,5037.8 1240.0,4997.8 1270.0,4957.8" /><text class="tip" x="1279.2" y="4989.8">Door #49</text><polygon class="el" fill="#F6BD0F" opacity="0.75" points="1813.0,5301.8 1869.0,5299.8 1865.0,5159.8 1813.0,5159.8" /><text class="tip" x="1840.0" y="5225.3">Window #50</text><polygon class="el" fill="#F6BD0F" opacity="0.75" points="1729.0,5383.8 1798.0,5387.8 1800.0,5434.8 1728.0,5434.8" /><text class="tip" x="1763.75" y="5405.3">Window #51</text><polygon class="el" fill="#FF8E46" opacity="0.75" points="1418.0,5446.8 1559.0,5445.8 1563.0,5549.8 1515.0,5548.8 1457.0,5534.8 1418.0,5485.8" /><text class="tip" x="1488.3333333333333" y="5496.966666666667">Door #52</text><polygon class="el" fill="#F6BD0F" opacity="0.75" points="1628.0,5737.8 1680.0,5738.8 1683.0,5876.8 1631.0,5876.8" /><text class="tip" x="1655.5" y="5802.55">Window #53</text><polygon class="el" fill="#FF8E46" opacity="0.75" points="1618.0,5917.8 1620.0,6050.8 1526.0,6050.8 1528.0,6007.8 1534.0,5957.8 1572.0,5925.8" /><text class="tip" x="1566.3333333333333" y="5980.133333333333">Door #54</text><polygon class="el" fill="#F6BD0F" opacity="0.75" points="1477.0,6073.8 1525.0,6076.8 1528.0,6361.8 1479.0,6359.8" /><text class="tip" x="1502.25" y="6213.05">Window #55</text><polygon class="el" fill="#F6BD0F" opacity="0.75" points="727.0,6368.8 726.0,6412.8 1014.0,6411.8 1015.0,6366.8" /><text class="tip" x="870.5" y="6385.05">Window #56</text><polygon class="el" fill="#F6BD0F" opacity="0.75" points="648.0,5699.8 596.0,5700.8 595.0,5556.8 647.0,5555.8" /><text class="tip" x="621.5" y="5623.3">Window #57</text><polygon class="el" fill="#F6BD0F" opacity="0.75" points="860.0,5321.8 912.0,5322.8 912.0,5246.8 863.0,5245.8" /><text class="tip" x="886.75" y="5279.3">Window #58</text><polygon class="el" fill="#F6BD0F" opacity="0.75" points="862.5,5137.8 912.5,5139.8 913.5,5212.8 861.5,5211.8" /><text class="tip" x="887.5" y="5170.55">Window #59</text><polygon class="el" fill="#FF8E46" opacity="0.75" points="1018.0,5233.8 1015.0,5334.8 1116.0,5326.8 1101.0,5267.8 1059.0,5239.8" /><text class="tip" x="1061.8" y="5275.6">Door #60</text><polygon class="el" fill="#FF8E46" opacity="0.75" points="1105.0,5338.8 1008.0,5339.8 1008.0,5433.8 1055.0,5425.8 1094.0,5390.8" /><text class="tip" x="1054.0" y="5380.8">Door #61</text><polygon class="el" fill="#FF8E46" opacity="0.75" points="1120.0,5544.8 1124.0,5444.8 1026.0,5443.8 1031.0,5486.8 1065.0,5523.8" /><text class="tip" x="1073.2" y="5483.8">Door #62</text><polygon class="el" fill="#FF8E46" opacity="0.75" points="1432.0,5371.8 1340.0,5376.8 1341.0,5285.8 1379.0,5286.8 1429.0,5328.8" /><text class="tip" x="1384.2" y="5325.0">Door #63</text><polygon class="el" fill="#FF8E46" opacity="0.75" points="1368.0,5791.8 1280.0,5797.8 1280.0,5699.8 1324.0,5710.8 1360.0,5750.8" /><text class="tip" x="1322.4" y="5745.200000000001">Door #64</text><polygon class="el" fill="#008E8E" opacity="0.4" points="895.0,4687.8 891.0,5029.8 1970.0,5028.8 1971.0,4686.8" /><text class="tip" x="1431.75" y="4853.3">Room #65</text><polygon class="el" fill="#008E8E" opacity="0.4" points="1350.0,5064.8 1352.0,5384.8 1813.0,5385.8 1810.0,5063.8" /><text class="tip" x="1581.25" y="5219.8">Room #66</text><polygon class="el" fill="#008E8E" opacity="0.4" points="1221.0,5065.8 1214.0,5315.8 1025.0,5318.8 1023.0,5219.8 918.0,5216.8 915.0,5062.8" /><text class="tip" x="1052.6666666666667" y="5194.966666666667">Room #67</text><polygon class="el" fill="#008E8E" opacity="0.4" points="912.0,5434.8 915.0,5234.8 1003.0,5233.8 1004.0,5436.8" /><text class="tip" x="958.5" y="5330.05">Room #68</text><polygon class="el" fill="#008E8E" opacity="0.4" points="1137.0,5798.3 1277.0,5798.3 1274.0,5589.3 1512.0,5589.3 1511.0,5402.3 1338.0,5399.3 1332.0,5043.3 1231.0,5047.3 1229.0,5332.3 1022.0,5337.3 1025.0,5436.3 1135.0,5439.3" /><text class="tip" x="1251.9166666666667" y="5429.383333333333">Room #69</text><polygon class="el" fill="#008E8E" opacity="0.4" points="647.0,5455.8 645.0,5791.8 1121.0,5792.8 1120.0,5449.8" /><text class="tip" x="883.25" y="5617.55">Room #70</text><polygon class="el" fill="#008E8E" opacity="0.4" points="1627.0,5610.8 1632.0,6001.8 1285.0,6003.8 1285.0,5604.8" /><text class="tip" x="1457.25" y="5800.3">Room #71</text><polygon class="el" fill="#008E8E" opacity="0.4" points="648.0,5810.8 647.0,6362.8 1038.0,6363.8 1039.0,6308.8 1110.0,6306.8 1108.0,6362.8 1474.0,6362.8 1476.0,6019.8 1269.0,6020.8 1268.0,5805.8" /><text class="tip" x="1107.7" y="6167.5">Room #72</text><polygon class="el" fill="#AFD8F8" opacity="0.75" points="1652.0,6386.8 1678.0,6387.8 1676.0,6409.8 1652.0,6409.8" /><text class="tip" x="1664.5" y="6393.55">Wall #73</text><polygon class="el" fill="#D64646" opacity="0.75" points="1133.0,5780.8 1276.0,5780.8 1276.0,5810.8 1133.0,5810.8" /><text class="tip" x="1204.5" y="5790.8">Separation #74</text><polygon class="el" fill="#9B59B6" opacity="0.75" points="1133.6024952579346,5805.8 1444.8788603670332,5805.8 1444.8788603670332,6428.352730218197 1133.6024952579346,6428.352730218197" /><text class="tip" x="1289.240677812484" y="6112.076365109098">Stair #75</text><polygon fill="#9B59B6" opacity="0.6" points="1133.6024952579346,5805.8 1444.8788603670332,5805.8 1444.8788603670332,6428.352730218197 1133.6024952579346,6428.352730218197" stroke="#9B59B6" stroke-width="3" /><text fill="white" font-size="10px" font-weight="bold" text-anchor="middle" x="1289.240677812484" y="6121.076365109098">STAIR</text></g><text fill="#27AE60" font-size="16px" font-weight="bold" text-anchor="middle" x="4214.299999999999" y="55">AFTER (Refined)</text><g id="f_Upper_Floor__Fixed_"><text font-size="13px" font-weight="bold" text-anchor="middle" x="4214.299999999999" y="80">Upper Floor (Fixed)</text><polygon class="el" fill="#AFD8F8" opacity="0.75" points="4145.799999999999,797.0 4314.799999999999,799.0 4314.799999999999,823.0 4145.799999999999,822.0" /><text class="tip" x="4230.299999999999" y="805.25">Wall #0</text><polygon class="el" fill="#AFD8F8" opacity="0.75" points="4297.799999999999,1176.0 4939.799999999999,1176.0 4939.799999999999,1201.0 4297.799999999999,1201.0" /><text class="tip" x="4618.799999999999" y="1183.5">Wall #1</text><polygon class="el" fill="#AFD8F8" opacity="0.75" points="4479.799999999999,1530.0 4523.799999999999,1531.0 4522.799999999999,1585.0 4480.799999999999,1586.0" /><text class="tip" x="4501.799999999999" y="1553.0">Wall #3</text><polygon class="el" fill="#AFD8F8" opacity="0.75" points="4764.799999999999,1530.0 4824.799999999999,1530.0 4825.799999999999,1575.0 4764.799999999999,1573.0" /><text class="tip" x="4795.049999999999" y="1547.0">Wall #4</text><polygon class="el" fill="#AFD8F8" opacity="0.75" points="4090.7999999999997,1583.0 4098.799999999999,1583.0 4096.799999999999,1938.0 4090.7999999999997,1938.0" /><text class="tip" x="4094.2999999999997" y="1755.5">Wall #5</text><polygon class="el" fill="#AFD8F8" opacity="0.75" points="4597.799999999999,1745.0 4640.799999999999,1745.0 4640.799999999999,1876.0 4599.799999999999,1877.0" /><text class="tip" x="4619.799999999999" y="1805.75">Wall #7</text><polygon class="el" fill="#AFD8F8" opacity="0.75" points="4239.799999999999,1942.0 4246.799999999999,1941.0 4245.799999999999,2150.0 4239.799999999999,2149.0" /><text class="tip" x="4243.049999999999" y="2040.5">Wall #8</text><polygon class="el" fill="#AFD8F8" opacity="0.75" points="4445.799999999999,2500.0 4488.799999999999,2500.0 4487.799999999999,2553.0 4446.799999999999,2553.0" /><text class="tip" x="4467.299999999999" y="2521.5">Wall #9</text><polygon class="el" fill="#AFD8F8" opacity="0.75" points="4939.799999999999,1139.0 4965.799999999999,1135.0 4965.799999999999,1201.0 4939.799999999999,1202.0" /><text class="tip" x="4952.799999999999" y="1164.25">Wall #11</text><polygon class="el" fill="#AFD8F8" opacity="0.75" points="3607.7999999999997,2510.0 3607.7999999999997,2552.0 3689.7999999999997,2552.0 3689.7999999999997,2510.0" /><text class="tip" x="3648.7999999999997" y="2526.0">Wall #12</text><polygon class="el" fill="#AFD8F8" opacity="0.75" points="3565.7999999999997,1696.0 3607.7999999999997,1696.0 3607.7999999999997,1592.0 3566.7999999999997,1592.0" /><text class="tip" x="3587.0499999999997" y="1639.0">Wall #13</text><polygon class="el" fill="#AFD8F8" opacity="0.75" points="3565.7999999999997,1840.0 3606.7999999999997,1840.0 3607.7999999999997,2553.0 3564.7999999999997,2552.0" /><text class="tip" x="3586.2999999999997" y="2191.25">Wall #14</text><polygon class="el" fill="#AFD8F8" opacity="0.75" points="4598.799999999999,2018.0 4641.799999999999,2019.0 4641.799999999999,2148.0 4598.799999999999,2148.0" /><text class="tip" x="4620.299999999999" y="2078.25">Wall #15</text><polygon class="el" fill="#AFD8F8" opacity="0.75" points="4586.799999999999,2192.0 4640.799999999999,2192.0 4641.799999999999,2149.0 4586.799999999999,2150.0" /><text class="tip" x="4614.049999999999" y="2165.75">Wall #16</text><polygon class="el" fill="#AFD8F8" opacity="0.75" points="4445.799999999999,2217.0 4487.799999999999,2217.0 4488.799999999999,2192.0 4445.799999999999,2191.0" /><text class="tip" x="4467.049999999999" y="2199.25">Wall #19</text><polygon class="el" fill="#AFD8F8" opacity="0.75" points="4640.799999999999,1701.0 4640.799999999999,1745.0 4523.799999999999,1744.0 4523.799999999999,1701.0" /><text class="tip" x="4582.299999999999" y="1717.75">Wall #22</text><polygon class="el" fill="#AFD8F8" opacity="0.75" points="4782.799999999999,1443.0 4825.799999999999,1442.0 4824.799999999999,1530.0 4780.799999999999,1533.0" /><text class="tip" x="4803.549999999999" y="1482.0">Wall #23</text><polygon class="el" fill="#AFD8F8" opacity="0.75" points="4311.799999999999,1529.0 4312.799999999999,1537.0 4478.799999999999,1539.0 4479.799999999999,1530.0" /><text class="tip" x="4395.799999999999" y="1528.75">Wall #25</text><polygon class="el" fill="#AFD8F8" opacity="0.75" points="4239.799999999999,1839.0 4245.799999999999,1841.0 4245.799999999999,1736.0 4239.799999999999,1736.0" /><text class="tip" x="4242.799999999999" y="1783.0">Wall #26</text><polygon class="el" fill="#AFD8F8" opacity="0.75" points="4387.799999999999,798.0 4387.799999999999,823.0 4941.799999999999,824.0 4941.799999999999,798.0" /><text class="tip" x="4664.799999999999" y="805.75">Wall #27</text><polygon class="el" fill="#AFD8F8" opacity="0.75" points="4780.799999999999,1301.0 4824.799999999999,1301.0 4824.799999999999,1199.0 4780.799999999999,1199.0" /><text class="tip" x="4802.799999999999" y="1245.0">Wall #28</text><polygon class="el" fill="#AFD8F8" opacity="0.75" points="4303.799999999999,1419.0 4311.799999999999,1419.0 4309.799999999999,1200.0 4303.799999999999,1200.0" /><text class="tip" x="4307.299999999999" y="1304.5">Wall #29</text><polygon class="el" fill="#AFD8F8" opacity="0.75" points="3856.7999999999997,823.0 3855.7999999999997,798.0 4071.7999999999997,797.0 4071.7999999999997,823.0" /><text class="tip" x="3964.0499999999997" y="805.25">Wall #30</text><polygon class="el" fill="#AFD8F8" opacity="0.75" points="3854.7999999999997,1175.0 3830.7999999999997,1175.0 3830.7999999999997,798.0 3855.7999999999997,799.0" /><text class="tip" x="3843.0499999999997" y="981.75">Wall #31</text><polygon class="el" fill="#AFD8F8" opacity="0.75" points="3873.7999999999997,1582.0 3873.7999999999997,1591.0 3989.7999999999997,1590.0 3989.7999999999997,1584.0" /><text class="tip" x="3931.7999999999997" y="1581.75">Wall #33</text><polygon class="el" fill="#AFD8F8" opacity="0.75" points="3829.7999999999997,1463.0 3873.7999999999997,1463.0 3873.7999999999997,1546.0 3830.7999999999997,1546.0" /><text class="tip" x="3852.0499999999997" y="1499.5">Wall #34</text><polygon class="el" fill="#AFD8F8" opacity="0.75" points="3566.7999999999997,1548.0 3566.7999999999997,1591.0 3872.7999999999997,1590.0 3873.7999999999997,1547.0" /><text class="tip" x="3720.0499999999997" y="1564.0">Wall #35</text><polygon class="el" fill="#AFD8F8" opacity="0.75" points="3605.7999999999997,1939.0 3606.7999999999997,1946.0 4096.799999999999,1944.0 4097.799999999999,1937.0" /><text class="tip" x="3851.7999999999997" y="1936.5">Wall #36</text><polygon class="el" fill="#AFD8F8" opacity="0.75" points="3874.7999999999997,1200.0 3831.7999999999997,1200.0 3831.7999999999997,1281.0 3874.7999999999997,1281.0" /><text class="tip" x="3853.2999999999997" y="1235.5">Wall #37</text><polygon class="el" fill="#AFD8F8" opacity="0.75" points="4197.799999999999,1201.0 4196.799999999999,1175.0 3827.7999999999997,1174.0 3829.7999999999997,1202.0" /><text class="tip" x="4013.0499999999997" y="1183.0">Wall #38</text><polygon class="el" fill="#AFD8F8" opacity="0.75" points="3830.7999999999997,1358.0 3872.7999999999997,1358.0 3872.7999999999997,1388.0 3831.7999999999997,1388.0" /><text class="tip" x="3852.0499999999997" y="1368.0">Wall #39</text><polygon class="el" fill="#AFD8F8" opacity="0.75" points="4304.799999999999,1538.0 4311.799999999999,1537.0 4309.799999999999,1522.0 4303.799999999999,1522.0" /><text class="tip" x="4307.549999999999" y="1524.75">Wall #40</text><polygon class="el" fill="#AFD8F8" opacity="0.75" points="4080.7999999999997,1466.0 4080.7999999999997,1473.0 4185.799999999999,1472.0 4185.799999999999,1464.0" /><text class="tip" x="4133.299999999999" y="1463.75">Wall #41</text><polygon class="el" fill="#AFD8F8" opacity="0.75" points="4191.799999999999,1472.0 4185.799999999999,1471.0 4186.799999999999,1201.0 4192.799999999999,1202.0" /><text class="tip" x="4189.299999999999" y="1331.5">Wall #42</text><polygon class="el" fill="#AFD8F8" opacity="0.75" points="4008.7999999999997,2462.0 4014.7999999999997,2461.0 4015.7999999999997,2511.0 4007.7999999999997,2511.0" /><text class="tip" x="4011.7999999999997" y="2481.25">Wall #43</text><polygon class="el" fill="#AFD8F8" opacity="0.75" points="4068.7999999999997,2452.0 4068.7999999999997,2459.0 4008.7999999999997,2460.0 4008.7999999999997,2453.0" /><text class="tip" x="4038.7999999999997" y="2451.0">Wall #44</text><polygon class="el" fill="#AFD8F8" opacity="0.75" points="4068.7999999999997,2459.0 4061.7999999999997,2459.0 4061.7999999999997,2511.0 4068.7999999999997,2510.0" /><text class="tip" x="4065.2999999999997" y="2479.75">Wall #45</text><polygon class="el" fill="#F6BD0F" opacity="0.75" points="4073.7999999999997,828.0 4144.799999999999,826.0 4144.799999999999,793.0 4067.7999999999997,794.0" /><text class="tip" x="4107.799999999999" y="805.25">Window #46</text><polygon class="el" fill="#F6BD0F" opacity="0.75" points="4316.799999999999,828.0 4388.799999999999,825.0 4387.799999999999,793.0 4312.799999999999,791.0" /><text class="tip" x="4351.549999999999" y="804.25">Window #47</text><polygon class="el" fill="#8BBA00" opacity="0.75" points="4931.799999999999,856.0 4930.799999999999,1149.0 4983.799999999999,1149.0 4979.799999999999,855.0" /><text class="tip" x="4956.549999999999" y="997.25">Parking #48</text><polygon class="el" fill="#FF8E46" opacity="0.75" points="4290.799999999999,1089.0 4294.799999999999,1174.0 4194.799999999999,1179.0 4204.799999999999,1139.0 4234.799999999999,1099.0" /><text class="tip" x="4244.0" y="1131.0">Door #49</text><polygon class="el" fill="#F6BD0F" opacity="0.75" points="4777.799999999999,1443.0 4833.799999999999,1441.0 4829.799999999999,1301.0 4777.799999999999,1301.0" /><text class="tip" x="4804.799999999999" y="1366.5">Window #50</text><polygon class="el" fill="#F6BD0F" opacity="0.75" points="4693.799999999999,1525.0 4762.799999999999,1529.0 4764.799999999999,1576.0 4692.799999999999,1576.0" /><text class="tip" x="4728.549999999999" y="1546.5">Window #51</text><polygon class="el" fill="#FF8E46" opacity="0.75" points="4431.998936855087,1626.5896874384691 4474.367892828063,1626.2891983890154 4475.569849025878,1657.5400595322035 4461.146374652099,1657.2395704827497 4443.718009783783,1653.0327237903975 4431.998936855087,1638.3087603671647" /><text class="tip" x="4453.133333333333" y="1638.1666666666667">Door #52</text><polygon class="el" fill="#F6BD0F" opacity="0.75" points="4592.799999999999,1879.0 4644.799999999999,1880.0 4647.799999999999,2018.0 4595.799999999999,2018.0" /><text class="tip" x="4620.299999999999" y="1943.75">Window #53</text><polygon class="el" fill="#FF8E46" opacity="0.75" points="4582.799999999999,2059.0 4584.799999999999,2192.0 4490.799999999999,2192.0 4492.799999999999,2149.0 4498.799999999999,2099.0 4536.799999999999,2067.0" /><text class="tip" x="4531.133333333333" y="2121.333333333333">Door #54</text><polygon class="el" fill="#F6BD0F" opacity="0.75" points="4441.799999999999,2215.0 4489.799999999999,2218.0 4492.799999999999,2503.0 4443.799999999999,2501.0" /><text class="tip" x="4467.049999999999" y="2354.25">Window #55</text><polygon class="el" fill="#F6BD0F" opacity="0.75" points="3691.7999999999997,2510.0 3690.7999999999997,2554.0 3978.7999999999997,2553.0 3979.7999999999997,2508.0" /><text class="tip" x="3835.2999999999997" y="2526.25">Window #56</text><polygon class="el" fill="#F6BD0F" opacity="0.75" points="3612.7999999999997,1841.0 3560.7999999999997,1842.0 3559.7999999999997,1698.0 3611.7999999999997,1697.0" /><text class="tip" x="3586.2999999999997" y="1764.5">Window #57</text><polygon class="el" fill="#F6BD0F" opacity="0.75" points="3824.7999999999997,1463.0 3876.7999999999997,1464.0 3876.7999999999997,1388.0 3827.7999999999997,1387.0" /><text class="tip" x="3851.5499999999997" y="1420.5">Window #58</text><polygon class="el" fill="#F6BD0F" opacity="0.75" points="3827.2999999999997,1279.0 3877.2999999999997,1281.0 3878.2999999999997,1354.0 3826.2999999999997,1353.0" /><text class="tip" x="3852.2999999999997" y="1311.75">Window #59</text><polygon class="el" fill="#FF8E46" opacity="0.75" points="3982.7999999999997,1375.0 3979.7999999999997,1476.0 4080.7999999999997,1468.0 4065.7999999999997,1409.0 4023.7999999999997,1381.0" /><text class="tip" x="4026.5999999999995" y="1416.8">Door #60</text><polygon class="el" fill="#FF8E46" opacity="0.75" points="4041.6844962386567,1505.910366211434 3998.1590818239565,1506.3590818239566 3998.1590818239565,1548.538349401089 4019.2487156125226,1544.9486245009073 4036.7486245009068,1529.2435780626133" /><text class="tip" x="4018.7999999999997" y="1522.0">Door #61</text><polygon class="el" fill="#FF8E46" opacity="0.75" points="4084.7999999999997,1686.0 4088.7999999999997,1586.0 3990.7999999999997,1585.0 3995.7999999999997,1628.0 4029.7999999999997,1665.0" /><text class="tip" x="4038.0" y="1625.0">Door #62</text><polygon class="el" fill="#FF8E46" opacity="0.75" points="4396.799999999999,1513.0 4304.799999999999,1518.0 4305.799999999999,1427.0 4343.799999999999,1428.0 4393.799999999999,1470.0" /><text class="tip" x="4349.0" y="1466.2">Door #63</text><polygon class="el" fill="#FF8E46" opacity="0.75" points="4303.769635634296,1906.51615882427 4271.793145813725,1908.696374039309 4271.793145813725,1873.086192193673 4287.781390724011,1877.0832534212443 4300.862682014244,1891.618021521504" /><text class="tip" x="4287.2" y="1886.4">Door #64</text><polygon class="el" fill="#008E8E" opacity="0.4" points="3859.7999999999997,829.0 3855.7999999999997,1171.0 4934.799999999999,1170.0 4935.799999999999,828.0" /><text class="tip" x="4396.549999999999" y="994.5">Room #65</text><polygon class="el" fill="#008E8E" opacity="0.4" points="4314.799999999999,1206.0 4316.799999999999,1526.0 4777.799999999999,1527.0 4774.799999999999,1205.0" /><text class="tip" x="4546.049999999999" y="1361.0">Room #66</text><polygon class="el" fill="#008E8E" opacity="0.4" points="4185.799999999999,1207.0 4178.799999999999,1457.0 3989.7999999999997,1460.0 3987.7999999999997,1361.0 3882.7999999999997,1358.0 3879.7999999999997,1204.0" /><text class="tip" x="4017.4666666666662" y="1336.1666666666667">Room #67</text><polygon class="el" fill="#008E8E" opacity="0.4" points="3876.7999999999997,1576.0 3879.7999999999997,1376.0 3967.7999999999997,1375.0 3968.7999999999997,1578.0" /><text class="tip" x="3923.2999999999997" y="1471.25">Room #68</text><polygon class="el" fill="#008E8E" opacity="0.4" points="4101.799999999999,1939.5 4241.799999999999,1939.5 4238.799999999999,1730.5 4476.799999999999,1730.5 4475.799999999999,1543.5 4302.799999999999,1540.5 4296.799999999999,1184.5 4195.799999999999,1188.5 4193.799999999999,1473.5 3986.7999999999997,1478.5 3989.7999999999997,1577.5 4099.799999999999,1580.5" /><text class="tip" x="4216.716666666666" y="1570.5833333333333">Room #69</text><polygon class="el" fill="#008E8E" opacity="0.4" points="3611.7999999999997,1597.0 3609.7999999999997,1933.0 4085.7999999999997,1934.0 4084.7999999999997,1591.0" /><text class="tip" x="3848.0499999999997" y="1758.75">Room #70</text><polygon class="el" fill="#008E8E" opacity="0.4" points="4591.799999999999,1752.0 4596.799999999999,2143.0 4249.799999999999,2145.0 4249.799999999999,1746.0" /><text class="tip" x="4422.049999999999" y="1941.5">Room #71</text><polygon class="el" fill="#008E8E" opacity="0.4" points="3612.7999999999997,1952.0 3611.7999999999997,2504.0 4002.7999999999997,2505.0 4003.7999999999997,2450.0 4074.7999999999997,2448.0 4072.7999999999997,2504.0 4438.799999999999,2504.0 4440.799999999999,2161.0 4233.799999999999,2162.0 4232.799999999999,1947.0" /><text class="tip" x="4072.5" y="2308.7">Room #72</text><polygon class="el" fill="#D64646" opacity="0.75" points="4097.799999999999,1922.0 4240.799999999999,1922.0 4240.799999999999,1952.0 4097.799999999999,1952.0" /><text class="tip" x="4169.299999999999" y="1932.0">Separation #74</text><polygon class="el" fill="#9B59B6" opacity="0.75" points="4088.0535905618112,1957.348904696123 4399.32995567091,1957.348904696123 4399.32995567091,2579.9016349143203 4088.0535905618112,2579.9016349143203" /><text class="tip" x="4243.69177311636" y="2263.6252698052217">Stair #75</text><polygon fill="#9B59B6" opacity="0.6" points="4088.0535905618112,1957.348904696123 4399.32995567091,1957.348904696123 4399.32995567091,2579.9016349143203 4088.0535905618112,2579.9016349143203" stroke="#9B59B6" stroke-width="3" /><text fill="white" font-size="10px" font-weight="bold" text-anchor="middle" x="4243.69177311636" y="2272.6252698052217">STAIR</text></g><g id="f_Lower_Floor__Reference_"><text font-size="13px" font-weight="bold" text-anchor="middle" x="4214.299999999999" y="3938.8">Lower Floor (Reference)</text><polygon class="el" fill="#AFD8F8" opacity="0.75" points="4145.799999999999,4655.8 4314.799999999999,4657.8 4314.799999999999,4681.8 4145.799999999999,4680.8" /><text class="tip" x="4230.299999999999" y="4664.05">Wall #0</text><polygon class="el" fill="#AFD8F8" opacity="0.75" points="4297.799999999999,5034.8 4939.799999999999,5034.8 4939.799999999999,5059.8 4297.799999999999,5059.8" /><text class="tip" x="4618.799999999999" y="5042.3">Wall #1</text><polygon class="el" fill="#AFD8F8" opacity="0.75" points="3874.7999999999997,5223.8 3970.7999999999997,5223.8 3970.7999999999997,5230.8 3874.7999999999997,5230.8" /><text class="tip" x="3922.7999999999997" y="5222.3">Wall #2</text><polygon class="el" fill="#AFD8F8" opacity="0.75" points="4479.799999999999,5388.8 4523.799999999999,5389.8 4522.799999999999,5443.8 4480.799999999999,5444.8" /><text class="tip" x="4501.799999999999" y="5411.8">Wall #3</text><polygon class="el" fill="#AFD8F8" opacity="0.75" points="4764.799999999999,5388.8 4824.799999999999,5388.8 4825.799999999999,5433.8 4764.799999999999,5431.8" /><text class="tip" x="4795.049999999999" y="5405.8">Wall #4</text><polygon class="el" fill="#AFD8F8" opacity="0.75" points="4090.7999999999997,5441.8 4098.799999999999,5441.8 4096.799999999999,5796.8 4090.7999999999997,5796.8" /><text class="tip" x="4094.2999999999997" y="5614.3">Wall #5</text><polygon class="el" fill="#AFD8F8" opacity="0.75" points="4246.799999999999,5595.8 4480.799999999999,5596.8 4480.799999999999,5602.8 4246.799999999999,5602.8" /><text class="tip" x="4363.799999999999" y="5594.55">Wall #6</text><polygon class="el" fill="#AFD8F8" opacity="0.75" points="4597.799999999999,5603.8 4640.799999999999,5603.8 4640.799999999999,5734.8 4599.799999999999,5735.8" /><text class="tip" x="4619.799999999999" y="5664.55">Wall #7</text><polygon class="el" fill="#AFD8F8" opacity="0.75" points="4239.799999999999,5800.8 4246.799999999999,5799.8 4245.799999999999,6008.8 4239.799999999999,6007.8" /><text class="tip" x="4243.049999999999" y="5899.3">Wall #8</text><polygon class="el" fill="#AFD8F8" opacity="0.75" points="4445.799999999999,6358.8 4488.799999999999,6358.8 4487.799999999999,6411.8 4446.799999999999,6411.8" /><text class="tip" x="4467.299999999999" y="6380.3">Wall #9</text><polygon class="el" fill="#AFD8F8" opacity="0.75" points="4941.799999999999,4656.8 4965.799999999999,4656.8 4966.799999999999,4721.8 4941.799999999999,4717.8" /><text class="tip" x="4954.049999999999" y="4683.3">Wall #10</text><polygon class="el" fill="#AFD8F8" opacity="0.75" points="4939.799999999999,4997.8 4965.799999999999,4993.8 4965.799999999999,5059.8 4939.799999999999,5060.8" /><text class="tip" x="4952.799999999999" y="5023.05">Wall #11</text><polygon class="el" fill="#AFD8F8" opacity="0.75" points="3607.7999999999997,6368.8 3607.7999999999997,6410.8 3689.7999999999997,6410.8 3689.7999999999997,6368.8" /><text class="tip" x="3648.7999999999997" y="6384.8">Wall #12</text><polygon class="el" fill="#AFD8F8" opacity="0.75" points="3565.7999999999997,5554.8 3607.7999999999997,5554.8 3607.7999999999997,5450.8 3566.7999999999997,5450.8" /><text class="tip" x="3587.0499999999997" y="5497.8">Wall #13</text><polygon class="el" fill="#AFD8F8" opacity="0.75" points="3565.7999999999997,5698.8 3606.7999999999997,5698.8 3607.7999999999997,6411.8 3564.7999999999997,6410.8" /><text class="tip" x="3586.2999999999997" y="6050.05">Wall #14</text><polygon class="el" fill="#AFD8F8" opacity="0.75" points="4598.799999999999,5876.8 4641.799999999999,5877.8 4641.799999999999,6006.8 4598.799999999999,6006.8" /><text class="tip" x="4620.299999999999" y="5937.05">Wall #15</text><polygon class="el" fill="#AFD8F8" opacity="0.75" points="4586.799999999999,6050.8 4640.799999999999,6050.8 4641.799999999999,6007.8 4586.799999999999,6008.8" /><text class="tip" x="4614.049999999999" y="6024.55">Wall #16</text><polygon class="el" fill="#AFD8F8" opacity="0.75" points="4445.799999999999,6008.8 4444.799999999999,6016.8 4237.799999999999,6016.8 4238.799999999999,6008.8" /><text class="tip" x="4341.799999999999" y="6007.8">Wall #17</text><polygon class="el" fill="#AFD8F8" opacity="0.75" points="4492.799999999999,6050.8 4492.799999999999,6009.8 4445.799999999999,6008.8 4446.799999999999,6050.8" /><text class="tip" x="4469.549999999999" y="6025.05">Wall #18</text><polygon class="el" fill="#AFD8F8" opacity="0.75" points="4445.799999999999,6075.8 4487.799999999999,6075.8 4488.799999999999,6050.8 4445.799999999999,6049.8" /><text class="tip" x="4467.049999999999" y="6058.05">Wall #19</text><polygon class="el" fill="#AFD8F8" opacity="0.75" points="3976.7999999999997,6370.8 3976.7999999999997,6410.8 4446.799999999999,6411.8 4444.799999999999,6368.8 4070.7999999999997,6369.8 4007.7999999999997,6369.8" /><text class="tip" x="4153.966666666666" y="6378.633333333333">Wall #20</text><polygon class="el" fill="#AFD8F8" opacity="0.75" points="4481.799999999999,5548.8 4523.799999999999,5549.8 4523.799999999999,5602.8 4481.799999999999,5602.8" /><text class="tip" x="4502.799999999999" y="5571.05">Wall #21</text><polygon class="el" fill="#AFD8F8" opacity="0.75" points="4640.799999999999,5559.8 4640.799999999999,5603.8 4523.799999999999,5602.8 4523.799999999999,5559.8" /><text class="tip" x="4582.299999999999" y="5576.55">Wall #22</text><polygon class="el" fill="#AFD8F8" opacity="0.75" points="4782.799999999999,5301.8 4825.799999999999,5300.8 4824.799999999999,5388.8 4780.799999999999,5391.8" /><text class="tip" x="4803.549999999999" y="5340.8">Wall #23</text><polygon class="el" fill="#AFD8F8" opacity="0.75" points="4693.799999999999,5387.8 4692.799999999999,5432.8 4523.799999999999,5431.8 4523.799999999999,5387.8" /><text class="tip" x="4608.549999999999" y="5405.05">Wall #24</text><polygon class="el" fill="#AFD8F8" opacity="0.75" points="4311.799999999999,5387.8 4312.799999999999,5395.8 4478.799999999999,5397.8 4479.799999999999,5388.8" /><text class="tip" x="4395.799999999999" y="5387.55">Wall #25</text><polygon class="el" fill="#AFD8F8" opacity="0.75" points="4239.799999999999,5697.8 4245.799999999999,5699.8 4245.799999999999,5594.8 4239.799999999999,5594.8" /><text class="tip" x="4242.799999999999" y="5641.8">Wall #26</text><polygon class="el" fill="#AFD8F8" opacity="0.75" points="4387.799999999999,4656.8 4387.799999999999,4681.8 4941.799999999999,4682.8 4941.799999999999,4656.8" /><text class="tip" x="4664.799999999999" y="4664.55">Wall #27</text><polygon class="el" fill="#AFD8F8" opacity="0.75" points="4780.799999999999,5159.8 4824.799999999999,5159.8 4824.799999999999,5057.8 4780.799999999999,5057.8" /><text class="tip" x="4802.799999999999" y="5103.8">Wall #28</text><polygon class="el" fill="#AFD8F8" opacity="0.75" points="4303.799999999999,5277.8 4311.799999999999,5277.8 4309.799999999999,5058.8 4303.799999999999,5058.8" /><text class="tip" x="4307.299999999999" y="5163.3">Wall #29</text><polygon class="el" fill="#AFD8F8" opacity="0.75" points="3856.7999999999997,4681.8 3855.7999999999997,4656.8 4071.7999999999997,4655.8 4071.7999999999997,4681.8" /><text class="tip" x="3964.0499999999997" y="4664.05">Wall #30</text><polygon class="el" fill="#AFD8F8" opacity="0.75" points="3854.7999999999997,5033.8 3830.7999999999997,5033.8 3830.7999999999997,4656.8 3855.7999999999997,4657.8" /><text class="tip" x="3843.0499999999997" y="4840.55">Wall #31</text><polygon class="el" fill="#AFD8F8" opacity="0.75" points="3973.7999999999997,5333.8 3980.7999999999997,5334.8 3980.7999999999997,5222.8 3972.7999999999997,5222.8" /><text class="tip" x="3977.0499999999997" y="5273.55">Wall #32</text><polygon class="el" fill="#AFD8F8" opacity="0.75" points="3873.7999999999997,5440.8 3873.7999999999997,5449.8 3989.7999999999997,5448.8 3989.7999999999997,5442.8" /><text class="tip" x="3931.7999999999997" y="5440.55">Wall #33</text><polygon class="el" fill="#AFD8F8" opacity="0.75" points="3829.7999999999997,5321.8 3873.7999999999997,5321.8 3873.7999999999997,5404.8 3830.7999999999997,5404.8" /><text class="tip" x="3852.0499999999997" y="5358.3">Wall #34</text><polygon class="el" fill="#AFD8F8" opacity="0.75" points="3566.7999999999997,5406.8 3566.7999999999997,5449.8 3872.7999999999997,5448.8 3873.7999999999997,5405.8" /><text class="tip" x="3720.0499999999997" y="5422.8">Wall #35</text><polygon class="el" fill="#AFD8F8" opacity="0.75" points="3605.7999999999997,5797.8 3606.7999999999997,5804.8 4096.799999999999,5802.8 4097.799999999999,5795.8" /><text class="tip" x="3851.7999999999997" y="5795.3">Wall #36</text><polygon class="el" fill="#AFD8F8" opacity="0.75" points="3874.7999999999997,5058.8 3831.7999999999997,5058.8 3831.7999999999997,5139.8 3874.7999999999997,5139.8" /><text class="tip" x="3853.2999999999997" y="5094.3">Wall #37</text><polygon class="el" fill="#AFD8F8" opacity="0.75" points="4197.799999999999,5059.8 4196.799999999999,5033.8 3827.7999999999997,5032.8 3829.7999999999997,5060.8" /><text class="tip" x="4013.0499999999997" y="5041.8">Wall #38</text><polygon class="el" fill="#AFD8F8" opacity="0.75" points="3830.7999999999997,5216.8 3872.7999999999997,5216.8 3872.7999999999997,5246.8 3831.7999999999997,5246.8" /><text class="tip" x="3852.0499999999997" y="5226.8">Wall #39</text><polygon class="el" fill="#AFD8F8" opacity="0.75" points="4304.799999999999,5396.8 4311.799999999999,5395.8 4309.799999999999,5380.8 4303.799999999999,5380.8" /><text class="tip" x="4307.549999999999" y="5383.55">Wall #40</text><polygon class="el" fill="#AFD8F8" opacity="0.75" points="4080.7999999999997,5324.8 4080.7999999999997,5331.8 4185.799999999999,5330.8 4185.799999999999,5322.8" /><text class="tip" x="4133.299999999999" y="5322.55">Wall #41</text><polygon class="el" fill="#AFD8F8" opacity="0.75" points="4191.799999999999,5330.8 4185.799999999999,5329.8 4186.799999999999,5059.8 4192.799999999999,5060.8" /><text class="tip" x="4189.299999999999" y="5190.3">Wall #42</text><polygon class="el" fill="#AFD8F8" opacity="0.75" points="4008.7999999999997,6320.8 4014.7999999999997,6319.8 4015.7999999999997,6369.8 4007.7999999999997,6369.8" /><text class="tip" x="4011.7999999999997" y="6340.05">Wall #43</text><polygon class="el" fill="#AFD8F8" opacity="0.75" points="4068.7999999999997,6310.8 4068.7999999999997,6317.8 4008.7999999999997,6318.8 4008.7999999999997,6311.8" /><text class="tip" x="4038.7999999999997" y="6309.8">Wall #44</text><polygon class="el" fill="#AFD8F8" opacity="0.75" points="4068.7999999999997,6317.8 4061.7999999999997,6317.8 4061.7999999999997,6369.8 4068.7999999999997,6368.8" /><text class="tip" x="4065.2999999999997" y="6338.55">Wall #45</text><polygon class="el" fill="#F6BD0F" opacity="0.75" points="4073.7999999999997,4686.8 4144.799999999999,4684.8 4144.799999999999,4651.8 4067.7999999999997,4652.8" /><text class="tip" x="4107.799999999999" y="4664.05">Window #46</text><polygon class="el" fill="#F6BD0F" opacity="0.75" points="4316.799999999999,4686.8 4388.799999999999,4683.8 4387.799999999999,4651.8 4312.799999999999,4649.8" /><text class="tip" x="4351.549999999999" y="4663.05">Window #47</text><polygon class="el" fill="#8BBA00" opacity="0.75" points="4931.799999999999,4714.8 4930.799999999999,5007.8 4983.799999999999,5007.8 4979.799999999999,4713.8" /><text class="tip" x="4956.549999999999" y="4856.05">Parking #48</text><polygon class="el" fill="#FF8E46" opacity="0.75" points="4290.799999999999,4947.8 4294.799999999999,5032.8 4194.799999999999,5037.8 4204.799999999999,4997.8 4234.799999999999,4957.8" /><text class="tip" x="4244.0" y="4989.8">Door #49</text><polygon class="el" fill="#F6BD0F" opacity="0.75" points="4777.799999999999,5301.8 4833.799999999999,5299.8 4829.799999999999,5159.8 4777.799999999999,5159.8" /><text class="tip" x="4804.799999999999" y="5225.3">Window #50</text><polygon class="el" fill="#F6BD0F" opacity="0.75" points="4693.799999999999,5383.8 4762.799999999999,5387.8 4764.799999999999,5434.8 4692.799999999999,5434.8" /><text class="tip" x="4728.549999999999" y="5405.3">Window #51</text><polygon class="el" fill="#FF8E46" opacity="0.75" points="4382.799999999999,5446.8 4523.799999999999,5445.8 4527.799999999999,5549.8 4479.799999999999,5548.8 4421.799999999999,5534.8 4382.799999999999,5485.8" /><text class="tip" x="4453.133333333333" y="5496.966666666667">Door #52</text><polygon class="el" fill="#F6BD0F" opacity="0.75" points="4592.799999999999,5737.8 4644.799999999999,5738.8 4647.799999999999,5876.8 4595.799999999999,5876.8" /><text class="tip" x="4620.299999999999" y="5802.55">Window #53</text><polygon class="el" fill="#FF8E46" opacity="0.75" points="4582.799999999999,5917.8 4584.799999999999,6050.8 4490.799999999999,6050.8 4492.799999999999,6007.8 4498.799999999999,5957.8 4536.799999999999,5925.8" /><text class="tip" x="4531.133333333333" y="5980.133333333333">Door #54</text><polygon class="el" fill="#F6BD0F" opacity="0.75" points="4441.799999999999,6073.8 4489.799999999999,6076.8 4492.799999999999,6361.8 4443.799999999999,6359.8" /><text class="tip" x="4467.049999999999" y="6213.05">Window #55</text><polygon class="el" fill="#F6BD0F" opacity="0.75" points="3691.7999999999997,6368.8 3690.7999999999997,6412.8 3978.7999999999997,6411.8 3979.7999999999997,6366.8" /><text class="tip" x="3835.2999999999997" y="6385.05">Window #56</text><polygon class="el" fill="#F6BD0F" opacity="0.75" points="3612.7999999999997,5699.8 3560.7999999999997,5700.8 3559.7999999999997,5556.8 3611.7999999999997,5555.8" /><text class="tip" x="3586.2999999999997" y="5623.3">Window #57</text><polygon class="el" fill="#F6BD0F" opacity="0.75" points="3824.7999999999997,5321.8 3876.7999999999997,5322.8 3876.7999999999997,5246.8 3827.7999999999997,5245.8" /><text class="tip" x="3851.5499999999997" y="5279.3">Window #58</text><polygon class="el" fill="#F6BD0F" opacity="0.75" points="3827.2999999999997,5137.8 3877.2999999999997,5139.8 3878.2999999999997,5212.8 3826.2999999999997,5211.8" /><text class="tip" x="3852.2999999999997" y="5170.55">Window #59</text><polygon class="el" fill="#FF8E46" opacity="0.75" points="3982.7999999999997,5233.8 3979.7999999999997,5334.8 4080.7999999999997,5326.8 4065.7999999999997,5267.8 4023.7999999999997,5239.8" /><text class="tip" x="4026.5999999999995" y="5275.6">Door #60</text><polygon class="el" fill="#FF8E46" opacity="0.75" points="4069.7999999999997,5338.8 3972.7999999999997,5339.8 3972.7999999999997,5433.8 4019.7999999999997,5425.8 4058.7999999999997,5390.8" /><text class="tip" x="4018.7999999999997" y="5380.8">Door #61</text><polygon class="el" fill="#FF8E46" opacity="0.75" points="4084.7999999999997,5544.8 4088.7999999999997,5444.8 3990.7999999999997,5443.8 3995.7999999999997,5486.8 4029.7999999999997,5523.8" /><text class="tip" x="4038.0" y="5483.8">Door #62</text><polygon class="el" fill="#FF8E46" opacity="0.75" points="4396.799999999999,5371.8 4304.799999999999,5376.8 4305.799999999999,5285.8 4343.799999999999,5286.8 4393.799999999999,5328.8" /><text class="tip" x="4349.0" y="5325.0">Door #63</text><polygon class="el" fill="#FF8E46" opacity="0.75" points="4332.799999999999,5791.8 4244.799999999999,5797.8 4244.799999999999,5699.8 4288.799999999999,5710.8 4324.799999999999,5750.8" /><text class="tip" x="4287.2" y="5745.200000000001">Door #64</text><polygon class="el" fill="#008E8E" opacity="0.4" points="3859.7999999999997,4687.8 3855.7999999999997,5029.8 4934.799999999999,5028.8 4935.799999999999,4686.8" /><text class="tip" x="4396.549999999999" y="4853.3">Room #65</text><polygon class="el" fill="#008E8E" opacity="0.4" points="4314.799999999999,5064.8 4316.799999999999,5384.8 4777.799999999999,5385.8 4774.799999999999,5063.8" /><text class="tip" x="4546.049999999999" y="5219.8">Room #66</text><polygon class="el" fill="#008E8E" opacity="0.4" points="4185.799999999999,5065.8 4178.799999999999,5315.8 3989.7999999999997,5318.8 3987.7999999999997,5219.8 3882.7999999999997,5216.8 3879.7999999999997,5062.8" /><text class="tip" x="4017.4666666666662" y="5194.966666666667">Room #67</text><polygon class="el" fill="#008E8E" opacity="0.4" points="3876.7999999999997,5434.8 3879.7999999999997,5234.8 3967.7999999999997,5233.8 3968.7999999999997,5436.8" /><text class="tip" x="3923.2999999999997" y="5330.05">Room #68</text><polygon class="el" fill="#008E8E" opacity="0.4" points="4101.799999999999,5798.3 4241.799999999999,5798.3 4238.799999999999,5589.3 4476.799999999999,5589.3 4475.799999999999,5402.3 4302.799999999999,5399.3 4296.799999999999,5043.3 4195.799999999999,5047.3 4193.799999999999,5332.3 3986.7999999999997,5337.3 3989.7999999999997,5436.3 4099.799999999999,5439.3" /><text class="tip" x="4216.716666666666" y="5429.383333333333">Room #69</text><polygon class="el" fill="#008E8E" opacity="0.4" points="3611.7999999999997,5455.8 3609.7999999999997,5791.8 4085.7999999999997,5792.8 4084.7999999999997,5449.8" /><text class="tip" x="3848.0499999999997" y="5617.55">Room #70</text><polygon class="el" fill="#008E8E" opacity="0.4" points="4591.799999999999,5610.8 4596.799999999999,6001.8 4249.799999999999,6003.8 4249.799999999999,5604.8" /><text class="tip" x="4422.049999999999" y="5800.3">Room #71</text><polygon class="el" fill="#008E8E" opacity="0.4" points="3612.7999999999997,5810.8 3611.7999999999997,6362.8 4002.7999999999997,6363.8 4003.7999999999997,6308.8 4074.7999999999997,6306.8 4072.7999999999997,6362.8 4438.799999999999,6362.8 4440.799999999999,6019.8 4233.799999999999,6020.8 4232.799999999999,5805.8" /><text class="tip" x="4072.5" y="6167.5">Room #72</text><polygon class="el" fill="#AFD8F8" opacity="0.75" points="4616.799999999999,6386.8 4642.799999999999,6387.8 4640.799999999999,6409.8 4616.799999999999,6409.8" /><text class="tip" x="4629.299999999999" y="6393.55">Wall #73</text><polygon class="el" fill="#D64646" opacity="0.75" points="4097.799999999999,5780.8 4240.799999999999,5780.8 4240.799999999999,5810.8 4097.799999999999,5810.8" /><text class="tip" x="4169.299999999999" y="5790.8">Separation #74</text><polygon class="el" fill="#9B59B6" opacity="0.75" points="4098.402495257935,5805.8 4409.678860367033,5805.8 4409.678860367033,6428.352730218197 4098.402495257935,6428.352730218197" /><text class="tip" x="4254.040677812483" y="6112.076365109098">Stair #75</text><polygon fill="#9B59B6" opacity="0.6" points="4098.402495257935,5805.8 4409.678860367033,5805.8 4409.678860367033,6428.352730218197 4098.402495257935,6428.352730218197" stroke="#9B59B6" stroke-width="3" /><text fill="white" font-size="10px" font-weight="bold" text-anchor="middle" x="4254.040677812483" y="6121.076365109098">STAIR</text></g><text fill="#27AE60" font-size="13px" font-weight="bold" x="50.0" y="8499.199999999999">Stair: 0.55</text><text fill="#27AE60" font-size="13px" font-weight="bold" x="1239.9199999999998" y="8499.199999999999">Wall: 0.74</text><text fill="#27AE60" font-size="13px" font-weight="bold" x="2429.8399999999997" y="8499.199999999999">Door: 0.74</text><text fill="#27AE60" font-size="13px" font-weight="bold" x="3619.7599999999993" y="8499.199999999999">Egress: 1.00</text><text fill="#E74C3C" font-size="13px" font-weight="bold" x="4809.679999999999" y="8499.199999999999">Overall: 0.00</text></svg>