<?xml version="1.0" encoding="utf-8" ?>
<svg baseProfile="full" height="3608.0px" version="1.1" width="5456.0px" xmlns="http://www.w3.org/2000/svg" xmlns:ev="http://www.w3.org/2001/xml-events" xmlns:xlink="http://www.w3.org/1999/xlink"><defs><style type="text/css"><![CDATA[
        .element:hover { stroke: #E74C3C; stroke-width: 3; cursor: pointer; }
        .tooltip { visibility: hidden; font-size: 12px; }
        .element:hover + .tooltip { visibility: visible; }
        @keyframes pulse { 0%,100% { opacity: 0.3; } 50% { opacity: 1; } }
        .problem { animation: pulse 1.5s infinite; stroke: red; stroke-width: 2; }
    ]]></style></defs><text fill="#2C3E50" font-size="18px" font-weight="bold" text-anchor="middle" x="2728.0" y="25">Multi-Story Floor Plan Coherence</text><text font-size="14px" font-weight="bold" text-anchor="middle" x="1250.0" y="50">Floor 1 (Lower)</text><g id="floor_Floor_1__Lower_"><polygon class="element" fill="#AFD8F8" opacity="0.8" points="693.0,809.0 650.0,810.0 649.0,886.0 692.0,888.0"><title>Wall (id=0)</title></polygon><text class="tooltip" fill="#333" font-size="9px" x="671.0" y="843.25">Wall #0</text><polygon class="element" fill="#AFD8F8" opacity="0.8" points="650.0,769.0 650.0,810.0 1624.0,811.0 1624.0,769.0"><title>Wall (id=1)</title></polygon><text class="tooltip" fill="#333" font-size="9px" x="1137.0" y="784.75">Wall #1</text><polygon class="element" fill="#AFD8F8" opacity="0.8" points="1666.0,885.0 1624.0,885.0 1624.0,769.0 1666.0,769.0"><title>Wall (id=2)</title></polygon><text class="tooltip" fill="#333" font-size="9px" x="1645.0" y="822.0">Wall #2</text><polygon class="element" fill="#AFD8F8" opacity="0.8" points="1665.0,1031.0 1624.0,1031.0 1625.0,1328.0 1666.0,1328.0"><title>Wall (id=3)</title></polygon><text class="tooltip" fill="#333" font-size="9px" x="1645.0" y="1174.5">Wall #3</text><polygon class="element" fill="#AFD8F8" opacity="0.8" points="1666.0,1403.0 1624.0,1403.0 1624.0,1495.0 1666.0,1495.0"><title>Wall (id=4)</title></polygon><text class="tooltip" fill="#333" font-size="9px" x="1645.0" y="1444.0">Wall #4</text><polygon class="element" fill="#AFD8F8" opacity="0.8" points="1625.0,1529.0 1625.0,1538.0 1399.0,1538.0 1400.0,1530.0"><title>Wall (id=5)</title></polygon><text class="tooltip" fill="#333" font-size="9px" x="1512.25" y="1528.75">Wall #5</text><polygon class="element" fill="#AFD8F8" opacity="0.8" points="1182.0,811.0 1188.0,810.0 1188.0,1058.0 1181.0,1058.0"><title>Wall (id=6)</title></polygon><text class="tooltip" fill="#333" font-size="9px" x="1184.75" y="929.25">Wall #6</text><polygon class="element" fill="#AFD8F8" opacity="0.8" points="1180.0,1201.0 1180.0,1207.0 1293.0,1206.0 1293.0,1201.0"><title>Wall (id=7)</title></polygon><text class="tooltip" fill="#333" font-size="9px" x="1236.5" y="1198.75">Wall #7</text><polygon class="element" fill="#AFD8F8" opacity="0.8" points="1765.0,1867.0 1765.0,1874.0 1854.0,1874.0 1854.0,1867.0"><title>Wall (id=8)</title></polygon><text class="tooltip" fill="#333" font-size="9px" x="1809.5" y="1865.5">Wall #8</text><polygon class="element" fill="#AFD8F8" opacity="0.8" points="1854.0,1537.0 1896.0,1537.0 1897.0,1675.0 1854.0,1675.0"><title>Wall (id=9)</title></polygon><text class="tooltip" fill="#333" font-size="9px" x="1875.25" y="1601.0">Wall #9</text><polygon class="element" fill="#AFD8F8" opacity="0.8" points="1897.0,1496.0 1897.0,1537.0 1624.0,1537.0 1623.0,1495.0"><title>Wall (id=10)</title></polygon><text class="tooltip" fill="#333" font-size="9px" x="1760.25" y="1511.25">Wall #10</text><polygon class="element" fill="#AFD8F8" opacity="0.8" points="1393.0,1200.0 1393.0,1207.0 1625.0,1207.0 1624.0,1200.0"><title>Wall (id=11)</title></polygon><text class="tooltip" fill="#333" font-size="9px" x="1508.75" y="1198.5">Wall #11</text><polygon class="element" fill="#AFD8F8" opacity="0.8" points="650.0,1033.0 691.0,1033.0 692.0,1258.0 650.0,1258.0"><title>Wall (id=12)</title></polygon><text class="tooltip" fill="#333" font-size="9px" x="670.75" y="1140.5">Wall #12</text><polygon class="element" fill="#AFD8F8" opacity="0.8" points="1074.0,1148.0 1074.0,1141.0 691.0,1141.0 691.0,1148.0"><title>Wall (id=13)</title></polygon><text class="tooltip" fill="#333" font-size="9px" x="882.5" y="1139.5">Wall #13</text><polygon class="element" fill="#AFD8F8" opacity="0.8" points="1074.0,1207.0 1074.0,1142.0 1081.0,1141.0 1082.0,1207.0"><title>Wall (id=14)</title></polygon><text class="tooltip" fill="#333" font-size="9px" x="1077.75" y="1169.25">Wall #14</text><polygon class="element" fill="#AFD8F8" opacity="0.8" points="650.0,1399.0 692.0,1399.0 693.0,1478.0 649.0,1479.0"><title>Wall (id=15)</title></polygon><text class="tooltip" fill="#333" font-size="9px" x="671.0" y="1433.75">Wall #15</text><polygon class="element" fill="#AFD8F8" opacity="0.8" points="650.0,1522.0 649.0,1476.0 1040.0,1478.0 1041.0,1521.0"><title>Wall (id=16)</title></polygon><text class="tooltip" fill="#333" font-size="9px" x="845.0" y="1494.25">Wall #16</text><polygon class="element" fill="#AFD8F8" opacity="0.8" points="1080.0,1567.0 1039.0,1569.0 1040.0,1477.0 1082.0,1477.0"><title>Wall (id=17)</title></polygon><text class="tooltip" fill="#333" font-size="9px" x="1060.25" y="1517.5">Wall #17</text><polygon class="element" fill="#AFD8F8" opacity="0.8" points="1074.0,1306.0 1082.0,1306.0 1082.0,1477.0 1074.0,1477.0"><title>Wall (id=18)</title></polygon><text class="tooltip" fill="#333" font-size="9px" x="1078.0" y="1386.5">Wall #18</text><polygon class="element" fill="#AFD8F8" opacity="0.8" points="1081.0,1530.0 1081.0,1537.0 1181.0,1537.0 1181.0,1530.0"><title>Wall (id=19)</title></polygon><text class="tooltip" fill="#333" font-size="9px" x="1131.0" y="1528.5">Wall #19</text><polygon class="element" fill="#AFD8F8" opacity="0.8" points="1187.0,1306.0 1181.0,1306.0 1181.0,1537.0 1188.0,1537.0"><title>Wall (id=20)</title></polygon><text class="tooltip" fill="#333" font-size="9px" x="1184.25" y="1416.5">Wall #20</text><polygon class="element" fill="#AFD8F8" opacity="0.8" points="1084.0,1668.0 1039.0,1669.0 1038.0,1951.0 1084.0,1949.0"><title>Wall (id=21)</title></polygon><text class="tooltip" fill="#333" font-size="9px" x="1061.25" y="1804.25">Wall #21</text><polygon class="element" fill="#AFD8F8" opacity="0.8" points="1082.0,2165.0 1040.0,2165.0 1040.0,2261.0 1082.0,2261.0"><title>Wall (id=22)</title></polygon><text class="tooltip" fill="#333" font-size="9px" x="1061.0" y="2208.0">Wall #22</text><polygon class="element" fill="#AFD8F8" opacity="0.8" points="1040.0,2304.0 1040.0,2261.0 1514.0,2263.0 1514.0,2305.0"><title>Wall (id=23)</title></polygon><text class="tooltip" fill="#333" font-size="9px" x="1277.0" y="2278.25">Wall #23</text><polygon class="element" fill="#AFD8F8" opacity="0.8" points="1258.0,1066.0 1259.0,1200.0 1265.0,1200.0 1265.0,1066.0"><title>Wall (id=24)</title></polygon><text class="tooltip" fill="#333" font-size="9px" x="1261.75" y="1128.0">Wall #24</text><polygon class="element" fill="#AFD8F8" opacity="0.8" points="1181.0,1059.0 1181.0,1065.0 1264.0,1065.0 1265.0,1058.0"><title>Wall (id=25)</title></polygon><text class="tooltip" fill="#333" font-size="9px" x="1222.75" y="1056.75">Wall #25</text><polygon class="element" fill="#AFD8F8" opacity="0.8" points="1288.0,1536.0 1294.0,1536.0 1293.0,1314.0 1287.0,1314.0"><title>Wall (id=26)</title></polygon><text class="tooltip" fill="#333" font-size="9px" x="1290.5" y="1420.0">Wall #26</text><polygon class="element" fill="#AFD8F8" opacity="0.8" points="1287.0,1306.0 1288.0,1313.0 1395.0,1313.0 1394.0,1306.0"><title>Wall (id=27)</title></polygon><text class="tooltip" fill="#333" font-size="9px" x="1341.0" y="1304.5">Wall #27</text><polygon class="element" fill="#AFD8F8" opacity="0.8" points="1470.0,1536.0 1477.0,1536.0 1477.0,1681.0 1477.0,1874.0 1471.0,1874.0"><title>Wall (id=28)</title></polygon><text class="tooltip" fill="#333" font-size="9px" x="1474.4" y="1695.2">Wall #28</text><polygon class="element" fill="#AFD8F8" opacity="0.8" points="1394.0,1654.0 1394.0,1660.0 1470.0,1660.0 1470.0,1654.0"><title>Wall (id=29)</title></polygon><text class="tooltip" fill="#333" font-size="9px" x="1432.0" y="1652.0">Wall #29</text><polygon class="element" fill="#AFD8F8" opacity="0.8" points="1394.0,1299.0 1401.0,1299.0 1401.0,1562.0 1393.0,1562.0"><title>Wall (id=30)</title></polygon><text class="tooltip" fill="#333" font-size="9px" x="1397.25" y="1425.5">Wall #30</text><polygon class="element" fill="#AFD8F8" opacity="0.8" points="1897.0,1823.0 1854.0,1823.0 1854.0,2261.0 1896.0,2261.0"><title>Wall (id=31)</title></polygon><text class="tooltip" fill="#333" font-size="9px" x="1875.25" y="2037.0">Wall #31</text><polygon class="element" fill="#AFD8F8" opacity="0.8" points="1896.0,2304.0 1896.0,2261.0 1661.0,2262.0 1663.0,2304.0"><title>Wall (id=32)</title></polygon><text class="tooltip" fill="#333" font-size="9px" x="1779.0" y="2277.75">Wall #32</text><polygon class="element" fill="#F6BD0F" opacity="0.8" points="644.0,887.0 695.0,886.0 697.0,1030.0 646.0,1028.0"><title>Window (id=33)</title></polygon><text class="tooltip" fill="#333" font-size="9px" x="670.5" y="952.75">Window #33</text><polygon class="element" fill="#F6BD0F" opacity="0.8" points="643.0,1257.0 695.0,1259.0 697.0,1400.0 642.0,1400.0"><title>Window (id=34)</title></polygon><text class="tooltip" fill="#333" font-size="9px" x="669.25" y="1324.0">Window #34</text><polygon class="element" fill="#AFD8F8" opacity="0.8" points="903.0,1809.0 929.0,1807.0 930.0,1835.0 904.0,1836.0"><title>Wall (id=35)</title></polygon><text class="tooltip" fill="#333" font-size="9px" x="916.5" y="1816.75">Wall #35</text><polygon class="element" fill="#FF8E46" opacity="0.8" points="1179.0,1567.0 1037.0,1568.0 1036.0,1676.0 1084.0,1674.0 1143.0,1657.0 1177.0,1616.0 1178.0,1591.5"><title>Door (id=36)</title></polygon><text class="tooltip" fill="#333" font-size="9px" x="1119.142857142857" y="1616.357142857143">Door #36</text><polygon class="element" fill="#AFD8F8" opacity="0.8" points="903.0,2279.0 928.0,2279.0 928.0,2305.0 902.0,2306.0"><title>Wall (id=37)</title></polygon><text class="tooltip" fill="#333" font-size="9px" x="915.25" y="2287.25">Wall #37</text><polygon class="element" fill="#F6BD0F" opacity="0.8" points="1150.0,2087.0 1083.0,2088.0 1085.0,2164.0 1038.0,2166.0 1036.0,1952.0 1148.0,1953.0 1146.0,1995.0 1111.0,2020.0 1141.0,2045.0"><title>Window (id=38)</title></polygon><text class="tooltip" fill="#333" font-size="9px" x="1104.2222222222222" y="2047.2222222222222">Window #38</text><polygon class="element" fill="#F6BD0F" opacity="0.8" points="1516.0,2259.0 1517.0,2306.0 1662.0,2308.0 1661.0,2260.0"><title>Window (id=39)</title></polygon><text class="tooltip" fill="#333" font-size="9px" x="1589.0" y="2278.25">Window #39</text><polygon class="element" fill="#F6BD0F" opacity="0.8" points="1850.0,1675.0 1901.0,1673.0 1902.0,1821.0 1852.0,1823.0"><title>Window (id=40)</title></polygon><text class="tooltip" fill="#333" font-size="9px" x="1876.25" y="1743.0">Window #40</text><polygon class="element" fill="#F6BD0F" opacity="0.8" points="1619.0,1326.0 1669.0,1326.0 1669.0,1402.0 1621.0,1403.0"><title>Window (id=41)</title></polygon><text class="tooltip" fill="#333" font-size="9px" x="1644.5" y="1359.25">Window #41</text><polygon class="element" fill="#F6BD0F" opacity="0.8" points="1620.0,881.0 1670.0,882.0 1671.0,1028.0 1620.0,1030.0"><title>Window (id=42)</title></polygon><text class="tooltip" fill="#333" font-size="9px" x="1645.25" y="950.25">Window #42</text><polygon class="element" fill="#FF8E46" opacity="0.8" points="1387.5,1111.0 1389.5,1201.0 1294.5,1202.0 1301.5,1156.0 1336.5,1119.0"><title>Door (id=43)</title></polygon><text class="tooltip" fill="#333" font-size="9px" x="1341.9" y="1152.8">Door #43</text><polygon class="element" fill="#FF8E46" opacity="0.8" points="1491.0,1208.0 1391.0,1207.0 1393.0,1309.0 1447.0,1298.0 1486.0,1253.0"><title>Door (id=44)</title></polygon><text class="tooltip" fill="#333" font-size="9px" x="1441.6" y="1250.0">Door #44</text><polygon class="element" fill="#FF8E46" opacity="0.8" points="1176.0,1110.0 1177.0,1208.0 1081.0,1206.0 1091.0,1159.0 1126.0,1121.0"><title>Door (id=45)</title></polygon><text class="tooltip" fill="#333" font-size="9px" x="1130.2" y="1155.8">Door #45</text><polygon class="element" fill="#FF8E46" opacity="0.8" points="983.0,1209.0 1077.0,1206.0 1082.0,1304.0 1032.0,1294.0 997.0,1260.0"><title>Door (id=46)</title></polygon><text class="tooltip" fill="#333" font-size="9px" x="1034.2" y="1249.6">Door #46</text><polygon class="element" fill="#FF8E46" opacity="0.8" points="1178.0,1405.0 1180.0,1305.0 1078.0,1301.0 1095.0,1362.0 1135.0,1397.0"><title>Door (id=47)</title></polygon><text class="tooltip" fill="#333" font-size="9px" x="1133.2" y="1349.0">Door #47</text><polygon class="element" fill="#FF8E46" opacity="0.8" points="1308.0,1583.0 1395.0,1530.0 1292.0,1533.0 1296.0,1561.0"><title>Door (id=48)</title></polygon><text class="tooltip" fill="#333" font-size="9px" x="1322.75" y="1546.75">Door #48</text><polygon class="element" fill="#FF8E46" opacity="0.8" points="1348.0,1641.0 1398.0,1547.0 1393.0,1652.0 1367.0,1649.0"><title>Door (id=49)</title></polygon><text class="tooltip" fill="#333" font-size="9px" x="1376.5" y="1617.25">Door #49</text><polygon class="element" fill="#008E8E" opacity="0.5" points="694.5,812.5 694.5,1133.5 1078.5,1133.5 1083.5,1193.5 1253.5,1197.5 1251.5,1069.5 1177.5,1067.5 1175.5,815.5"><title>Room (id=50)</title></polygon><text class="tooltip" fill="#333" font-size="9px" x="1051.125" y="1047.875">Room #50</text><polygon class="element" fill="#008E8E" opacity="0.5" points="1193.0,817.0 1192.0,1050.0 1269.0,1055.0 1268.0,1193.0 1618.0,1194.0 1619.0,815.0"><title>Room (id=51)</title></polygon><text class="tooltip" fill="#333" font-size="9px" x="1359.8333333333333" y="1015.6666666666666">Room #51</text><polygon class="element" fill="#008E8E" opacity="0.5" points="697.0,1153.0 694.0,1470.0 1071.0,1472.0 1069.0,1153.0"><title>Room (id=52)</title></polygon><text class="tooltip" fill="#333" font-size="9px" x="882.75" y="1307.0">Room #52</text><polygon class="element" fill="#008E8E" opacity="0.5" points="1618.0,1210.0 1619.0,1525.0 1406.0,1524.0 1402.0,1210.0"><title>Room (id=53)</title></polygon><text class="tooltip" fill="#333" font-size="9px" x="1511.25" y="1362.25">Room #53</text><polygon class="element" fill="#008E8E" opacity="0.5" points="1079.0,1207.0 1386.0,1205.0 1390.0,1300.0 1283.0,1299.0 1287.0,1527.0 1188.0,1527.0 1190.0,1300.0 1077.0,1298.0"><title>Room (id=54)</title></polygon><text class="tooltip" fill="#333" font-size="9px" x="1235.0" y="1327.875">Room #54</text><polygon class="element" fill="#008E8E" opacity="0.5" points="1086.0,1525.0 1177.0,1526.0 1176.0,1308.0 1086.0,1307.0"><title>Room (id=55)</title></polygon><text class="tooltip" fill="#333" font-size="9px" x="1131.25" y="1411.5">Room #55</text><polygon class="element" fill="#008E8E" opacity="0.5" points="1389.5,1316.5 1389.5,1523.5 1296.5,1529.5 1294.5,1317.5"><title>Room (id=56)</title></polygon><text class="tooltip" fill="#333" font-size="9px" x="1342.5" y="1416.75">Room #56</text><polygon class="element" fill="#008E8E" opacity="0.5" points="1477.5,1540.5 1478.0,1862.0 1850.5,1862.5 1850.5,1539.5"><title>Room (id=57)</title></polygon><text class="tooltip" fill="#333" font-size="9px" x="1664.125" y="1696.125">Room #57</text><polygon class="element" fill="#008E8E" opacity="0.5" points="1083.0,1679.0 1085.0,2255.5 1848.0,2256.5 1846.0,1875.5 1468.0,1874.5 1470.0,1675.0"><title>Room (id=58)</title></polygon><text class="tooltip" fill="#333" font-size="9px" x="1466.6666666666667" y="1931.0">Room #58</text><polygon class="element" fill="#008E8E" opacity="0.5" points="1085.5,1542.0 1084.5,1668.0 1388.5,1663.0 1390.5,1538.0"><title>Room (id=59)</title></polygon><text class="tooltip" fill="#333" font-size="9px" x="1237.25" y="1597.75">Room #59</text><polygon class="element" fill="#008E8E" opacity="0.5" points="1401.0,1539.0 1469.0,1538.0 1469.0,1655.0 1397.0,1656.0"><title>Room (id=60)</title></polygon><text class="tooltip" fill="#333" font-size="9px" x="1434.0" y="1592.0">Room #60</text><polygon class="element" fill="#D64646" opacity="0.8" points="1478.0,1861.0 1761.0,1861.0 1761.0,1877.0 1478.0,1877.0"><title>Separation (id=61)</title></polygon><text class="tooltip" fill="#333" font-size="9px" x="1619.5" y="1864.0">Separation #61</text><polygon class="element" fill="#D64646" opacity="0.8" points="1081.0,1665.0 1393.0,1663.0 1393.0,1678.0 1081.0,1679.0"><title>Separation (id=62)</title></polygon><text class="tooltip" fill="#333" font-size="9px" x="1237.0" y="1666.25">Separation #62</text><polygon class="element" fill="#D64646" opacity="0.8" points="1188.0,1524.0 1285.0,1524.0 1285.0,1539.0 1188.0,1539.0"><title>Separation (id=63)</title></polygon><text class="tooltip" fill="#333" font-size="9px" x="1236.5" y="1526.5">Separation #63</text><polygon class="element" fill="#9B59B6" opacity="0.8" points="1342.89407621654,1675.0 1778.7752617460228,1675.0 1778.7752617460228,2546.762371058966 1342.89407621654,2546.762371058966"><title>Stair (id=64)</title></polygon><text class="tooltip" fill="#333" font-size="9px" x="1560.8346689812815" y="2105.881185529483">Stair #64</text><polygon class="problem" fill="#9B59B6" opacity="0.6" points="1342.89407621654,1675.0 1778.7752617460228,1675.0 1778.7752617460228,2546.762371058966 1342.89407621654,2546.762371058966" /></g><text font-size="14px" font-weight="bold" text-anchor="middle" x="3750.0" y="50">Floor 2 (Upper)</text><g id="floor_Floor_2__Upper_"><polygon class="element" fill="#AFD8F8" opacity="0.8" points="3193.0,809.0 3150.0,810.0 3149.0,886.0 3192.0,888.0"><title>Wall (id=0)</title></polygon><text class="tooltip" fill="#333" font-size="9px" x="3171.0" y="843.25">Wall #0</text><polygon class="element" fill="#AFD8F8" opacity="0.8" points="3150.0,769.0 3150.0,810.0 4124.0,811.0 4124.0,769.0"><title>Wall (id=1)</title></polygon><text class="tooltip" fill="#333" font-size="9px" x="3637.0" y="784.75">Wall #1</text><polygon class="element" fill="#AFD8F8" opacity="0.8" points="4166.0,885.0 4124.0,885.0 4124.0,769.0 4166.0,769.0"><title>Wall (id=2)</title></polygon><text class="tooltip" fill="#333" font-size="9px" x="4145.0" y="822.0">Wall #2</text><polygon class="element" fill="#AFD8F8" opacity="0.8" points="4165.0,1031.0 4124.0,1031.0 4125.0,1328.0 4166.0,1328.0"><title>Wall (id=3)</title></polygon><text class="tooltip" fill="#333" font-size="9px" x="4145.0" y="1174.5">Wall #3</text><polygon class="element" fill="#AFD8F8" opacity="0.8" points="4166.0,1403.0 4124.0,1403.0 4124.0,1495.0 4166.0,1495.0"><title>Wall (id=4)</title></polygon><text class="tooltip" fill="#333" font-size="9px" x="4145.0" y="1444.0">Wall #4</text><polygon class="element" fill="#AFD8F8" opacity="0.8" points="4125.0,1529.0 4125.0,1538.0 3899.0,1538.0 3900.0,1530.0"><title>Wall (id=5)</title></polygon><text class="tooltip" fill="#333" font-size="9px" x="4012.25" y="1528.75">Wall #5</text><polygon class="element" fill="#AFD8F8" opacity="0.8" points="3682.0,811.0 3688.0,810.0 3688.0,1058.0 3681.0,1058.0"><title>Wall (id=6)</title></polygon><text class="tooltip" fill="#333" font-size="9px" x="3684.75" y="929.25">Wall #6</text><polygon class="element" fill="#AFD8F8" opacity="0.8" points="3680.0,1201.0 3680.0,1207.0 3793.0,1206.0 3793.0,1201.0"><title>Wall (id=7)</title></polygon><text class="tooltip" fill="#333" font-size="9px" x="3736.5" y="1198.75">Wall #7</text><polygon class="element" fill="#AFD8F8" opacity="0.8" points="4265.0,1867.0 4265.0,1874.0 4354.0,1874.0 4354.0,1867.0"><title>Wall (id=8)</title></polygon><text class="tooltip" fill="#333" font-size="9px" x="4309.5" y="1865.5">Wall #8</text><polygon class="element" fill="#AFD8F8" opacity="0.8" points="4354.0,1537.0 4396.0,1537.0 4397.0,1675.0 4354.0,1675.0"><title>Wall (id=9)</title></polygon><text class="tooltip" fill="#333" font-size="9px" x="4375.25" y="1601.0">Wall #9</text><polygon class="element" fill="#AFD8F8" opacity="0.8" points="4397.0,1496.0 4397.0,1537.0 4124.0,1537.0 4123.0,1495.0"><title>Wall (id=10)</title></polygon><text class="tooltip" fill="#333" font-size="9px" x="4260.25" y="1511.25">Wall #10</text><polygon class="element" fill="#AFD8F8" opacity="0.8" points="3893.0,1200.0 3893.0,1207.0 4125.0,1207.0 4124.0,1200.0"><title>Wall (id=11)</title></polygon><text class="tooltip" fill="#333" font-size="9px" x="4008.75" y="1198.5">Wall #11</text><polygon class="element" fill="#AFD8F8" opacity="0.8" points="3150.0,1033.0 3191.0,1033.0 3192.0,1258.0 3150.0,1258.0"><title>Wall (id=12)</title></polygon><text class="tooltip" fill="#333" font-size="9px" x="3170.75" y="1140.5">Wall #12</text><polygon class="element" fill="#AFD8F8" opacity="0.8" points="3574.0,1148.0 3574.0,1141.0 3191.0,1141.0 3191.0,1148.0"><title>Wall (id=13)</title></polygon><text class="tooltip" fill="#333" font-size="9px" x="3382.5" y="1139.5">Wall #13</text><polygon class="element" fill="#AFD8F8" opacity="0.8" points="3574.0,1207.0 3574.0,1142.0 3581.0,1141.0 3582.0,1207.0"><title>Wall (id=14)</title></polygon><text class="tooltip" fill="#333" font-size="9px" x="3577.75" y="1169.25">Wall #14</text><polygon class="element" fill="#AFD8F8" opacity="0.8" points="3150.0,1399.0 3192.0,1399.0 3193.0,1478.0 3149.0,1479.0"><title>Wall (id=15)</title></polygon><text class="tooltip" fill="#333" font-size="9px" x="3171.0" y="1433.75">Wall #15</text><polygon class="element" fill="#AFD8F8" opacity="0.8" points="3150.0,1522.0 3149.0,1476.0 3540.0,1478.0 3541.0,1521.0"><title>Wall (id=16)</title></polygon><text class="tooltip" fill="#333" font-size="9px" x="3345.0" y="1494.25">Wall #16</text><polygon class="element" fill="#AFD8F8" opacity="0.8" points="3580.0,1567.0 3539.0,1569.0 3540.0,1477.0 3582.0,1477.0"><title>Wall (id=17)</title></polygon><text class="tooltip" fill="#333" font-size="9px" x="3560.25" y="1517.5">Wall #17</text><polygon class="element" fill="#AFD8F8" opacity="0.8" points="3574.0,1306.0 3582.0,1306.0 3582.0,1477.0 3574.0,1477.0"><title>Wall (id=18)</title></polygon><text class="tooltip" fill="#333" font-size="9px" x="3578.0" y="1386.5">Wall #18</text><polygon class="element" fill="#AFD8F8" opacity="0.8" points="3581.0,1530.0 3581.0,1537.0 3681.0,1537.0 3681.0,1530.0"><title>Wall (id=19)</title></polygon><text class="tooltip" fill="#333" font-size="9px" x="3631.0" y="1528.5">Wall #19</text><polygon class="element" fill="#AFD8F8" opacity="0.8" points="3687.0,1306.0 3681.0,1306.0 3681.0,1537.0 3688.0,1537.0"><title>Wall (id=20)</title></polygon><text class="tooltip" fill="#333" font-size="9px" x="3684.25" y="1416.5">Wall #20</text><polygon class="element" fill="#AFD8F8" opacity="0.8" points="3584.0,1668.0 3539.0,1669.0 3538.0,1951.0 3584.0,1949.0"><title>Wall (id=21)</title></polygon><text class="tooltip" fill="#333" font-size="9px" x="3561.25" y="1804.25">Wall #21</text><polygon class="element" fill="#AFD8F8" opacity="0.8" points="3582.0,2165.0 3540.0,2165.0 3540.0,2261.0 3582.0,2261.0"><title>Wall (id=22)</title></polygon><text class="tooltip" fill="#333" font-size="9px" x="3561.0" y="2208.0">Wall #22</text><polygon class="element" fill="#AFD8F8" opacity="0.8" points="3540.0,2304.0 3540.0,2261.0 4014.0,2263.0 4014.0,2305.0"><title>Wall (id=23)</title></polygon><text class="tooltip" fill="#333" font-size="9px" x="3777.0" y="2278.25">Wall #23</text><polygon class="element" fill="#AFD8F8" opacity="0.8" points="3758.0,1066.0 3759.0,1200.0 3765.0,1200.0 3765.0,1066.0"><title>Wall (id=24)</title></polygon><text class="tooltip" fill="#333" font-size="9px" x="3761.75" y="1128.0">Wall #24</text><polygon class="element" fill="#AFD8F8" opacity="0.8" points="3681.0,1059.0 3681.0,1065.0 3764.0,1065.0 3765.0,1058.0"><title>Wall (id=25)</title></polygon><text class="tooltip" fill="#333" font-size="9px" x="3722.75" y="1056.75">Wall #25</text><polygon class="element" fill="#AFD8F8" opacity="0.8" points="3788.0,1536.0 3794.0,1536.0 3793.0,1314.0 3787.0,1314.0"><title>Wall (id=26)</title></polygon><text class="tooltip" fill="#333" font-size="9px" x="3790.5" y="1420.0">Wall #26</text><polygon class="element" fill="#AFD8F8" opacity="0.8" points="3787.0,1306.0 3788.0,1313.0 3895.0,1313.0 3894.0,1306.0"><title>Wall (id=27)</title></polygon><text class="tooltip" fill="#333" font-size="9px" x="3841.0" y="1304.5">Wall #27</text><polygon class="element" fill="#AFD8F8" opacity="0.8" points="3970.0,1536.0 3977.0,1536.0 3977.0,1681.0 3977.0,1874.0 3971.0,1874.0"><title>Wall (id=28)</title></polygon><text class="tooltip" fill="#333" font-size="9px" x="3974.4" y="1695.2">Wall #28</text><polygon class="element" fill="#AFD8F8" opacity="0.8" points="3894.0,1654.0 3894.0,1660.0 3970.0,1660.0 3970.0,1654.0"><title>Wall (id=29)</title></polygon><text class="tooltip" fill="#333" font-size="9px" x="3932.0" y="1652.0">Wall #29</text><polygon class="element" fill="#AFD8F8" opacity="0.8" points="3894.0,1299.0 3901.0,1299.0 3901.0,1562.0 3893.0,1562.0"><title>Wall (id=30)</title></polygon><text class="tooltip" fill="#333" font-size="9px" x="3897.25" y="1425.5">Wall #30</text><polygon class="element" fill="#AFD8F8" opacity="0.8" points="4397.0,1823.0 4354.0,1823.0 4354.0,2261.0 4396.0,2261.0"><title>Wall (id=31)</title></polygon><text class="tooltip" fill="#333" font-size="9px" x="4375.25" y="2037.0">Wall #31</text><polygon class="element" fill="#AFD8F8" opacity="0.8" points="4396.0,2304.0 4396.0,2261.0 4161.0,2262.0 4163.0,2304.0"><title>Wall (id=32)</title></polygon><text class="tooltip" fill="#333" font-size="9px" x="4279.0" y="2277.75">Wall #32</text><polygon class="element" fill="#F6BD0F" opacity="0.8" points="3144.0,887.0 3195.0,886.0 3197.0,1030.0 3146.0,1028.0"><title>Window (id=33)</title></polygon><text class="tooltip" fill="#333" font-size="9px" x="3170.5" y="952.75">Window #33</text><polygon class="element" fill="#F6BD0F" opacity="0.8" points="3143.0,1257.0 3195.0,1259.0 3197.0,1400.0 3142.0,1400.0"><title>Window (id=34)</title></polygon><text class="tooltip" fill="#333" font-size="9px" x="3169.25" y="1324.0">Window #34</text><polygon class="element" fill="#AFD8F8" opacity="0.8" points="3403.0,1809.0 3429.0,1807.0 3430.0,1835.0 3404.0,1836.0"><title>Wall (id=35)</title></polygon><text class="tooltip" fill="#333" font-size="9px" x="3416.5" y="1816.75">Wall #35</text><polygon class="element" fill="#FF8E46" opacity="0.8" points="3679.0,1567.0 3537.0,1568.0 3536.0,1676.0 3584.0,1674.0 3643.0,1657.0 3677.0,1616.0 3678.0,1591.5"><title>Door (id=36)</title></polygon><text class="tooltip" fill="#333" font-size="9px" x="3619.142857142857" y="1616.357142857143">Door #36</text><polygon class="element" fill="#AFD8F8" opacity="0.8" points="3403.0,2279.0 3428.0,2279.0 3428.0,2305.0 3402.0,2306.0"><title>Wall (id=37)</title></polygon><text class="tooltip" fill="#333" font-size="9px" x="3415.25" y="2287.25">Wall #37</text><polygon class="element" fill="#F6BD0F" opacity="0.8" points="3650.0,2087.0 3583.0,2088.0 3585.0,2164.0 3538.0,2166.0 3536.0,1952.0 3648.0,1953.0 3646.0,1995.0 3611.0,2020.0 3641.0,2045.0"><title>Window (id=38)</title></polygon><text class="tooltip" fill="#333" font-size="9px" x="3604.222222222222" y="2047.2222222222222">Window #38</text><polygon class="element" fill="#F6BD0F" opacity="0.8" points="4016.0,2259.0 4017.0,2306.0 4162.0,2308.0 4161.0,2260.0"><title>Window (id=39)</title></polygon><text class="tooltip" fill="#333" font-size="9px" x="4089.0" y="2278.25">Window #39</text><polygon class="element" fill="#F6BD0F" opacity="0.8" points="4350.0,1675.0 4401.0,1673.0 4402.0,1821.0 4352.0,1823.0"><title>Window (id=40)</title></polygon><text class="tooltip" fill="#333" font-size="9px" x="4376.25" y="1743.0">Window #40</text><polygon class="element" fill="#F6BD0F" opacity="0.8" points="4119.0,1326.0 4169.0,1326.0 4169.0,1402.0 4121.0,1403.0"><title>Window (id=41)</title></polygon><text class="tooltip" fill="#333" font-size="9px" x="4144.5" y="1359.25">Window #41</text><polygon class="element" fill="#F6BD0F" opacity="0.8" points="4120.0,881.0 4170.0,882.0 4171.0,1028.0 4120.0,1030.0"><title>Window (id=42)</title></polygon><text class="tooltip" fill="#333" font-size="9px" x="4145.25" y="950.25">Window #42</text><polygon class="element" fill="#FF8E46" opacity="0.8" points="3887.5,1111.0 3889.5,1201.0 3794.5,1202.0 3801.5,1156.0 3836.5,1119.0"><title>Door (id=43)</title></polygon><text class="tooltip" fill="#333" font-size="9px" x="3841.9" y="1152.8">Door #43</text><polygon class="element" fill="#FF8E46" opacity="0.8" points="3991.0,1208.0 3891.0,1207.0 3893.0,1309.0 3947.0,1298.0 3986.0,1253.0"><title>Door (id=44)</title></polygon><text class="tooltip" fill="#333" font-size="9px" x="3941.6" y="1250.0">Door #44</text><polygon class="element" fill="#FF8E46" opacity="0.8" points="3676.0,1110.0 3677.0,1208.0 3581.0,1206.0 3591.0,1159.0 3626.0,1121.0"><title>Door (id=45)</title></polygon><text class="tooltip" fill="#333" font-size="9px" x="3630.2" y="1155.8">Door #45</text><polygon class="element" fill="#FF8E46" opacity="0.8" points="3483.0,1209.0 3577.0,1206.0 3582.0,1304.0 3532.0,1294.0 3497.0,1260.0"><title>Door (id=46)</title></polygon><text class="tooltip" fill="#333" font-size="9px" x="3534.2" y="1249.6">Door #46</text><polygon class="element" fill="#FF8E46" opacity="0.8" points="3678.0,1405.0 3680.0,1305.0 3578.0,1301.0 3595.0,1362.0 3635.0,1397.0"><title>Door (id=47)</title></polygon><text class="tooltip" fill="#333" font-size="9px" x="3633.2" y="1349.0">Door #47</text><polygon class="element" fill="#FF8E46" opacity="0.8" points="3808.0,1583.0 3895.0,1530.0 3792.0,1533.0 3796.0,1561.0"><title>Door (id=48)</title></polygon><text class="tooltip" fill="#333" font-size="9px" x="3822.75" y="1546.75">Door #48</text><polygon class="element" fill="#FF8E46" opacity="0.8" points="3848.0,1641.0 3898.0,1547.0 3893.0,1652.0 3867.0,1649.0"><title>Door (id=49)</title></polygon><text class="tooltip" fill="#333" font-size="9px" x="3876.5" y="1617.25">Door #49</text><polygon class="element" fill="#008E8E" opacity="0.5" points="3194.5,812.5 3194.5,1133.5 3578.5,1133.5 3583.5,1193.5 3753.5,1197.5 3751.5,1069.5 3677.5,1067.5 3675.5,815.5"><title>Room (id=50)</title></polygon><text class="tooltip" fill="#333" font-size="9px" x="3551.125" y="1047.875">Room #50</text><polygon class="element" fill="#008E8E" opacity="0.5" points="3693.0,817.0 3692.0,1050.0 3769.0,1055.0 3768.0,1193.0 4118.0,1194.0 4119.0,815.0"><title>Room (id=51)</title></polygon><text class="tooltip" fill="#333" font-size="9px" x="3859.833333333333" y="1015.6666666666666">Room #51</text><polygon class="element" fill="#008E8E" opacity="0.5" points="3197.0,1153.0 3194.0,1470.0 3571.0,1472.0 3569.0,1153.0"><title>Room (id=52)</title></polygon><text class="tooltip" fill="#333" font-size="9px" x="3382.75" y="1307.0">Room #52</text><polygon class="element" fill="#008E8E" opacity="0.5" points="4118.0,1210.0 4119.0,1525.0 3906.0,1524.0 3902.0,1210.0"><title>Room (id=53)</title></polygon><text class="tooltip" fill="#333" font-size="9px" x="4011.25" y="1362.25">Room #53</text><polygon class="element" fill="#008E8E" opacity="0.5" points="3579.0,1207.0 3886.0,1205.0 3890.0,1300.0 3783.0,1299.0 3787.0,1527.0 3688.0,1527.0 3690.0,1300.0 3577.0,1298.0"><title>Room (id=54)</title></polygon><text class="tooltip" fill="#333" font-size="9px" x="3735.0" y="1327.875">Room #54</text><polygon class="element" fill="#008E8E" opacity="0.5" points="3586.0,1525.0 3677.0,1526.0 3676.0,1308.0 3586.0,1307.0"><title>Room (id=55)</title></polygon><text class="tooltip" fill="#333" font-size="9px" x="3631.25" y="1411.5">Room #55</text><polygon class="element" fill="#008E8E" opacity="0.5" points="3889.5,1316.5 3889.5,1523.5 3796.5,1529.5 3794.5,1317.5"><title>Room (id=56)</title></polygon><text class="tooltip" fill="#333" font-size="9px" x="3842.5" y="1416.75">Room #56</text><polygon class="element" fill="#008E8E" opacity="0.5" points="3977.5,1540.5 3978.0,1862.0 4350.5,1862.5 4350.5,1539.5"><title>Room (id=57)</title></polygon><text class="tooltip" fill="#333" font-size="9px" x="4164.125" y="1696.125">Room #57</text><polygon class="element" fill="#008E8E" opacity="0.5" points="3583.0,1679.0 3585.0,2255.5 4348.0,2256.5 4346.0,1875.5 3968.0,1874.5 3970.0,1675.0"><title>Room (id=58)</title></polygon><text class="tooltip" fill="#333" font-size="9px" x="3966.666666666667" y="1931.0">Room #58</text><polygon class="element" fill="#008E8E" opacity="0.5" points="3585.5,1542.0 3584.5,1668.0 3888.5,1663.0 3890.5,1538.0"><title>Room (id=59)</title></polygon><text class="tooltip" fill="#333" font-size="9px" x="3737.25" y="1597.75">Room #59</text><polygon class="element" fill="#008E8E" opacity="0.5" points="3901.0,1539.0 3969.0,1538.0 3969.0,1655.0 3897.0,1656.0"><title>Room (id=60)</title></polygon><text class="tooltip" fill="#333" font-size="9px" x="3934.0" y="1592.0">Room #60</text><polygon class="element" fill="#D64646" opacity="0.8" points="3978.0,1861.0 4261.0,1861.0 4261.0,1877.0 3978.0,1877.0"><title>Separation (id=61)</title></polygon><text class="tooltip" fill="#333" font-size="9px" x="4119.5" y="1864.0">Separation #61</text><polygon class="element" fill="#D64646" opacity="0.8" points="3581.0,1665.0 3893.0,1663.0 3893.0,1678.0 3581.0,1679.0"><title>Separation (id=62)</title></polygon><text class="tooltip" fill="#333" font-size="9px" x="3737.0" y="1666.25">Separation #62</text><polygon class="element" fill="#D64646" opacity="0.8" points="3688.0,1524.0 3785.0,1524.0 3785.0,1539.0 3688.0,1539.0"><title>Separation (id=63)</title></polygon><text class="tooltip" fill="#333" font-size="9px" x="3736.5" y="1526.5">Separation #63</text><polygon class="element" fill="#9B59B6" opacity="0.8" points="3812.1866316064898,1675.0 4248.067817135972,1675.0 4248.067817135972,2546.762371058966 3812.1866316064898,2546.762371058966"><title>Stair (id=64)</title></polygon><text class="tooltip" fill="#333" font-size="9px" x="4030.1272243712315" y="2105.881185529483">Stair #64</text><polygon class="problem" fill="#9B59B6" opacity="0.6" points="3812.1866316064898,1675.0 4248.067817135972,1675.0 4248.067817135972,2546.762371058966 3812.1866316064898,2546.762371058966" /></g><text fill="#27AE60" font-size="12px" font-weight="bold" x="50.0" y="3578.0">Stair: 0.99</text><text fill="#27AE60" font-size="12px" font-weight="bold" x="1141.2" y="3578.0">Wall: 0.83</text><text fill="#27AE60" font-size="12px" font-weight="bold" x="2232.4" y="3578.0">Door: 1.00</text><text fill="#E74C3C" font-size="12px" font-weight="bold" x="3323.6000000000004" y="3578.0">Egress: 0.00</text><text fill="#27AE60" font-size="12px" font-weight="bold" x="4414.8" y="3578.0">Overall: 0.93</text></svg>